SplineFontDB: 3.2
FontName: ATM345-Regular
FullName: ATM345-Regular
FamilyName: ATM 345
Weight: Book
Copyright: AzhaguThamizh
Version: 1.001
ItalicAngle: -11
UnderlinePosition: -271
UnderlineWidth: 102
Ascent: 1600
Descent: 400
InvalidEm: 0
sfntRevision: 0x00010042
LayerCount: 2
Layer: 0 1 "Back" 1
Layer: 1 1 "Fore" 0
XUID: [1021 192 2086997156 32207]
StyleMap: 0x0040
FSType: 8
OS2Version: 3
OS2_WeightWidthSlopeOnly: 0
OS2_UseTypoMetrics: 0
CreationTime: 1536986443
ModificationTime: 1545708190
PfmFamily: 17
TTFWeight: 400
TTFWidth: 5
LineGap: 0
VLineGap: 0
Panose: 2 11 6 4 2 2 2 2 2 4
OS2TypoAscent: 2000
OS2TypoAOffset: 0
OS2TypoDescent: -1320
OS2TypoDOffset: 0
OS2TypoLinegap: 0
OS2WinAscent: 2000
OS2WinAOffset: 0
OS2WinDescent: 744
OS2WinDOffset: 0
HheadAscent: 2000
HheadAOffset: 0
HheadDescent: -1320
HheadDOffset: 0
OS2SubXSize: 1400
OS2SubYSize: 1300
OS2SubXOff: 0
OS2SubYOff: 0
OS2SupXSize: 1400
OS2SupYSize: 1300
OS2SupXOff: 0
OS2SupYOff: 0
OS2StrikeYSize: 100
OS2StrikeYPos: 518
OS2CapHeight: 1586
OS2XHeight: -200
OS2Vendor: '    '
OS2CodePages: 00000001.00000000
OS2UnicodeRanges: 00100003.00000000.00000000.00000000
Lookup: 4 0 0 "'akhn' Akhand in Tamil2 lookup 0" { "'akhn' Akhand in Tamil2 lookup 0 subtable"  } ['akhn' ('tml2' <'dflt' > ) ]
Lookup: 4 0 0 "'akhn' Akhand in Tamil lookup 1" { "'akhn' Akhand in Tamil lookup 1 subtable"  } ['akhn' ('taml' <'dflt' > ) ]
Lookup: 4 0 0 "'half' Half Forms in Tamil lookup 2" { "'half' Half Forms in Tamil lookup 2 subtable"  } ['half' ('taml' <'dflt' > ) ]
Lookup: 4 0 0 "'haln' Halant Forms in Tamil2 lookup 3" { "'haln' Halant Forms in Tamil2 lookup 3 subtable"  } ['haln' ('tml2' <'dflt' > ) ]
Lookup: 4 0 0 "'haln' Halant Forms in Tamil lookup 4" { "'haln' Halant Forms in Tamil lookup 4 subtable"  } ['haln' ('taml' <'dflt' > ) ]
Lookup: 4 0 0 "'abvs' Above Base Substitutions lookup 5" { "'abvs' Above Base Substitutions lookup 5 subtable"  } ['abvs' ('taml' <'dflt' > 'tml2' <'dflt' > ) ]

StartChar: .notdef
Encoding: 65536 -1 0
Width: 1600
Flags: W
LayerCount: 2
Fore
SplineSet
100 0 m 1,0,-1
 100 1600 l 1,1,-1
 1500 1600 l 1,2,-1
 1500 0 l 1,3,-1
 100 0 l 1,0,-1
1400 100 m 1,4,-1
 1400 1500 l 1,5,-1
 200 1500 l 1,6,-1
 200 100 l 1,7,-1
 1400 100 l 1,4,-1
EndSplineSet
EndChar

StartChar: exclam
Encoding: 33 33 4
Width: 444
GlyphClass: 2
Flags: W
LayerCount: 2
Fore
SplineSet
180 284 m 1,0,-1
 138 892 l 1,1,-1
 138 1146 l 1,2,-1
 312 1146 l 1,3,-1
 312 892 l 1,4,-1
 270 284 l 1,5,-1
 180 284 l 1,0,-1
144 0 m 1,6,-1
 144 160 l 1,7,-1
 306 160 l 1,8,-1
 306 0 l 1,9,-1
 144 0 l 1,6,-1
EndSplineSet
EndChar

StartChar: quotedbl
Encoding: 34 34 5
Width: 568
GlyphClass: 2
Flags: W
LayerCount: 2
Fore
SplineSet
112 740 m 1,0,-1
 74 958 l 1,1,-1
 74 1146 l 1,2,-1
 234 1146 l 1,3,-1
 234 958 l 1,4,-1
 198 740 l 1,5,-1
 112 740 l 1,0,-1
372 740 m 1,6,-1
 332 958 l 1,7,-1
 332 1146 l 1,8,-1
 492 1146 l 1,9,-1
 492 958 l 1,10,-1
 456 740 l 1,11,-1
 372 740 l 1,6,-1
EndSplineSet
EndChar

StartChar: numbersign
Encoding: 35 35 6
Width: 890
GlyphClass: 2
Flags: W
LayerCount: 2
Fore
SplineSet
876 306 m 1,0,-1
 636 306 l 1,1,-1
 568 -28 l 1,2,-1
 434 -28 l 1,3,-1
 500 306 l 1,4,-1
 272 306 l 1,5,-1
 204 -28 l 1,6,-1
 70 -28 l 1,7,-1
 140 306 l 1,8,-1
 8 306 l 1,9,-1
 8 438 l 1,10,-1
 164 438 l 1,11,-1
 220 706 l 1,12,-1
 8 706 l 1,13,-1
 8 838 l 1,14,-1
 246 838 l 1,15,-1
 316 1172 l 1,16,-1
 448 1172 l 1,17,-1
 380 838 l 1,18,-1
 610 838 l 1,19,-1
 678 1172 l 1,20,-1
 812 1172 l 1,21,-1
 744 838 l 1,22,-1
 876 838 l 1,23,-1
 876 706 l 1,24,-1
 716 706 l 1,25,-1
 662 438 l 1,26,-1
 876 438 l 1,27,-1
 876 306 l 1,0,-1
584 706 m 1,28,-1
 354 706 l 1,29,-1
 300 438 l 1,30,-1
 528 438 l 1,31,-1
 584 706 l 1,28,-1
EndSplineSet
EndChar

StartChar: dollar
Encoding: 36 36 7
Width: 890
GlyphClass: 2
Flags: W
LayerCount: 2
Fore
SplineSet
822 326 m 0,0,1
 822 172 822 172 728 76 c 0,2,3
 684 28 684 28 618 -4 c 1,4,5
 550 -30 550 -30 490 -30 c 1,6,-1
 490 -172 l 1,7,-1
 390 -172 l 1,8,-1
 390 -32 l 1,9,10
 286 -20 286 -20 226 12 c 0,11,12
 156 50 156 50 109 125 c 128,-1,13
 62 200 62 200 50 326 c 1,14,-1
 206 354 l 1,15,16
 220 238 220 238 262 182 c 1,17,18
 316 118 316 118 390 104 c 1,19,-1
 390 536 l 1,20,-1
 310 556 l 1,21,-1
 218 604 l 2,22,23
 158 636 158 636 108 710 c 1,24,-1
 84 782 l 2,25,26
 78 798 78 798 76 818 c 128,-1,27
 74 838 74 838 74 864 c 0,28,29
 74 1012 74 1012 182 1114 c 0,30,31
 214 1140 214 1140 269 1161 c 128,-1,32
 324 1182 324 1182 390 1190 c 1,33,-1
 390 1260 l 1,34,-1
 490 1260 l 1,35,-1
 490 1192 l 1,36,37
 536 1192 536 1192 590 1172 c 0,38,39
 634 1158 634 1158 680 1118 c 0,40,41
 774 1038 774 1038 796 894 c 1,42,-1
 636 872 l 1,43,44
 624 958 624 958 582 1000 c 1,45,46
 554 1036 554 1036 490 1054 c 1,47,-1
 490 666 l 1,48,49
 548 654 548 654 577 645 c 128,-1,50
 606 636 606 636 626 626 c 0,51,52
 692 598 692 598 734 556 c 0,53,54
 754 536 754 536 769 511 c 128,-1,55
 784 486 784 486 800 452 c 0,56,57
 822 390 822 390 822 326 c 0,0,1
390 688 m 1,58,-1
 390 1058 l 1,59,60
 318 1046 318 1046 276 996 c 1,61,62
 230 950 230 950 230 876 c 0,63,64
 230 812 230 812 268 758 c 1,65,66
 302 718 302 718 390 688 c 1,58,-1
662 316 m 0,67,68
 662 388 662 388 627 430 c 128,-1,69
 592 472 592 472 490 510 c 1,70,-1
 490 104 l 1,71,72
 564 116 564 116 612 170 c 0,73,74
 662 232 662 232 662 316 c 0,67,68
EndSplineSet
EndChar

StartChar: percent
Encoding: 37 37 8
Width: 1422
GlyphClass: 2
Flags: W
LayerCount: 2
Fore
SplineSet
92 870 m 0,0,1
 92 992 92 992 154 1078 c 128,-1,2
 216 1164 216 1164 332 1164 c 0,3,4
 440 1164 440 1164 511 1087 c 128,-1,5
 582 1010 582 1010 582 862 c 0,6,7
 582 720 582 720 510 638 c 0,8,9
 474 600 474 600 431 580 c 128,-1,10
 388 560 388 560 334 560 c 0,11,12
 234 560 234 560 162 636 c 0,13,14
 132 670 132 670 110 732 c 0,15,16
 104 760 104 760 98 797 c 128,-1,17
 92 834 92 834 92 870 c 0,0,1
338 1068 m 0,18,19
 286 1068 286 1068 251 1023 c 128,-1,20
 216 978 216 978 216 856 c 0,21,22
 216 750 216 750 250 700 c 0,23,24
 284 656 284 656 338 656 c 256,25,26
 392 656 392 656 426 704 c 128,-1,27
 460 752 460 752 460 868 c 0,28,29
 460 974 460 974 426 1021 c 128,-1,30
 392 1068 392 1068 338 1068 c 0,18,19
338 -42 m 1,31,-1
 964 1164 l 1,32,-1
 1078 1164 l 1,33,-1
 454 -42 l 1,34,-1
 338 -42 l 1,31,-1
834 268 m 0,35,36
 834 396 834 396 896 480 c 128,-1,37
 958 564 958 564 1076 564 c 0,38,39
 1180 564 1180 564 1252 487 c 128,-1,40
 1324 410 1324 410 1324 260 c 0,41,42
 1324 120 1324 120 1251 39 c 128,-1,43
 1178 -42 1178 -42 1076 -42 c 256,44,45
 974 -42 974 -42 902 36 c 0,46,47
 870 70 870 70 852 130 c 128,-1,48
 834 190 834 190 834 268 c 0,35,36
1078 468 m 0,49,50
 1028 468 1028 468 992 422 c 128,-1,51
 956 376 956 376 956 254 c 0,52,53
 956 150 956 150 990 102 c 128,-1,54
 1024 54 1024 54 1078 54 c 256,55,56
 1132 54 1132 54 1167 100 c 128,-1,57
 1202 146 1202 146 1202 266 c 0,58,59
 1202 376 1202 376 1164 420 c 1,60,61
 1130 468 1130 468 1078 468 c 0,49,50
EndSplineSet
EndChar

StartChar: ampersand
Encoding: 38 38 9
Width: 1068
GlyphClass: 2
Flags: W
LayerCount: 2
Fore
SplineSet
760 134 m 1,0,1
 728 96 728 96 689 67 c 128,-1,2
 650 38 650 38 609 19 c 128,-1,3
 568 0 568 0 525 -10 c 128,-1,4
 482 -20 482 -20 432 -20 c 0,5,6
 254 -20 254 -20 152 100 c 0,7,8
 68 200 68 200 68 316 c 0,9,10
 68 418 68 418 135 505 c 128,-1,11
 202 592 202 592 340 658 c 1,12,13
 306 698 306 698 280 734 c 128,-1,14
 254 770 254 770 238 798 c 0,15,16
 212 860 212 860 212 908 c 0,17,18
 212 1010 212 1010 293 1087 c 128,-1,19
 374 1164 374 1164 498 1164 c 0,20,21
 610 1164 610 1164 687 1092 c 128,-1,22
 764 1020 764 1020 764 920 c 0,23,24
 764 756 764 756 548 642 c 1,25,-1
 752 380 l 1,26,27
 782 442 782 442 806 540 c 1,28,-1
 954 508 l 1,29,30
 916 360 916 360 852 260 c 1,31,32
 926 162 926 162 1030 84 c 1,33,-1
 936 -28 l 1,34,35
 892 2 892 2 850 40 c 128,-1,36
 808 78 808 78 760 134 c 1,0,1
474 732 m 1,37,38
 518 758 518 758 548 782 c 128,-1,39
 578 806 578 806 590 826 c 0,40,41
 620 866 620 866 620 916 c 0,42,43
 620 974 620 974 582 1012 c 128,-1,44
 544 1050 544 1050 490 1050 c 256,45,46
 436 1050 436 1050 396 1012 c 0,47,48
 378 994 378 994 367 972 c 128,-1,49
 356 950 356 950 356 924 c 2,50,-1
 358 898 l 1,51,-1
 368 872 l 1,52,-1
 386 838 l 1,53,-1
 412 804 l 1,54,-1
 474 732 l 1,37,38
672 246 m 1,55,-1
 414 566 l 1,56,57
 300 498 300 498 260 438 c 0,58,59
 242 410 242 410 231 380 c 128,-1,60
 220 350 220 350 220 324 c 0,61,62
 220 254 220 254 275 179 c 128,-1,63
 330 104 330 104 434 104 c 0,64,65
 496 104 496 104 564 143 c 128,-1,66
 632 182 632 182 672 246 c 1,55,-1
EndSplineSet
EndChar

StartChar: quotesingle
Encoding: 39 39 10
Width: 306
GlyphClass: 2
Flags: W
LayerCount: 2
Fore
SplineSet
106 740 m 1,0,-1
 70 954 l 1,1,-1
 70 1146 l 1,2,-1
 230 1146 l 1,3,-1
 230 954 l 1,4,-1
 194 740 l 1,5,-1
 106 740 l 1,0,-1
EndSplineSet
EndChar

StartChar: parenleft
Encoding: 40 40 11
Width: 532
GlyphClass: 2
Flags: W
LayerCount: 2
Fore
SplineSet
374 -336 m 1,0,1
 316 -260 316 -260 268 -176 c 128,-1,2
 220 -92 220 -92 178 10 c 0,3,4
 98 202 98 202 98 414 c 0,5,6
 98 606 98 606 156 772 c 0,7,8
 192 872 192 872 246 969 c 128,-1,9
 300 1066 300 1066 374 1164 c 1,10,-1
 476 1164 l 1,11,12
 426 1084 426 1084 396 1027 c 128,-1,13
 366 970 366 970 350 932 c 0,14,15
 306 830 306 830 274 697 c 128,-1,16
 242 564 242 564 242 414 c 0,17,18
 242 32 242 32 476 -336 c 1,19,-1
 374 -336 l 1,0,1
EndSplineSet
EndChar

StartChar: parenright
Encoding: 41 41 12
Width: 532
GlyphClass: 2
Flags: W
LayerCount: 2
Fore
SplineSet
160 -336 m 1,0,-1
 60 -336 l 1,1,2
 292 40 292 40 292 414 c 0,3,4
 292 558 292 558 262 700 c 128,-1,5
 232 842 232 842 184 932 c 1,6,7
 162 984 162 984 60 1164 c 1,8,-1
 160 1164 l 1,9,10
 306 970 306 970 376 772 c 0,11,12
 436 598 436 598 436 414 c 0,13,14
 436 302 436 302 418 206 c 128,-1,15
 400 110 400 110 356 10 c 1,16,17
 282 -182 282 -182 160 -336 c 1,0,-1
EndSplineSet
EndChar

StartChar: asterisk
Encoding: 42 42 13
Width: 622
GlyphClass: 2
Flags: W
LayerCount: 2
Fore
SplineSet
578 930 m 1,0,1
 530 916 530 916 483 905 c 128,-1,2
 436 894 436 894 388 886 c 1,3,4
 438 842 438 842 518 742 c 1,5,-1
 412 668 l 1,6,7
 388 698 388 698 364 735 c 128,-1,8
 340 772 340 772 306 828 c 1,9,10
 280 778 280 778 254 738 c 128,-1,11
 228 698 228 698 204 668 c 1,12,-1
 100 744 l 1,13,14
 126 774 126 774 156 810 c 0,15,16
 196 856 196 856 224 886 c 1,17,18
 194 892 194 892 149 902 c 128,-1,19
 104 912 104 912 40 930 c 1,20,-1
 82 1058 l 1,21,22
 140 1038 140 1038 185 1018 c 128,-1,23
 230 998 230 998 258 982 c 1,24,-1
 244 1172 l 1,25,-1
 372 1172 l 1,26,-1
 372 1110 l 1,27,-1
 366 1072 l 1,28,-1
 356 986 l 1,29,-1
 424 1016 l 1,30,-1
 538 1058 l 1,31,-1
 578 930 l 1,0,1
EndSplineSet
EndChar

StartChar: plus
Encoding: 43 43 14
Width: 934
GlyphClass: 2
Flags: W
LayerCount: 2
Fore
SplineSet
400 186 m 1,0,-1
 400 500 l 1,1,-1
 90 500 l 1,2,-1
 90 630 l 1,3,-1
 400 630 l 1,4,-1
 400 942 l 1,5,-1
 532 942 l 1,6,-1
 532 630 l 1,7,-1
 844 630 l 1,8,-1
 844 500 l 1,9,-1
 532 500 l 1,10,-1
 532 186 l 1,11,-1
 400 186 l 1,0,-1
EndSplineSet
EndChar

StartChar: comma
Encoding: 44 44 15
Width: 444
GlyphClass: 2
Flags: W
LayerCount: 2
Fore
SplineSet
142 0 m 1,0,-1
 142 160 l 1,1,-1
 302 160 l 1,2,-1
 302 0 l 2,3,4
 302 -88 302 -88 272 -140 c 128,-1,5
 242 -192 242 -192 172 -228 c 1,6,-1
 132 -166 l 1,7,8
 172 -152 172 -152 197 -109 c 128,-1,9
 222 -66 222 -66 222 0 c 1,10,-1
 142 0 l 1,0,-1
EndSplineSet
EndChar

StartChar: hyphen
Encoding: 45 45 16
Width: 532
GlyphClass: 2
Flags: W
LayerCount: 2
Fore
SplineSet
52 344 m 1,0,-1
 52 484 l 1,1,-1
 484 484 l 1,2,-1
 484 344 l 1,3,-1
 52 344 l 1,0,-1
EndSplineSet
EndChar

StartChar: period
Encoding: 46 46 17
Width: 444
GlyphClass: 2
Flags: W
LayerCount: 2
Fore
SplineSet
146 0 m 1,0,-1
 146 160 l 1,1,-1
 306 160 l 1,2,-1
 306 0 l 1,3,-1
 146 0 l 1,0,-1
EndSplineSet
EndChar

StartChar: slash
Encoding: 47 47 18
Width: 444
GlyphClass: 2
Flags: W
LayerCount: 2
Fore
SplineSet
0 -20 m 1,0,-1
 332 1164 l 1,1,-1
 444 1164 l 1,2,-1
 114 -20 l 1,3,-1
 0 -20 l 1,0,-1
EndSplineSet
EndChar

StartChar: zero
Encoding: 48 48 19
Width: 928
GlyphClass: 2
Flags: W
LayerCount: 2
Fore
SplineSet
864 415 m 0,0,1
 864 227 864 227 752 105.5 c 128,-1,2
 640 -16 640 -16 459 -16 c 0,3,4
 283 -16 283 -16 177 98 c 0,5,6
 63 218 63 218 63 431 c 0,7,8
 63 648 63 648 182 767 c 0,9,10
 296 879 296 879 480 879 c 0,11,12
 668 879 668 879 769 750 c 0,13,14
 864 628 864 628 864 415 c 0,0,1
657 446 m 0,15,16
 657 784 657 784 469 784 c 0,17,18
 267 784 267 784 267 419 c 0,19,20
 267 74 267 74 460 74 c 0,21,22
 657 74 657 74 657 446 c 0,15,16
EndSplineSet
EndChar

StartChar: one
Encoding: 49 49 20
Width: 634
GlyphClass: 2
Flags: W
LayerCount: 2
Fore
SplineSet
570 0 m 1,0,-1
 63 0 l 1,1,-1
 63 83 l 1,2,-1
 150 83 l 2,3,4
 224 83 224 83 224 159 c 2,5,-1
 224 628 l 1,6,-1
 63 628 l 1,7,-1
 63 712 l 1,8,9
 146 702 146 702 207.5 746 c 128,-1,10
 269 790 269 790 258 863 c 1,11,-1
 413 863 l 1,12,-1
 413 159 l 2,13,14
 413 83 413 83 500 83 c 2,15,-1
 570 83 l 1,16,-1
 570 0 l 1,0,-1
EndSplineSet
EndChar

StartChar: two
Encoding: 50 50 21
Width: 846
GlyphClass: 2
Flags: W
LayerCount: 2
Fore
SplineSet
784 206 m 2,0,1
 784 117 784 117 718 50.5 c 128,-1,2
 652 -16 652 -16 565 -16 c 256,3,4
 478 -16 478 -16 367 32.5 c 128,-1,5
 256 81 256 81 237 81 c 0,6,7
 175 81 175 81 148 0 c 1,8,-1
 63 0 l 1,9,-1
 63 44 l 2,10,11
 63 175 63 175 148 261 c 0,12,13
 200 315 200 315 325 377 c 0,14,15
 435 431 435 431 469 460 c 0,16,17
 531 514 531 514 531 596 c 256,18,19
 531 678 531 678 479 727 c 128,-1,20
 427 776 427 776 353 776 c 0,21,22
 281 776 281 776 229 742 c 0,23,24
 171 704 171 704 168 642 c 1,25,26
 193 660 193 660 218 660 c 0,27,28
 255 660 255 660 279 630.5 c 128,-1,29
 303 601 303 601 303 561 c 0,30,31
 303 518 303 518 270.5 491 c 128,-1,32
 238 464 238 464 193 464 c 0,33,34
 137 464 137 464 100 502.5 c 128,-1,35
 63 541 63 541 63 604 c 0,36,37
 63 731 63 731 177 805 c 0,38,39
 278 872 278 872 421 872 c 0,40,41
 556 872 556 872 640 808 c 0,42,43
 740 736 740 736 740 599 c 0,44,45
 740 446 740 446 612 379 c 1,46,47
 485 337 485 337 359 296 c 1,48,49
 213 243 213 243 186 132 c 1,50,51
 258 179 258 179 329 179 c 0,52,53
 375 179 375 179 446.5 159 c 128,-1,54
 518 139 518 139 561 139 c 0,55,56
 619 139 619 139 659.5 176 c 128,-1,57
 700 213 700 213 700 273 c 0,58,59
 700 287 700 287 696 301 c 1,60,-1
 784 301 l 1,61,-1
 784 206 l 2,0,1
EndSplineSet
EndChar

StartChar: three
Encoding: 51 51 22
Width: 868
GlyphClass: 2
Flags: W
LayerCount: 2
Fore
SplineSet
805 260 m 0,0,1
 805 123 805 123 680 47 c 0,2,3
 570 -20 570 -20 395 -20 c 0,4,5
 267 -20 267 -20 170 38 c 0,6,7
 63 104 63 104 63 209 c 0,8,9
 63 273 63 273 102.5 311 c 128,-1,10
 142 349 142 349 202 349 c 0,11,12
 243 349 243 349 274 317 c 128,-1,13
 305 285 305 285 305 242 c 0,14,15
 305 202 305 202 279 174 c 128,-1,16
 253 146 253 146 213 142 c 1,17,18
 220 110 220 110 268.5 88 c 128,-1,19
 317 66 317 66 371 66 c 0,20,21
 455 66 455 66 519 113.5 c 128,-1,22
 583 161 583 161 583 235 c 0,23,24
 583 415 583 415 405 415 c 2,25,-1
 343 415 l 1,26,-1
 343 502 l 1,27,-1
 406 502 l 2,28,29
 464 502 464 502 509 534 c 0,30,31
 561 574 561 574 561 637 c 0,32,33
 561 712 561 712 505 758 c 0,34,35
 455 798 455 798 379 798 c 0,36,37
 281 798 281 798 227 736 c 1,38,39
 265 736 265 736 291 705.5 c 128,-1,40
 317 675 317 675 317 634 c 0,41,42
 317 594 317 594 284 567 c 128,-1,43
 251 540 251 540 207 540 c 0,44,45
 80 540 80 540 80 655 c 256,46,47
 80 770 80 770 188 830 c 0,48,49
 279 879 279 879 433 879 c 0,50,51
 581 879 581 879 670 826 c 0,52,53
 769 767 769 767 769 655 c 0,54,55
 769 511 769 511 603 467 c 1,56,57
 805 423 805 423 805 260 c 0,0,1
EndSplineSet
EndChar

StartChar: four
Encoding: 52 52 23
Width: 955
GlyphClass: 2
Flags: W
LayerCount: 2
Fore
SplineSet
892 175 m 1,0,-1
 816 175 l 1,1,2
 816 251 816 251 750 251 c 2,3,-1
 675 251 l 1,4,-1
 675 159 l 2,5,6
 675 121 675 121 709.5 99.5 c 128,-1,7
 744 78 744 78 778 78 c 2,8,-1
 826 78 l 1,9,-1
 826 0 l 1,10,-1
 332 0 l 1,11,-1
 332 78 l 1,12,-1
 406 78 l 2,13,14
 441 78 441 78 464 99.5 c 128,-1,15
 487 121 487 121 487 153 c 2,16,-1
 487 251 l 1,17,-1
 63 251 l 1,18,-1
 63 377 l 1,19,-1
 502 879 l 1,20,-1
 675 879 l 1,21,-1
 675 389 l 1,22,-1
 738 389 l 2,23,24
 818 389 818 389 818 473 c 1,25,-1
 892 473 l 1,26,-1
 892 175 l 1,0,-1
487 389 m 1,27,-1
 487 693 l 1,28,-1
 225 389 l 1,29,-1
 487 389 l 1,27,-1
EndSplineSet
EndChar

StartChar: five
Encoding: 53 53 24
Width: 850
GlyphClass: 2
Flags: W
LayerCount: 2
Fore
SplineSet
787 311 m 0,0,1
 787 152 787 152 668 63 c 0,2,3
 561 -16 561 -16 389 -16 c 0,4,5
 276 -16 276 -16 177 45 c 0,6,7
 63 114 63 114 63 218 c 0,8,9
 63 281 63 281 101 316 c 128,-1,10
 139 351 139 351 195 351 c 0,11,12
 240 351 240 351 272.5 319 c 128,-1,13
 305 287 305 287 305 242 c 0,14,15
 305 206 305 206 277 179 c 128,-1,16
 249 152 249 152 211 152 c 0,17,18
 200 152 200 152 191 153 c 1,19,20
 202 117 202 117 257.5 91 c 128,-1,21
 313 65 313 65 371 65 c 0,22,23
 464 65 464 65 524.5 132.5 c 128,-1,24
 585 200 585 200 585 301 c 0,25,26
 585 520 585 520 385 520 c 0,27,28
 237 520 237 520 202 429 c 1,29,-1
 106 429 l 1,30,-1
 106 857 l 1,31,-1
 758 857 l 1,32,33
 712 772 712 772 650 732 c 0,34,35
 556 672 556 672 391 672 c 0,36,37
 309 672 309 672 218 698 c 1,38,-1
 218 554 l 1,39,40
 293 624 293 624 433 624 c 0,41,42
 588 624 588 624 680 556 c 0,43,44
 787 477 787 477 787 311 c 0,0,1
EndSplineSet
EndChar

StartChar: six
Encoding: 54 54 25
Width: 830
GlyphClass: 2
Flags: W
LayerCount: 2
Fore
SplineSet
767 249 m 0,0,1
 767 132 767 132 664 54 c 0,2,3
 567 -16 567 -16 435 -16 c 0,4,5
 261 -16 261 -16 162 98.5 c 128,-1,6
 63 213 63 213 63 401 c 0,7,8
 63 868 63 868 460 868 c 0,9,10
 567 868 567 868 644 818 c 0,11,12
 731 760 731 760 731 668 c 0,13,14
 731 538 731 538 612 538 c 0,15,16
 565 538 565 538 530 568 c 128,-1,17
 495 598 495 598 495 640 c 256,18,19
 495 682 495 682 525.5 708 c 128,-1,20
 556 734 556 734 596 730 c 1,21,22
 556 790 556 790 460 790 c 0,23,24
 357 790 357 790 304 718 c 128,-1,25
 251 646 251 646 251 522 c 0,26,27
 251 485 251 485 256 447 c 1,28,29
 343 514 343 514 475 514 c 0,30,31
 767 514 767 514 767 249 c 0,0,1
563 243 m 0,32,33
 563 317 563 317 520 372 c 128,-1,34
 477 427 477 427 408 427 c 0,35,36
 341 427 341 427 300.5 383 c 128,-1,37
 260 339 260 339 260 256 c 0,38,39
 260 170 260 170 301.5 122 c 128,-1,40
 343 74 343 74 411 74 c 0,41,42
 478 74 478 74 520.5 123.5 c 128,-1,43
 563 173 563 173 563 243 c 0,32,33
EndSplineSet
EndChar

StartChar: seven
Encoding: 55 55 26
Width: 846
GlyphClass: 2
Flags: W
LayerCount: 2
Fore
SplineSet
784 879 m 1,0,1
 788 769 788 769 708 639 c 1,2,3
 634 529 634 529 558 419 c 1,4,5
 475 287 475 287 475 175 c 0,6,7
 475 74 475 74 532 74 c 0,8,9
 543 74 543 74 556 80 c 1,10,-1
 556 0 l 1,11,-1
 313 0 l 2,12,13
 278 0 278 0 266.5 15 c 128,-1,14
 255 30 255 30 255 86 c 0,15,16
 255 255 255 255 391 427 c 0,17,18
 411 451 411 451 520 565 c 0,19,20
 604 655 604 655 650 730 c 1,21,22
 576 676 576 676 507 676 c 0,23,24
 462 676 462 676 388.5 693 c 128,-1,25
 315 710 315 710 275 710 c 0,26,27
 224 710 224 710 192.5 665.5 c 128,-1,28
 161 621 161 621 161 565 c 2,29,-1
 161 491 l 1,30,-1
 63 491 l 1,31,-1
 63 879 l 1,32,-1
 161 879 l 1,33,-1
 161 764 l 1,34,35
 213 826 213 826 249 848 c 0,36,37
 294 875 294 875 365 875 c 0,38,39
 415 875 415 875 494.5 851.5 c 128,-1,40
 574 828 574 828 610 828 c 0,41,42
 668 828 668 828 688 879 c 1,43,-1
 784 879 l 1,0,1
EndSplineSet
EndChar

StartChar: eight
Encoding: 56 56 27
Width: 881
GlyphClass: 2
Flags: W
LayerCount: 2
Fore
SplineSet
818 256 m 0,0,1
 818 134 818 134 720 56 c 0,2,3
 617 -24 617 -24 442 -24 c 0,4,5
 291 -24 291 -24 188 32 c 0,6,7
 63 98 63 98 63 218 c 0,8,9
 63 363 63 363 222 417 c 1,10,11
 96 500 96 500 96 604 c 0,12,13
 96 736 96 736 195 804 c 128,-1,14
 294 872 294 872 471 872 c 0,15,16
 616 872 616 872 691.5 810.5 c 128,-1,17
 767 749 767 749 767 642 c 0,18,19
 767 588 767 588 716 541 c 0,20,21
 675 502 675 502 616 482 c 1,22,23
 704 455 704 455 761 394 c 128,-1,24
 818 333 818 333 818 256 c 0,0,1
621 628 m 0,25,26
 621 694 621 694 567 739 c 128,-1,27
 513 784 513 784 441 784 c 0,28,29
 267 784 267 784 267 654 c 0,30,31
 267 581 267 581 347 550 c 0,32,33
 385 534 385 534 520 511 c 1,34,35
 621 547 621 547 621 628 c 0,25,26
648 199 m 0,36,37
 648 269 648 269 541 309 c 1,38,39
 439 337 439 337 337 365 c 1,40,41
 287 347 287 347 257 303.5 c 128,-1,42
 227 260 227 260 227 213 c 0,43,44
 227 150 227 150 291 97 c 128,-1,45
 355 44 355 44 431 44 c 0,46,47
 514 44 514 44 578 83 c 0,48,49
 648 126 648 126 648 199 c 0,36,37
EndSplineSet
EndChar

StartChar: nine
Encoding: 57 57 28
Width: 845
GlyphClass: 2
Flags: W
LayerCount: 2
Fore
SplineSet
782 447 m 0,0,1
 782 238 782 238 668 112 c 128,-1,2
 554 -14 554 -14 373 -14 c 0,3,4
 245 -14 245 -14 165 42.5 c 128,-1,5
 85 99 85 99 85 186 c 0,6,7
 85 235 85 235 122 265.5 c 128,-1,8
 159 296 159 296 209 296 c 0,9,10
 247 296 247 296 276 269 c 128,-1,11
 305 242 305 242 305 206 c 0,12,13
 305 142 305 142 229 119 c 1,14,15
 220 106 220 106 266.5 85.5 c 128,-1,16
 313 65 313 65 351 65 c 0,17,18
 586 65 586 65 583 409 c 1,19,20
 498 339 498 339 349 339 c 0,21,22
 224 339 224 339 143.5 408 c 128,-1,23
 63 477 63 477 63 586 c 0,24,25
 63 726 63 726 173 803 c 0,26,27
 271 872 271 872 419 872 c 0,28,29
 782 872 782 872 782 447 c 0,0,1
578 608 m 0,30,31
 578 688 578 688 531.5 738 c 128,-1,32
 485 788 485 788 415 788 c 0,33,34
 337 788 337 788 296.5 735 c 128,-1,35
 256 682 256 682 256 608 c 0,36,37
 256 429 256 429 424 429 c 0,38,39
 487 429 487 429 532.5 480 c 128,-1,40
 578 531 578 531 578 608 c 0,30,31
EndSplineSet
EndChar

StartChar: colon
Encoding: 58 58 29
Width: 444
GlyphClass: 2
Flags: W
LayerCount: 2
Fore
SplineSet
144 668 m 1,0,-1
 144 830 l 1,1,-1
 304 830 l 1,2,-1
 304 668 l 1,3,-1
 144 668 l 1,0,-1
144 0 m 1,4,-1
 144 160 l 1,5,-1
 304 160 l 1,6,-1
 304 0 l 1,7,-1
 144 0 l 1,4,-1
EndSplineSet
EndChar

StartChar: semicolon
Encoding: 59 59 30
Width: 444
GlyphClass: 2
Flags: W
LayerCount: 2
Fore
SplineSet
142 668 m 1,0,-1
 142 830 l 1,1,-1
 302 830 l 1,2,-1
 302 668 l 1,3,-1
 142 668 l 1,0,-1
142 0 m 1,4,-1
 142 160 l 1,5,-1
 302 160 l 1,6,-1
 302 0 l 2,7,8
 302 -88 302 -88 272 -140 c 128,-1,9
 242 -192 242 -192 172 -228 c 1,10,-1
 132 -166 l 1,11,12
 172 -152 172 -152 197 -109 c 128,-1,13
 222 -66 222 -66 222 0 c 1,14,-1
 142 0 l 1,4,-1
EndSplineSet
EndChar

StartChar: less
Encoding: 60 60 31
Width: 934
GlyphClass: 2
Flags: W
LayerCount: 2
Fore
SplineSet
854 164 m 1,0,-1
 80 494 l 1,1,-1
 80 638 l 1,2,-1
 854 964 l 1,3,-1
 854 806 l 1,4,-1
 268 566 l 1,5,-1
 854 324 l 1,6,-1
 854 164 l 1,0,-1
EndSplineSet
EndChar

StartChar: equal
Encoding: 61 61 32
Width: 934
GlyphClass: 2
Flags: W
LayerCount: 2
Fore
SplineSet
844 674 m 1,0,-1
 90 674 l 1,1,-1
 90 804 l 1,2,-1
 844 804 l 1,3,-1
 844 674 l 1,0,-1
844 326 m 1,4,-1
 90 326 l 1,5,-1
 90 458 l 1,6,-1
 844 458 l 1,7,-1
 844 326 l 1,4,-1
EndSplineSet
EndChar

StartChar: greater
Encoding: 62 62 33
Width: 934
GlyphClass: 2
Flags: W
LayerCount: 2
Fore
SplineSet
854 494 m 1,0,-1
 80 164 l 1,1,-1
 80 324 l 1,2,-1
 666 566 l 1,3,-1
 80 806 l 1,4,-1
 80 964 l 1,5,-1
 854 638 l 1,6,-1
 854 494 l 1,0,-1
EndSplineSet
EndChar

StartChar: question
Encoding: 63 63 34
Width: 890
GlyphClass: 2
Flags: W
LayerCount: 2
Fore
SplineSet
368 282 m 1,0,-1
 368 324 l 2,1,2
 368 402 368 402 392 468 c 0,3,4
 404 510 404 510 446 558 c 0,5,6
 466 584 466 584 542 652 c 128,-1,7
 618 720 618 720 642 758 c 128,-1,8
 666 796 666 796 666 844 c 0,9,10
 666 924 666 924 601 987 c 128,-1,11
 536 1050 536 1050 444 1050 c 0,12,13
 358 1050 358 1050 298 994 c 128,-1,14
 238 938 238 938 214 818 c 1,15,-1
 70 834 l 1,16,17
 90 992 90 992 185 1078 c 128,-1,18
 280 1164 280 1164 442 1164 c 0,19,20
 602 1164 602 1164 708 1074 c 1,21,22
 810 978 810 978 810 852 c 0,23,24
 810 776 810 776 772 714 c 0,25,26
 756 682 756 682 721 643 c 128,-1,27
 686 604 686 604 636 560 c 0,28,29
 570 500 570 500 548 470 c 0,30,31
 534 450 534 450 516 402 c 1,32,33
 504 356 504 356 504 282 c 1,34,-1
 368 282 l 1,0,-1
360 0 m 1,35,-1
 360 160 l 1,36,-1
 520 160 l 1,37,-1
 520 0 l 1,38,-1
 360 0 l 1,35,-1
EndSplineSet
EndChar

StartChar: at
Encoding: 64 64 35
Width: 1624
GlyphClass: 2
Flags: W
LayerCount: 2
Fore
SplineSet
1580 22 m 1,0,1
 1556 -28 1556 -28 1521 -71 c 128,-1,2
 1486 -114 1486 -114 1436 -158 c 0,3,4
 1342 -240 1342 -240 1204 -294 c 0,5,6
 1136 -318 1136 -318 1057 -331 c 128,-1,7
 978 -344 978 -344 876 -344 c 0,8,9
 700 -344 700 -344 554 -299 c 128,-1,10
 408 -254 408 -254 307 -168 c 128,-1,11
 206 -82 206 -82 144 44 c 1,12,13
 78 198 78 198 78 366 c 0,14,15
 78 558 78 558 156 732 c 1,16,17
 256 942 256 942 431 1058 c 128,-1,18
 606 1174 606 1174 860 1174 c 0,19,20
 1060 1174 1060 1174 1212 1092 c 1,21,22
 1366 1018 1366 1018 1460 854 c 0,23,24
 1536 718 1536 718 1536 556 c 0,25,26
 1536 326 1536 326 1374 150 c 0,27,28
 1230 -12 1230 -12 1058 -12 c 2,29,-1
 1036 -12 l 1,30,-1
 1004 -8 l 2,31,32
 980 -4 980 -4 964 6 c 0,33,34
 934 26 934 26 916 58 c 0,35,36
 906 70 906 70 900 108 c 1,37,38
 880 84 880 84 859 68 c 128,-1,39
 838 52 838 52 800 28 c 0,40,41
 734 -10 734 -10 668 -10 c 0,42,43
 596 -10 596 -10 526 32 c 0,44,45
 490 54 490 54 465 83 c 128,-1,46
 440 112 440 112 418 162 c 0,47,48
 376 250 376 250 376 348 c 0,49,50
 376 474 376 474 440 600 c 128,-1,51
 504 726 504 726 600 790 c 128,-1,52
 696 854 696 854 790 854 c 0,53,54
 828 854 828 854 861 845 c 128,-1,55
 894 836 894 836 924 816 c 0,56,57
 978 786 978 786 1022 724 c 1,58,-1
 1046 832 l 1,59,-1
 1202 832 l 1,60,-1
 1088 300 l 1,61,-1
 1064 178 l 2,62,63
 1064 164 1064 164 1076 148 c 1,64,65
 1092 136 1092 136 1110 136 c 0,66,67
 1152 136 1152 136 1214 180 c 0,68,69
 1256 210 1256 210 1290 250 c 128,-1,70
 1324 290 1324 290 1354 346 c 0,71,72
 1404 448 1404 448 1404 560 c 0,73,74
 1404 684 1404 684 1340 796 c 0,75,76
 1304 856 1304 856 1257 899 c 128,-1,77
 1210 942 1210 942 1144 976 c 128,-1,78
 1078 1010 1078 1010 1005 1027 c 128,-1,79
 932 1044 932 1044 854 1044 c 0,80,81
 674 1044 674 1044 524 960 c 128,-1,82
 374 876 374 876 292 714 c 128,-1,83
 210 552 210 552 210 380 c 0,84,85
 210 192 210 192 290 56 c 128,-1,86
 370 -80 370 -80 527 -146 c 128,-1,87
 684 -212 684 -212 876 -212 c 0,88,89
 1074 -212 1074 -212 1210 -145 c 128,-1,90
 1346 -78 1346 -78 1422 22 c 1,91,-1
 1580 22 l 1,0,1
972 508 m 0,92,93
 972 610 972 610 923 667 c 128,-1,94
 874 724 874 724 800 724 c 0,95,96
 754 724 754 724 711 699 c 128,-1,97
 668 674 668 674 629 619 c 128,-1,98
 590 564 590 564 562 484 c 0,99,100
 538 406 538 406 538 340 c 0,101,102
 538 238 538 238 584 180 c 128,-1,103
 630 122 630 122 696 122 c 0,104,105
 738 122 738 122 786 146 c 0,106,107
 804 158 804 158 829 178 c 128,-1,108
 854 198 854 198 874 222 c 0,109,110
 918 272 918 272 944 350 c 0,111,112
 960 390 960 390 966 427 c 128,-1,113
 972 464 972 464 972 508 c 0,92,93
EndSplineSet
EndChar

StartChar: bracketleft
Encoding: 91 91 36
Width: 444
GlyphClass: 2
Flags: W
LayerCount: 2
Fore
SplineSet
428 -326 m 1,0,-1
 100 -326 l 1,1,-1
 100 1154 l 1,2,-1
 428 1154 l 1,3,-1
 428 1020 l 1,4,-1
 258 1020 l 1,5,-1
 258 -194 l 1,6,-1
 428 -194 l 1,7,-1
 428 -326 l 1,0,-1
EndSplineSet
EndChar

StartChar: backslash
Encoding: 92 92 37
Width: 444
GlyphClass: 2
Flags: W
LayerCount: 2
Fore
SplineSet
456 -28 m 1,0,-1
 326 -28 l 1,1,-1
 -12 1172 l 1,2,-1
 120 1172 l 1,3,-1
 456 -28 l 1,0,-1
EndSplineSet
EndChar

StartChar: bracketright
Encoding: 93 93 38
Width: 444
GlyphClass: 2
Flags: W
LayerCount: 2
Fore
SplineSet
348 -326 m 1,0,-1
 22 -326 l 1,1,-1
 22 -194 l 1,2,-1
 192 -194 l 1,3,-1
 192 1020 l 1,4,-1
 22 1020 l 1,5,-1
 22 1154 l 1,6,-1
 348 1154 l 1,7,-1
 348 -326 l 1,0,-1
EndSplineSet
EndChar

StartChar: asciicircum
Encoding: 94 94 39
Width: 750
GlyphClass: 2
Flags: W
LayerCount: 2
Fore
SplineSet
722 532 m 1,0,-1
 560 532 l 1,1,-1
 374 982 l 1,2,-1
 194 532 l 1,3,-1
 28 532 l 1,4,-1
 312 1172 l 1,5,-1
 438 1172 l 1,6,-1
 722 532 l 1,0,-1
EndSplineSet
EndChar

StartChar: underscore
Encoding: 95 95 40
Width: 890
GlyphClass: 2
Flags: W
LayerCount: 2
Fore
SplineSet
916 -326 m 1,0,-1
 -32 -326 l 1,1,-1
 -32 -208 l 1,2,-1
 916 -208 l 1,3,-1
 916 -326 l 1,0,-1
EndSplineSet
EndChar

StartChar: grave
Encoding: 96 96 41
Width: 308
GlyphClass: 2
Flags: W
LayerCount: 2
Fore
SplineSet
292 660 m 1,0,-1
 256 620 l 1,1,-1
 184 620 l 1,2,-1
 134 662 l 1,3,-1
 92 708 l 2,4,5
 84 720 84 720 80 726 c 0,6,7
 66 748 66 748 56 768 c 2,8,-1
 46 796 l 1,9,-1
 44 830 l 2,10,11
 40 860 40 860 50 876 c 1,12,13
 52 890 52 890 62 907 c 128,-1,14
 72 924 72 924 88 933 c 128,-1,15
 104 942 104 942 140 948 c 1,16,-1
 204 948 l 1,17,-1
 232 944 l 1,18,-1
 254 928 l 1,19,-1
 268 906 l 2,20,21
 276 898 276 898 276 878 c 0,22,23
 276 856 276 856 268 837 c 128,-1,24
 260 818 260 818 242 812 c 2,25,-1
 222 802 l 1,26,-1
 204 798 l 1,27,-1
 138 798 l 1,28,-1
 130 800 l 1,29,-1
 116 804 l 1,30,-1
 106 806 l 1,31,-1
 108 822 l 1,32,-1
 178 822 l 1,33,-1
 182 802 l 1,34,-1
 184 788 l 1,35,-1
 190 768 l 1,36,-1
 204 742 l 1,37,-1
 220 720 l 1,38,-1
 240 702 l 1,39,-1
 260 684 l 1,40,-1
 292 660 l 1,0,-1
EndSplineSet
EndChar

StartChar: braceleft
Encoding: 123 123 42
Width: 534
GlyphClass: 2
Flags: W
LayerCount: 2
Fore
SplineSet
506 -344 m 1,0,-1
 452 -344 l 2,1,2
 376 -344 376 -344 340 -332 c 0,3,4
 290 -312 290 -312 258 -274 c 128,-1,5
 226 -236 226 -236 208 -166 c 1,6,7
 198 -96 198 -96 198 38 c 2,8,-1
 198 72 l 2,9,10
 198 182 198 182 186 234 c 128,-1,11
 174 286 174 286 135 314 c 128,-1,12
 96 342 96 342 36 342 c 1,13,-1
 36 486 l 1,14,15
 100 486 100 486 136 516 c 128,-1,16
 172 546 172 546 186 596 c 1,17,-1
 194 684 l 1,18,-1
 198 780 l 1,19,20
 198 912 198 912 204 964 c 1,21,22
 204 1012 204 1012 230 1058 c 0,23,24
 246 1090 246 1090 252 1098 c 128,-1,25
 258 1106 258 1106 279 1125 c 128,-1,26
 300 1144 300 1144 354 1164 c 0,27,28
 384 1172 384 1172 452 1172 c 2,29,-1
 506 1172 l 1,30,-1
 506 1034 l 1,31,-1
 472 1034 l 2,32,33
 438 1034 438 1034 413 1030 c 128,-1,34
 388 1026 388 1026 370 1006 c 0,35,36
 346 978 346 978 346 882 c 2,37,-1
 346 834 l 1,38,-1
 346 796 l 1,39,-1
 346 764 l 1,40,-1
 346 740 l 1,41,-1
 346 718 l 1,42,-1
 344 660 l 2,43,44
 344 636 344 636 336 622 c 1,45,46
 322 540 322 540 288 492 c 1,47,48
 256 454 256 454 192 416 c 1,49,50
 270 380 270 380 308 308 c 128,-1,51
 346 236 346 236 346 62 c 2,52,-1
 348 -118 l 2,53,54
 352 -144 352 -144 357 -160 c 128,-1,55
 362 -176 362 -176 376 -188 c 1,56,-1
 406 -198 l 2,57,58
 428 -206 428 -206 472 -206 c 2,59,-1
 506 -206 l 1,60,-1
 506 -344 l 1,0,-1
EndSplineSet
EndChar

StartChar: bar
Encoding: 124 124 43
Width: 416
GlyphClass: 2
Flags: W
LayerCount: 2
Fore
SplineSet
276 -344 m 1,0,-1
 140 -344 l 1,1,-1
 140 1172 l 1,2,-1
 276 1172 l 1,3,-1
 276 -344 l 1,0,-1
EndSplineSet
EndChar

StartChar: braceright
Encoding: 125 125 44
Width: 534
GlyphClass: 2
Flags: W
LayerCount: 2
Fore
SplineSet
498 342 m 1,0,1
 436 342 436 342 398 315 c 128,-1,2
 360 288 360 288 348 230 c 1,3,-1
 340 160 l 1,4,-1
 336 50 l 1,5,-1
 336 20 l 1,6,-1
 336 -6 l 1,7,-1
 336 -28 l 1,8,-1
 332 -124 l 2,9,10
 332 -184 332 -184 302 -228 c 1,11,12
 294 -248 294 -248 283 -263 c 128,-1,13
 272 -278 272 -278 254 -298 c 1,14,-1
 224 -316 l 1,15,-1
 180 -336 l 1,16,-1
 140 -342 l 1,17,-1
 80 -344 l 1,18,-1
 28 -344 l 1,19,-1
 28 -206 l 1,20,-1
 60 -206 l 2,21,22
 138 -206 138 -206 162 -178 c 1,23,24
 188 -154 188 -154 188 -52 c 2,25,-1
 188 100 l 1,26,-1
 194 196 l 2,27,28
 202 278 202 278 246 338 c 0,29,30
 280 384 280 384 340 414 c 1,31,32
 258 458 258 458 228 522 c 1,33,34
 188 590 188 590 188 766 c 2,35,-1
 188 862 l 1,36,-1
 182 960 l 2,37,38
 182 990 182 990 158 1012 c 128,-1,39
 134 1034 134 1034 60 1034 c 2,40,-1
 28 1034 l 1,41,-1
 28 1172 l 1,42,-1
 80 1172 l 2,43,44
 140 1172 140 1172 160 1169 c 128,-1,45
 180 1166 180 1166 214 1153 c 128,-1,46
 248 1140 248 1140 280 1101 c 128,-1,47
 312 1062 312 1062 324 994 c 1,48,-1
 332 910 l 1,49,-1
 336 790 l 1,50,51
 336 644 336 644 348 597 c 128,-1,52
 360 550 360 550 396 516 c 1,53,54
 420 500 420 500 436 494 c 2,55,-1
 460 488 l 1,56,-1
 498 486 l 1,57,-1
 498 342 l 1,0,1
EndSplineSet
EndChar

StartChar: asciitilde
Encoding: 126 126 45
Width: 934
GlyphClass: 2
Flags: W
LayerCount: 2
Fore
SplineSet
876 524 m 1,0,1
 848 498 848 498 823 481 c 128,-1,2
 798 464 798 464 772 453 c 128,-1,3
 746 442 746 442 720 435 c 128,-1,4
 694 428 694 428 652 428 c 0,5,6
 596 428 596 428 561 437 c 128,-1,7
 526 446 526 446 503 455 c 128,-1,8
 480 464 480 464 426 490 c 0,9,10
 332 532 332 532 272 532 c 0,11,12
 238 532 238 532 223 529 c 128,-1,13
 208 526 208 526 180 514 c 1,14,-1
 134 484 l 2,15,16
 120 474 120 474 103 458 c 128,-1,17
 86 442 86 442 60 412 c 1,18,-1
 60 598 l 1,19,20
 148 698 148 698 284 698 c 0,21,22
 302 698 302 698 326 695 c 128,-1,23
 350 692 350 692 386 684 c 0,24,25
 426 672 426 672 452 663 c 128,-1,26
 478 654 478 654 534 628 c 1,27,-1
 612 600 l 1,28,-1
 644 592 l 1,29,-1
 666 592 l 2,30,31
 702 592 702 592 762 620 c 0,32,33
 788 634 788 634 815 655 c 128,-1,34
 842 676 842 676 876 710 c 1,35,-1
 876 524 l 1,0,1
EndSplineSet
EndChar

StartChar: cent
Encoding: 162 162 46
Width: 721
GlyphClass: 2
Flags: W
LayerCount: 2
Fore
SplineSet
598 156 m 1,0,1
 537 71 537 71 467 31 c 128,-1,2
 397 -9 397 -9 304 -17 c 1,3,-1
 228 -265 l 1,4,-1
 187 -265 l 1,5,-1
 262 -17 l 1,6,7
 177 -8 177 -8 128.5 47 c 128,-1,8
 80 102 80 102 80 188 c 0,9,10
 80 345 80 345 191.5 478.5 c 128,-1,11
 303 612 303 612 457 638 c 1,12,-1
 541 917 l 1,13,-1
 580 917 l 1,14,-1
 499 638 l 1,15,16
 580 638 580 638 616.5 607 c 128,-1,17
 653 576 653 576 653 523 c 0,18,19
 653 482 653 482 631.5 455.5 c 128,-1,20
 610 429 610 429 580 429 c 0,21,22
 557 429 557 429 544 442 c 128,-1,23
 531 455 531 455 531 476 c 0,24,25
 531 491 531 491 536 502 c 128,-1,26
 541 513 541 513 560.5 534.5 c 128,-1,27
 580 556 580 556 580 570 c 0,28,29
 580 578 580 578 575 585 c 0,30,31
 565 596 565 596 549.5 601 c 128,-1,32
 534 606 534 606 489 606 c 1,33,-1
 322 49 l 1,34,-1
 352 47 l 1,35,36
 470 47 470 47 580 173 c 1,37,-1
 598 156 l 1,0,1
284 57 m 1,38,-1
 445 598 l 1,39,40
 383 570 383 570 342 533 c 0,41,42
 274 467 274 467 237 380.5 c 128,-1,43
 200 294 200 294 200 205 c 0,44,45
 200 146 200 146 224 108 c 0,46,47
 243 81 243 81 284 57 c 1,38,-1
EndSplineSet
EndChar

StartChar: multiply
Encoding: 215 215 47
Width: 975
GlyphClass: 2
Flags: W
LayerCount: 2
Fore
SplineSet
267 230 m 1,0,-1
 515 479 l 1,1,-1
 267 728 l 1,2,-1
 308 768 l 1,3,-1
 556 520 l 1,4,-1
 805 768 l 1,5,-1
 844 728 l 1,6,-1
 595 480 l 1,7,-1
 845 230 l 1,8,-1
 805 190 l 1,9,-1
 555 439 l 1,10,-1
 307 190 l 1,11,-1
 267 230 l 1,0,-1
EndSplineSet
EndChar

StartChar: divide
Encoding: 247 247 48
Width: 792
GlyphClass: 2
Flags: W
LayerCount: 2
Fore
SplineSet
418 757 m 0,0,1
 443 757 443 757 461 739 c 128,-1,2
 479 721 479 721 479 695 c 0,3,4
 479 670 479 670 461 652 c 128,-1,5
 443 634 443 634 417 634 c 0,6,7
 392 634 392 634 373.5 652 c 128,-1,8
 355 670 355 670 355 695 c 0,9,10
 355 721 355 721 373.5 739 c 128,-1,11
 392 757 392 757 418 757 c 0,0,1
797 450 m 1,12,-1
 38 450 l 1,13,-1
 38 508 l 1,14,-1
 797 508 l 1,15,-1
 797 450 l 1,12,-1
418 320 m 0,16,17
 443 320 443 320 461 301.5 c 128,-1,18
 479 283 479 283 479 257 c 0,19,20
 479 233 479 233 461 215 c 128,-1,21
 443 197 443 197 418 197 c 0,22,23
 392 197 392 197 373.5 215 c 128,-1,24
 355 233 355 233 355 257 c 0,25,26
 355 283 355 283 373.5 301.5 c 128,-1,27
 392 320 392 320 418 320 c 0,16,17
EndSplineSet
EndChar

StartChar: tm_visarga
Encoding: 2947 2947 49
Width: 1044
GlyphClass: 2
Flags: W
LayerCount: 2
Fore
SplineSet
742 654 m 0,0,1
 742 572 742 572 679 515 c 128,-1,2
 616 458 616 458 522 458 c 0,3,4
 438 458 438 458 374 518 c 1,5,6
 316 580 316 580 316 666 c 0,7,8
 316 756 316 756 376 813 c 128,-1,9
 436 870 436 870 536 870 c 0,10,11
 618 870 618 870 680 811 c 128,-1,12
 742 752 742 752 742 654 c 0,0,1
444 194 m 0,13,14
 444 110 444 110 387 53 c 128,-1,15
 330 -4 330 -4 230 -4 c 0,16,17
 140 -4 140 -4 82 54 c 1,18,19
 26 116 26 116 26 206 c 0,20,21
 26 288 26 288 86 348 c 128,-1,22
 146 408 146 408 230 408 c 0,23,24
 322 408 322 408 383 347 c 128,-1,25
 444 286 444 286 444 194 c 0,13,14
1016 192 m 256,26,27
 1016 102 1016 102 953 48 c 128,-1,28
 890 -6 890 -6 804 -6 c 0,29,30
 708 -6 708 -6 650 52 c 128,-1,31
 592 110 592 110 592 200 c 0,32,33
 592 296 592 296 652 350 c 128,-1,34
 712 404 712 404 806 404 c 0,35,36
 896 404 896 404 956 343 c 128,-1,37
 1016 282 1016 282 1016 192 c 256,26,27
598 664 m 0,38,39
 598 800 598 800 534 800 c 0,40,41
 466 800 466 800 466 656 c 0,42,43
 466 522 466 522 530 522 c 0,44,45
 598 522 598 522 598 664 c 0,38,39
306 192 m 0,46,47
 306 346 306 346 246 346 c 0,48,49
 182 346 182 346 182 208 c 0,50,51
 182 58 182 58 246 58 c 0,52,53
 306 58 306 58 306 192 c 0,46,47
872 204 m 0,54,55
 872 336 872 336 804 336 c 0,56,57
 740 336 740 336 740 190 c 0,58,59
 740 64 740 64 806 64 c 256,60,61
 872 64 872 64 872 204 c 0,54,55
EndSplineSet
EndChar

StartChar: tm_a
Encoding: 2949 2949 50
Width: 1506
GlyphClass: 2
Flags: W
LayerCount: 2
Fore
SplineSet
1558 12 m 0,0,1
 1558 0 1558 0 1536 0 c 2,2,-1
 1082 0 l 2,3,4
 1060 0 1060 0 1060 16 c 0,5,6
 1060 28 1060 28 1080 28 c 0,7,8
 1136 28 1136 28 1154 34 c 0,9,10
 1208 52 1208 52 1208 132 c 2,11,-1
 1208 420 l 1,12,-1
 1132 420 l 1,13,14
 1132 322 1132 322 1103 242 c 128,-1,15
 1074 162 1074 162 1012 90 c 0,16,17
 854 -98 854 -98 532 -98 c 0,18,19
 352 -98 352 -98 210 -18 c 0,20,21
 26 84 26 84 26 280 c 0,22,23
 26 354 26 354 74 418 c 0,24,25
 134 496 134 496 242 496 c 2,26,-1
 410 496 l 1,27,28
 404 524 404 524 400 548 c 128,-1,29
 396 572 396 572 396 600 c 0,30,31
 396 726 396 726 474 804 c 0,32,33
 570 896 570 896 752 896 c 0,34,35
 1136 896 1136 896 1136 490 c 1,36,-1
 1208 490 l 1,37,-1
 1208 668 l 2,38,39
 1208 756 1208 756 1158 782 c 0,40,41
 1140 794 1140 794 1084 794 c 0,42,43
 1056 794 1056 794 1052 806 c 0,44,45
 1052 818 1052 818 1084 820 c 2,46,-1
 1530 820 l 2,47,48
 1550 820 1550 820 1552 810 c 0,49,50
 1552 800 1552 800 1534 796 c 1,51,52
 1458 796 1458 796 1432 776 c 128,-1,53
 1406 756 1406 756 1406 686 c 2,54,-1
 1406 130 l 2,55,56
 1406 26 1406 26 1536 26 c 0,57,58
 1556 26 1556 26 1558 12 c 0,0,1
934 494 m 1,59,60
 934 640 934 640 875 734 c 128,-1,61
 816 828 816 828 708 828 c 0,62,63
 516 828 516 828 492 696 c 1,64,65
 538 772 538 772 654 772 c 0,66,67
 740 772 740 772 788 718 c 128,-1,68
 836 664 836 664 836 584 c 0,69,70
 836 536 836 536 818 494 c 1,71,-1
 934 494 l 1,59,60
652 578 m 0,72,73
 652 620 652 620 630 649 c 128,-1,74
 608 678 608 678 574 678 c 0,75,76
 492 678 492 678 492 578 c 0,77,78
 492 464 492 464 572 464 c 256,79,80
 652 464 652 464 652 578 c 0,72,73
930 426 m 1,81,-1
 776 426 l 1,82,83
 706 368 706 368 604 368 c 0,84,85
 522 368 522 368 456 428 c 1,86,-1
 230 428 l 2,87,88
 168 428 168 428 137 380 c 128,-1,89
 106 332 106 332 106 278 c 0,90,91
 106 146 106 146 220 58 c 0,92,93
 326 -20 326 -20 488 -20 c 0,94,95
 692 -20 692 -20 812 106 c 0,96,97
 870 168 870 168 900 248 c 128,-1,98
 930 328 930 328 930 426 c 1,81,-1
EndSplineSet
EndChar

StartChar: tm_aa
Encoding: 2950 2950 51
Width: 1804
GlyphClass: 2
Flags: W
LayerCount: 2
Fore
SplineSet
1790 10 m 0,0,1
 1790 -108 1790 -108 1710 -179 c 128,-1,2
 1630 -250 1630 -250 1500 -250 c 0,3,4
 1450 -250 1450 -250 1394 -221 c 128,-1,5
 1338 -192 1338 -192 1332 -160 c 0,6,7
 1332 -148 1332 -148 1344 -136 c 0,8,9
 1354 -130 1354 -130 1372 -126 c 1,10,11
 1382 -128 1382 -128 1384 -130 c 0,12,13
 1426 -176 1426 -176 1478 -176 c 0,14,15
 1602 -176 1602 -176 1602 2 c 0,16,17
 1602 176 1602 176 1484 176 c 0,18,19
 1452 176 1452 176 1424 154 c 0,20,21
 1396 136 1396 136 1396 100 c 0,22,23
 1396 26 1396 26 1502 26 c 0,24,25
 1532 26 1532 26 1536 8 c 1,26,27
 1532 6 1532 6 1524 3 c 128,-1,28
 1516 0 1516 0 1508 0 c 2,29,-1
 1092 0 l 2,30,31
 1052 0 1052 0 1052 16 c 0,32,33
 1052 28 1052 28 1080 30 c 0,34,35
 1132 30 1132 30 1148 36 c 0,36,37
 1198 54 1198 54 1198 132 c 2,38,-1
 1198 428 l 1,39,-1
 1126 428 l 1,40,41
 1126 234 1126 234 1014 98 c 0,42,43
 858 -92 858 -92 530 -92 c 0,44,45
 358 -92 358 -92 216 -18 c 0,46,47
 24 78 24 78 24 270 c 0,48,49
 24 362 24 362 72 426 c 0,50,51
 128 500 128 500 234 500 c 2,52,-1
 404 500 l 1,53,54
 392 548 392 548 392 596 c 0,55,56
 392 724 392 724 474 804 c 0,57,58
 564 894 564 894 746 894 c 0,59,60
 1132 894 1132 894 1132 500 c 1,61,-1
 1198 500 l 1,62,-1
 1198 698 l 2,63,64
 1198 786 1198 786 1076 786 c 0,65,66
 1052 786 1052 786 1052 800 c 0,67,68
 1052 812 1052 812 1070 812 c 2,69,-1
 1526 812 l 2,70,71
 1546 812 1546 812 1548 798 c 0,72,73
 1548 786 1548 786 1522 786 c 0,74,75
 1396 786 1396 786 1396 680 c 2,76,-1
 1396 202 l 1,77,78
 1440 258 1440 258 1536 258 c 0,79,80
 1650 258 1650 258 1720 188 c 0,81,82
 1790 122 1790 122 1790 10 c 0,0,1
926 500 m 1,83,84
 926 646 926 646 867 735 c 128,-1,85
 808 824 808 824 700 824 c 0,86,87
 512 824 512 824 486 696 c 1,88,89
 526 772 526 772 644 772 c 0,90,91
 730 772 730 772 781 717 c 128,-1,92
 832 662 832 662 832 586 c 0,93,94
 832 540 832 540 812 500 c 1,95,-1
 926 500 l 1,83,84
646 578 m 0,96,97
 646 678 646 678 566 678 c 0,98,99
 534 678 534 678 509 647 c 128,-1,100
 484 616 484 616 484 578 c 0,101,102
 484 538 484 538 506 501 c 128,-1,103
 528 464 528 464 564 464 c 0,104,105
 646 464 646 464 646 578 c 0,96,97
926 428 m 1,106,-1
 766 428 l 1,107,108
 692 370 692 370 600 370 c 0,109,110
 518 370 518 370 448 428 c 1,111,-1
 196 428 l 2,112,113
 162 428 162 428 130 384 c 128,-1,114
 98 340 98 340 98 292 c 0,115,116
 98 146 98 146 211 66 c 128,-1,117
 324 -14 324 -14 480 -14 c 0,118,119
 694 -14 694 -14 814 118 c 0,120,121
 868 178 868 178 897 255 c 128,-1,122
 926 332 926 332 926 428 c 1,106,-1
EndSplineSet
EndChar

StartChar: tm_i
Encoding: 2951 2951 52
Width: 1426
GlyphClass: 2
Flags: W
LayerCount: 2
Fore
SplineSet
1396 574 m 1,0,1
 1382 564 1382 564 1372 564 c 2,2,-1
 1114 564 l 1,3,4
 1072 724 1072 724 994 802 c 1,5,6
 890 896 890 896 688 896 c 0,7,8
 492 896 492 896 366 776 c 0,9,10
 252 662 252 662 252 478 c 1,11,-1
 352 496 l 1,12,13
 352 570 352 570 367 622 c 128,-1,14
 382 674 382 674 424 724 c 0,15,16
 514 824 514 824 668 824 c 0,17,18
 824 824 824 824 916 732 c 0,19,20
 960 688 960 688 986 630 c 128,-1,21
 1012 572 1012 572 1012 502 c 1,22,23
 1088 502 1088 502 1150 481 c 128,-1,24
 1212 460 1212 460 1268 418 c 0,25,26
 1372 332 1372 332 1372 200 c 0,27,28
 1372 46 1372 46 1246 -38 c 0,29,30
 1136 -108 1136 -108 980 -108 c 0,31,32
 848 -108 848 -108 710 -72 c 2,33,-1
 688 -66 l 1,34,35
 570 -100 570 -100 424 -100 c 0,36,37
 268 -100 268 -100 147 0 c 128,-1,38
 26 100 26 100 26 222 c 0,39,40
 26 390 26 390 182 450 c 1,41,42
 182 570 182 570 213 661 c 128,-1,43
 244 752 244 752 318 826 c 0,44,45
 466 976 466 976 722 976 c 0,46,47
 944 976 944 976 1104 850 c 0,48,49
 1224 756 1224 756 1282 602 c 1,50,51
 1304 584 1304 584 1372 584 c 0,52,53
 1396 584 1396 584 1396 574 c 1,0,1
830 512 m 1,54,55
 802 740 802 740 612 740 c 0,56,57
 542 740 542 740 491 703 c 128,-1,58
 440 666 440 666 434 618 c 1,59,60
 488 690 488 690 576 690 c 0,61,62
 678 690 678 690 726 612 c 0,63,64
 754 562 754 562 754 510 c 1,65,-1
 830 512 l 1,54,55
588 484 m 0,66,67
 588 604 588 604 512 604 c 0,68,69
 474 604 474 604 452 564 c 0,70,71
 432 520 432 520 432 476 c 256,72,73
 432 432 432 432 455 391 c 128,-1,74
 478 350 478 350 514 350 c 0,75,76
 566 350 566 350 580 394 c 0,77,78
 588 426 588 426 588 484 c 0,66,67
836 442 m 1,79,-1
 758 446 l 1,80,81
 758 408 758 408 740 377 c 128,-1,82
 722 346 722 346 686 318 c 0,83,84
 620 268 620 268 548 268 c 0,85,86
 472 268 472 268 421 313 c 128,-1,87
 370 358 370 358 360 432 c 1,88,89
 294 426 294 426 250 410 c 1,90,91
 280 118 280 118 628 24 c 1,92,93
 836 126 836 126 836 442 c 1,79,-1
1196 206 m 0,94,95
 1196 396 1196 396 1016 432 c 1,96,97
 1016 120 1016 120 778 -20 c 1,98,99
 804 -28 804 -28 828 -32 c 128,-1,100
 852 -36 852 -36 886 -36 c 0,101,102
 1008 -36 1008 -36 1102 30 c 128,-1,103
 1196 96 1196 96 1196 206 c 0,94,95
512 -10 m 1,104,105
 234 96 234 96 188 380 c 1,106,107
 98 358 98 358 98 246 c 0,108,109
 98 196 98 196 126 140 c 128,-1,110
 154 84 154 84 238 32 c 0,111,112
 280 10 280 10 331 -4 c 128,-1,113
 382 -18 382 -18 434 -18 c 0,114,115
 448 -18 448 -18 465 -17 c 128,-1,116
 482 -16 482 -16 512 -10 c 1,104,105
EndSplineSet
EndChar

StartChar: tm_ii
Encoding: 2952 2952 53
Width: 1144
GlyphClass: 2
Flags: W
LayerCount: 2
Fore
SplineSet
1152 526 m 0,0,1
 1140 520 1140 520 1134 534 c 0,2,3
 1116 588 1116 588 1032 642 c 128,-1,4
 948 696 948 696 888 696 c 0,5,6
 790 696 790 696 790 552 c 2,7,-1
 790 116 l 2,8,9
 790 20 790 20 886 20 c 0,10,11
 916 20 916 20 920 8 c 1,12,13
 914 2 914 2 908 1 c 128,-1,14
 902 0 902 0 890 -2 c 2,15,-1
 488 -2 l 2,16,17
 460 -2 460 -2 456 10 c 1,18,19
 462 16 462 16 468 17 c 128,-1,20
 474 18 474 18 486 20 c 0,21,22
 588 20 588 20 588 118 c 2,23,-1
 588 588 l 2,24,25
 588 696 588 696 494 696 c 2,26,-1
 260 696 l 2,27,28
 218 696 218 696 192 656 c 0,29,30
 170 616 170 616 170 566 c 2,31,-1
 170 114 l 2,32,33
 170 22 170 22 296 22 c 0,34,35
 322 22 322 22 324 8 c 1,36,37
 318 2 318 2 312 0 c 128,-1,38
 306 -2 306 -2 296 -2 c 2,39,-1
 -44 -2 l 2,40,41
 -70 -2 -70 -2 -72 12 c 0,42,43
 -72 26 -72 26 -38 26 c 0,44,45
 98 26 98 26 98 116 c 2,46,-1
 98 604 l 2,47,48
 98 746 98 746 -26 746 c 0,49,50
 -52 746 -52 746 -54 754 c 0,51,52
 -54 766 -54 766 -6 766 c 2,53,-1
 962 766 l 2,54,55
 1010 766 1010 766 1026 788 c 2,56,-1
 1040 810 l 1,57,58
 1052 798 1052 798 1054 790 c 2,59,-1
 1152 548 l 2,60,61
 1158 532 1158 532 1152 526 c 0,0,1
1122 352 m 0,62,63
 1122 300 1122 300 1084 261 c 128,-1,64
 1046 222 1046 222 986 222 c 0,65,66
 930 222 930 222 891 259 c 128,-1,67
 852 296 852 296 852 352 c 0,68,69
 852 412 852 412 890 450 c 128,-1,70
 928 488 928 488 986 488 c 0,71,72
 1042 488 1042 488 1082 448 c 0,73,74
 1122 412 1122 412 1122 352 c 0,62,63
512 352 m 0,75,76
 512 298 512 298 475 260 c 128,-1,77
 438 222 438 222 378 222 c 0,78,79
 324 222 324 222 283 258 c 128,-1,80
 242 294 242 294 242 352 c 256,81,82
 242 410 242 410 282 449 c 128,-1,83
 322 488 322 488 378 488 c 0,84,85
 430 488 430 488 470 448 c 1,86,87
 512 412 512 412 512 352 c 0,75,76
EndSplineSet
EndChar

StartChar: tm_u
Encoding: 2953 2953 54
Width: 1524
GlyphClass: 2
Flags: W
LayerCount: 2
Fore
SplineSet
1520 242 m 2,0,-1
 1376 -62 l 2,1,2
 1370 -76 1370 -76 1360 -78 c 1,3,4
 1350 -68 1350 -68 1350 -60 c 0,5,6
 1350 -18 1350 -18 1295 -9 c 128,-1,7
 1240 0 1240 0 1132 0 c 2,8,-1
 228 0 l 2,9,10
 26 0 26 0 26 132 c 0,11,12
 26 256 26 256 164 308 c 1,13,-1
 418 382 l 1,14,15
 556 440 556 440 556 584 c 0,16,17
 556 690 556 690 496 745 c 128,-1,18
 436 800 436 800 344 800 c 0,19,20
 266 800 266 800 192 760 c 128,-1,21
 118 720 118 720 118 658 c 1,22,23
 132 694 132 694 184 722 c 0,24,25
 204 732 204 732 226 738 c 128,-1,26
 248 744 248 744 272 744 c 0,27,28
 360 744 360 744 414 696 c 1,29,30
 464 646 464 646 464 566 c 0,31,32
 464 374 464 374 232 374 c 0,33,34
 144 374 144 374 84 436 c 0,35,36
 28 498 28 498 28 582 c 0,37,38
 28 730 28 730 132 804 c 0,39,40
 222 870 222 870 374 870 c 0,41,42
 736 870 736 870 736 566 c 0,43,44
 736 374 736 374 590 296 c 0,45,46
 528 266 528 266 316 224 c 0,47,48
 170 196 170 196 170 126 c 0,49,50
 170 70 170 70 274 70 c 2,51,-1
 1178 70 l 2,52,53
 1304 70 1304 70 1382 124 c 0,54,55
 1440 160 1440 160 1496 250 c 0,56,57
 1504 268 1504 268 1518 262 c 0,58,59
 1524 258 1524 258 1520 242 c 2,0,-1
278 558 m 0,60,61
 278 596 278 596 256 621 c 128,-1,62
 234 646 234 646 200 646 c 0,63,64
 162 646 162 646 140 619 c 128,-1,65
 118 592 118 592 118 554 c 0,66,67
 118 518 118 518 137 490 c 128,-1,68
 156 462 156 462 194 462 c 0,69,70
 278 462 278 462 278 558 c 0,60,61
EndSplineSet
EndChar

StartChar: tm_uu
Encoding: 2954 2954 55
Width: 2044
GlyphClass: 2
Flags: W
LayerCount: 2
Fore
SplineSet
2014 584 m 2,0,1
 2020 566 2020 566 2012 564 c 1,2,-1
 1998 576 l 1,3,4
 1924 692 1924 692 1814 692 c 0,5,6
 1752 692 1752 692 1752 624 c 2,7,-1
 1752 296 l 2,8,9
 1752 250 1752 250 1762 234 c 0,10,11
 1782 202 1782 202 1850 202 c 0,12,13
 1868 202 1868 202 1870 192 c 1,14,15
 1858 184 1858 184 1850 184 c 2,16,-1
 1560 184 l 2,17,18
 1536 184 1536 184 1534 198 c 0,19,20
 1534 208 1534 208 1552 212 c 0,21,22
 1568 212 1568 212 1583 230 c 128,-1,23
 1598 248 1598 248 1602 278 c 1,24,-1
 1602 636 l 2,25,26
 1602 702 1602 702 1526 702 c 0,27,28
 1478 702 1478 702 1436 672 c 1,29,30
 1446 648 1446 648 1452 617 c 128,-1,31
 1458 586 1458 586 1458 548 c 2,32,-1
 1458 278 l 2,33,34
 1458 208 1458 208 1496 208 c 0,35,36
 1510 208 1510 208 1512 194 c 1,37,38
 1500 184 1500 184 1492 184 c 2,39,-1
 1196 184 l 2,40,41
 1170 184 1170 184 1168 192 c 1,42,43
 1182 200 1182 200 1194 200 c 0,44,45
 1250 200 1250 200 1276 221 c 128,-1,46
 1302 242 1302 242 1302 300 c 2,47,-1
 1302 574 l 2,48,49
 1302 720 1302 720 1136 720 c 0,50,51
 902 720 902 720 878 474 c 1,52,53
 926 586 926 586 1040 586 c 0,54,55
 1214 586 1214 586 1214 384 c 0,56,57
 1214 294 1214 294 1155 235 c 128,-1,58
 1096 176 1096 176 1008 176 c 0,59,60
 918 176 918 176 864 260 c 0,61,62
 818 336 818 336 818 440 c 0,63,64
 818 602 818 602 906 688 c 128,-1,65
 994 774 994 774 1152 774 c 0,66,67
 1248 774 1248 774 1326 750 c 0,68,69
 1386 732 1386 732 1400 710 c 1,70,71
 1434 744 1434 744 1502 744 c 2,72,-1
 1852 744 l 2,73,74
 1896 744 1896 744 1912 762 c 2,75,-1
 1926 780 l 1,76,77
 1936 772 1936 772 1938 766 c 2,78,-1
 2014 584 l 2,0,1
2024 238 m 2,79,-1
 1888 -58 l 2,80,81
 1882 -66 1882 -66 1876 -70 c 0,82,83
 1872 -70 1872 -70 1870 -72 c 1,84,85
 1862 -64 1862 -64 1862 -58 c 0,86,87
 1862 0 1862 0 1726 0 c 2,88,-1
 236 0 l 2,89,90
 26 0 26 0 26 130 c 256,91,92
 26 260 26 260 162 314 c 1,93,-1
 418 384 l 1,94,95
 554 438 554 438 554 584 c 0,96,97
 554 666 554 666 506 732 c 0,98,99
 452 808 452 808 352 808 c 0,100,101
 262 808 262 808 193 768 c 128,-1,102
 124 728 124 728 114 662 c 1,103,104
 154 746 154 746 276 746 c 0,105,106
 460 746 460 746 460 558 c 0,107,108
 460 476 460 476 399 427 c 128,-1,109
 338 378 338 378 232 378 c 0,110,111
 140 378 140 378 83 439 c 128,-1,112
 26 500 26 500 26 594 c 0,113,114
 26 742 26 742 138 816 c 0,115,116
 234 878 234 878 388 878 c 0,117,118
 552 878 552 878 642 798 c 128,-1,119
 732 718 732 718 732 570 c 0,120,121
 732 378 732 378 586 300 c 0,122,123
 526 270 526 270 316 228 c 0,124,125
 170 200 170 200 170 132 c 0,126,127
 170 72 170 72 242 72 c 2,128,-1
 1706 72 l 2,129,130
 1886 72 1886 72 2002 250 c 0,131,132
 2014 266 2014 266 2024 264 c 0,133,134
 2032 262 2032 262 2024 238 c 2,79,-1
276 552 m 0,135,136
 276 648 276 648 194 648 c 0,137,138
 162 648 162 648 136 622 c 0,139,140
 114 596 114 596 114 560 c 0,141,142
 114 528 114 528 134 496 c 128,-1,143
 154 464 154 464 188 464 c 0,144,145
 276 464 276 464 276 552 c 0,135,136
1072 376 m 0,146,147
 1072 518 1072 518 980 518 c 0,148,149
 890 518 890 518 890 372 c 0,150,151
 890 314 890 314 918 269 c 128,-1,152
 946 224 946 224 992 224 c 0,153,154
 1072 224 1072 224 1072 376 c 0,146,147
EndSplineSet
EndChar

StartChar: tm_e
Encoding: 2958 2958 56
Width: 1202
GlyphClass: 2
Flags: W
LayerCount: 2
Fore
SplineSet
1208 524 m 1,0,1
 1198 520 1198 520 1190 532 c 2,2,-1
 1178 554 l 1,3,4
 1160 598 1160 598 1098 644 c 0,5,6
 1030 696 1030 696 964 696 c 0,7,8
 894 696 894 696 894 552 c 2,9,-1
 894 136 l 2,10,11
 894 22 894 22 1022 22 c 0,12,13
 1052 22 1052 22 1054 8 c 0,14,15
 1054 -4 1054 -4 1010 -4 c 2,16,-1
 548 -4 l 2,17,18
 522 -4 522 -4 520 10 c 0,19,20
 520 22 520 22 538 26 c 1,21,22
 610 26 610 26 634 38 c 0,23,24
 688 66 688 66 688 170 c 2,25,-1
 688 576 l 2,26,27
 688 642 688 642 665 672 c 128,-1,28
 642 702 642 702 572 702 c 2,29,-1
 418 702 l 2,30,31
 252 702 252 702 166 584 c 0,32,33
 104 494 104 494 104 394 c 1,34,-1
 106 362 l 1,35,36
 148 518 148 518 320 518 c 0,37,38
 436 518 436 518 501 442 c 128,-1,39
 566 366 566 366 566 240 c 0,40,41
 566 118 566 118 486 47 c 128,-1,42
 406 -24 406 -24 282 -24 c 0,43,44
 164 -24 164 -24 88 84 c 0,45,46
 58 130 58 130 42 186 c 128,-1,47
 26 242 26 242 26 308 c 0,48,49
 26 528 26 528 144 654 c 0,50,51
 252 768 252 768 410 768 c 2,52,-1
 1008 768 l 2,53,54
 1044 768 1044 768 1076 806 c 2,55,-1
 1086 818 l 1,56,57
 1098 810 1098 810 1102 804 c 2,58,-1
 1204 552 l 2,59,60
 1204 544 1204 544 1205 538 c 128,-1,61
 1206 532 1206 532 1208 524 c 1,0,1
372 226 m 0,62,63
 372 410 372 410 260 410 c 0,64,65
 202 410 202 410 162 356 c 0,66,67
 132 310 132 310 132 242 c 0,68,69
 132 50 132 50 256 50 c 0,70,71
 326 50 326 50 356 106 c 0,72,73
 372 144 372 144 372 226 c 0,62,63
EndSplineSet
EndChar

StartChar: tm_ee
Encoding: 2959 2959 57
Width: 1192
GlyphClass: 2
Flags: W
LayerCount: 2
Fore
SplineSet
1166 544 m 1,0,1
 1154 586 1154 586 1090 638 c 0,2,3
 1050 670 1050 670 1014 685 c 128,-1,4
 978 700 978 700 936 700 c 0,5,6
 874 700 874 700 874 564 c 2,7,-1
 874 148 l 2,8,9
 874 26 874 26 990 26 c 0,10,11
 1038 26 1038 26 1040 12 c 0,12,13
 1040 0 1040 0 1020 0 c 0,14,15
 944 0 944 0 890 -30 c 1,16,-1
 812 -96 l 2,17,18
 752 -150 752 -150 704 -168 c 0,19,20
 638 -194 638 -194 571 -207 c 128,-1,21
 504 -220 504 -220 430 -220 c 0,22,23
 240 -220 240 -220 134 -240 c 0,24,25
 102 -246 102 -246 46 -280 c 0,26,27
 -24 -322 -24 -322 -50 -370 c 0,28,29
 -62 -394 -62 -394 -76 -388 c 1,30,31
 -78 -376 -78 -376 -76 -368 c 2,32,-1
 36 -124 l 2,33,34
 44 -104 44 -104 56 -106 c 1,35,-1
 68 -130 l 1,36,37
 86 -154 86 -154 128 -154 c 2,38,-1
 174 -154 l 1,39,-1
 212 -154 l 1,40,-1
 242 -154 l 1,41,-1
 268 -154 l 2,42,43
 312 -154 312 -154 358 -154 c 1,44,45
 388 -148 388 -148 400 -146 c 0,46,47
 472 -146 472 -146 524 -129 c 128,-1,48
 576 -112 576 -112 608 -84 c 0,49,50
 672 -30 672 -30 672 24 c 2,51,-1
 672 546 l 2,52,53
 672 630 672 630 660 654 c 0,54,55
 636 700 636 700 550 700 c 2,56,-1
 390 700 l 2,57,58
 236 700 236 700 154 564 c 0,59,60
 128 520 128 520 115 472 c 128,-1,61
 102 424 102 424 102 384 c 1,62,63
 130 446 130 446 168 478 c 0,64,65
 222 526 222 526 316 526 c 0,66,67
 434 526 434 526 499 449 c 128,-1,68
 564 372 564 372 564 244 c 0,69,70
 564 134 564 134 491 59 c 128,-1,71
 418 -16 418 -16 286 -16 c 0,72,73
 160 -16 160 -16 88 88 c 0,74,75
 26 182 26 182 26 316 c 0,76,77
 26 520 26 520 131 643 c 128,-1,78
 236 766 236 766 404 766 c 2,79,-1
 980 766 l 2,80,81
 1004 766 1004 766 1029 779 c 128,-1,82
 1054 792 1054 792 1056 808 c 0,83,84
 1060 818 1060 818 1064 820 c 0,85,86
 1074 816 1074 816 1078 812 c 2,87,-1
 1186 556 l 1,88,-1
 1192 530 l 1,89,90
 1178 524 1178 524 1166 544 c 1,0,1
368 226 m 0,91,92
 368 420 368 420 264 420 c 0,93,94
 126 420 126 420 126 232 c 0,95,96
 126 166 126 166 159 112 c 128,-1,97
 192 58 192 58 248 58 c 0,98,99
 368 58 368 58 368 226 c 0,91,92
EndSplineSet
EndChar

StartChar: tm_ai
Encoding: 2960 2960 58
Width: 1148
GlyphClass: 2
Flags: W
LayerCount: 2
Fore
SplineSet
1120 150 m 0,0,1
 1120 34 1120 34 1035 -47 c 128,-1,2
 950 -128 950 -128 822 -128 c 0,3,4
 678 -128 678 -128 600 -30 c 1,5,6
 534 -126 534 -126 328 -126 c 0,7,8
 210 -126 210 -126 130 -70 c 0,9,10
 32 0 32 0 32 132 c 0,11,12
 32 300 32 300 190 362 c 1,13,14
 26 362 26 362 26 544 c 0,15,16
 26 680 26 680 130 752 c 0,17,18
 218 812 218 812 366 812 c 0,19,20
 564 812 564 812 658 742 c 1,21,22
 730 808 730 808 850 808 c 0,23,24
 964 808 964 808 1035 742 c 128,-1,25
 1106 676 1106 676 1106 552 c 0,26,27
 1106 296 1106 296 732 296 c 2,28,-1
 282 296 l 2,29,30
 116 296 116 296 116 132 c 0,31,32
 116 42 116 42 171 -6 c 128,-1,33
 226 -54 226 -54 310 -54 c 0,34,35
 494 -54 494 -54 494 84 c 0,36,37
 494 178 494 178 406 178 c 0,38,39
 386 178 386 178 386 196 c 0,40,41
 386 208 386 208 412 208 c 2,42,-1
 778 208 l 2,43,44
 802 208 802 208 804 194 c 0,45,46
 804 182 804 182 778 182 c 0,47,48
 694 182 694 182 694 68 c 0,49,50
 694 -48 694 -48 800 -48 c 0,51,52
 910 -48 910 -48 910 98 c 0,53,54
 910 210 910 210 838 238 c 0,55,56
 826 244 826 244 821 249 c 128,-1,57
 816 254 816 254 816 256 c 0,58,59
 816 270 816 270 842 272 c 2,60,-1
 1096 272 l 1,61,62
 1120 202 1120 202 1120 150 c 0,0,1
906 572 m 0,63,64
 906 724 906 724 784 724 c 0,65,66
 748 724 748 724 717 699 c 128,-1,67
 686 674 686 674 686 652 c 2,68,-1
 686 546 l 2,69,70
 686 518 686 518 707 486 c 128,-1,71
 728 454 728 454 766 454 c 0,72,73
 798 454 798 454 798 436 c 0,74,75
 798 424 798 424 766 422 c 2,76,-1
 426 422 l 2,77,78
 404 422 404 422 400 434 c 1,79,80
 412 444 412 444 422 444 c 0,81,82
 444 444 444 444 467 466 c 128,-1,83
 490 488 490 488 490 520 c 2,84,-1
 490 610 l 2,85,86
 490 740 490 740 308 740 c 0,87,88
 242 740 242 740 187 711 c 128,-1,89
 132 682 132 682 126 644 c 1,90,91
 168 692 168 692 240 692 c 0,92,93
 306 692 306 692 357 649 c 128,-1,94
 408 606 408 606 408 532 c 0,95,96
 408 408 408 408 298 372 c 1,97,-1
 698 372 l 2,98,99
 906 372 906 372 906 572 c 0,63,64
220 528 m 0,100,101
 220 604 220 604 160 604 c 0,102,103
 138 604 138 604 114 580 c 1,104,105
 96 556 96 556 96 528 c 0,106,107
 96 438 96 438 160 438 c 0,108,109
 220 438 220 438 220 528 c 0,100,101
EndSplineSet
EndChar

StartChar: tm_o
Encoding: 2962 2962 59
Width: 1022
GlyphClass: 2
Flags: W
LayerCount: 2
Fore
SplineSet
996 438 m 0,0,1
 996 322 996 322 944 244 c 0,2,3
 882 152 882 152 778 152 c 0,4,5
 708 152 708 152 656 212 c 1,6,7
 650 162 650 162 716 103 c 128,-1,8
 782 44 782 44 881 28 c 128,-1,9
 980 12 980 12 980 -72 c 0,10,11
 980 -164 980 -164 888 -164 c 0,12,13
 858 -164 858 -164 832 -145 c 128,-1,14
 806 -126 806 -126 806 -96 c 0,15,16
 806 -70 806 -70 834 -54 c 1,17,18
 816 -36 816 -36 794 -36 c 0,19,20
 764 -36 764 -36 722 -78 c 1,21,-1
 664 -148 l 2,22,23
 546 -290 546 -290 412 -290 c 0,24,25
 304 -290 304 -290 232 -236 c 0,26,27
 150 -176 150 -176 150 -68 c 0,28,29
 150 4 150 4 201 55 c 128,-1,30
 252 106 252 106 338 106 c 0,31,32
 420 106 420 106 474 50 c 0,33,34
 512 6 512 6 512 -46 c 0,35,36
 512 -154 512 -154 464 -190 c 1,37,38
 516 -190 516 -190 599 -98 c 128,-1,39
 682 -6 682 -6 734 6 c 1,40,41
 552 72 552 72 552 374 c 0,42,43
 552 514 552 514 586 614 c 0,44,45
 592 630 592 630 616 634 c 1,46,47
 660 634 660 634 656 604 c 0,48,49
 648 560 648 560 642 506 c 128,-1,50
 636 452 636 452 636 414 c 0,51,52
 636 252 636 252 718 252 c 0,53,54
 792 252 792 252 792 466 c 0,55,56
 792 626 792 626 704 726 c 128,-1,57
 616 826 616 826 454 826 c 0,58,59
 318 826 318 826 210 730 c 0,60,61
 154 680 154 680 129 620 c 128,-1,62
 104 560 104 560 104 482 c 1,63,64
 150 636 150 636 284 636 c 0,65,66
 376 636 376 636 435 563 c 128,-1,67
 494 490 494 490 494 382 c 0,68,69
 494 284 494 284 440 212 c 0,70,71
 378 132 378 132 278 132 c 0,72,73
 160 132 160 132 88 234 c 1,74,75
 26 330 26 330 26 474 c 0,76,77
 26 668 26 668 166 788 c 0,78,79
 300 900 300 900 512 900 c 0,80,81
 736 900 736 900 860 790 c 0,82,83
 996 672 996 672 996 438 c 0,0,1
310 372 m 0,84,85
 310 526 310 526 224 526 c 0,86,87
 176 526 176 526 151 483 c 128,-1,88
 126 440 126 440 126 390 c 0,89,90
 126 332 126 332 151 286 c 128,-1,91
 176 240 176 240 220 240 c 0,92,93
 310 240 310 240 310 372 c 0,84,85
358 -76 m 0,94,95
 358 -50 358 -50 342 -18 c 128,-1,96
 326 14 326 14 296 16 c 0,97,98
 218 16 218 16 218 -78 c 0,99,100
 218 -110 218 -110 238 -136 c 128,-1,101
 258 -162 258 -162 288 -166 c 1,102,103
 358 -166 358 -166 358 -76 c 0,94,95
EndSplineSet
EndChar

StartChar: tm_oo
Encoding: 2963 2963 60
Width: 1022
GlyphClass: 2
Flags: W
LayerCount: 2
Fore
SplineSet
996 430 m 0,0,1
 996 316 996 316 942 238 c 0,2,3
 882 148 882 148 774 148 c 0,4,5
 708 148 708 148 660 202 c 1,6,7
 652 152 652 152 726 84 c 1,8,9
 802 22 802 22 888 12 c 1,10,11
 930 12 930 12 953 -11 c 128,-1,12
 976 -34 976 -34 976 -80 c 0,13,14
 976 -110 976 -110 951 -137 c 128,-1,15
 926 -164 926 -164 886 -164 c 0,16,17
 858 -164 858 -164 828 -146 c 0,18,19
 804 -128 804 -128 804 -104 c 0,20,21
 804 -72 804 -72 826 -56 c 1,22,23
 814 -38 814 -38 794 -36 c 0,24,25
 762 -36 762 -36 722 -82 c 2,26,-1
 662 -154 l 1,27,28
 594 -228 594 -228 558 -250 c 0,29,30
 506 -280 506 -280 410 -280 c 0,31,32
 312 -280 312 -280 223 -205 c 128,-1,33
 134 -130 134 -130 122 -54 c 0,34,35
 116 -22 116 -22 144 -22 c 0,36,37
 158 -22 158 -22 166 -36 c 0,38,39
 178 -74 178 -74 254 -112 c 128,-1,40
 330 -150 330 -150 410 -150 c 0,41,42
 522 -150 522 -150 598 -92 c 0,43,44
 698 -14 698 -14 732 -2 c 1,45,46
 554 62 554 62 554 364 c 0,47,48
 554 528 554 528 584 604 c 0,49,50
 590 622 590 622 612 622 c 0,51,52
 652 622 652 622 652 584 c 1,53,54
 644 530 644 530 640 492 c 128,-1,55
 636 454 636 454 636 416 c 0,56,57
 636 246 636 246 722 246 c 0,58,59
 792 246 792 246 792 468 c 0,60,61
 792 614 792 614 722 704 c 0,62,63
 636 820 636 820 458 820 c 0,64,65
 308 820 308 820 205 723 c 128,-1,66
 102 626 102 626 102 474 c 1,67,68
 118 546 118 546 167 589 c 128,-1,69
 216 632 216 632 282 632 c 0,70,71
 384 632 384 632 439 558 c 128,-1,72
 494 484 494 484 494 372 c 0,73,74
 494 278 494 278 437 203 c 128,-1,75
 380 128 380 128 276 128 c 0,76,77
 158 128 158 128 86 236 c 0,78,79
 26 330 26 330 26 472 c 0,80,81
 26 664 26 664 168 786 c 0,82,83
 304 900 304 900 512 900 c 0,84,85
 728 900 728 900 858 788 c 0,86,87
 996 668 996 668 996 430 c 0,0,1
312 364 m 0,88,89
 312 522 312 522 222 522 c 0,90,91
 130 522 130 522 130 380 c 0,92,93
 130 322 130 322 154 275 c 128,-1,94
 178 228 178 228 224 228 c 0,95,96
 312 228 312 228 312 364 c 0,88,89
EndSplineSet
EndChar

StartChar: tm_au
Encoding: 2964 2964 61
Width: 2628
GlyphClass: 2
Flags: W
LayerCount: 2
Fore
SplineSet
2613 498 m 0,0,1
 2605 496 2605 496 2585 528 c 0,2,3
 2561 574 2561 574 2501 620 c 0,4,5
 2431 672 2431 672 2357 672 c 0,6,7
 2303 672 2303 672 2303 574 c 2,8,-1
 2303 144 l 2,9,10
 2303 68 2303 68 2345 40 c 0,11,12
 2371 24 2371 24 2431 24 c 0,13,14
 2463 24 2463 24 2465 10 c 1,15,16
 2451 0 2451 0 2441 0 c 2,17,-1
 2037 0 l 2,18,19
 2011 0 2011 0 2011 16 c 0,20,21
 2011 28 2011 28 2025 30 c 0,22,23
 2055 30 2055 30 2080 65 c 128,-1,24
 2105 100 2105 100 2105 162 c 2,25,-1
 2105 570 l 2,26,27
 2105 640 2105 640 2069 664 c 0,28,29
 2043 680 2043 680 1989 680 c 0,30,31
 1901 680 1901 680 1883 632 c 1,32,33
 1909 574 1909 574 1909 516 c 2,34,-1
 1909 140 l 2,35,36
 1909 100 1909 100 1926 69 c 128,-1,37
 1943 38 1943 38 1965 32 c 0,38,39
 1983 30 1983 30 1985 10 c 1,40,41
 1979 4 1979 4 1970 2 c 128,-1,42
 1961 0 1961 0 1949 0 c 2,43,-1
 1549 0 l 2,44,45
 1529 0 1529 0 1527 10 c 0,46,47
 1527 22 1527 22 1553 22 c 0,48,49
 1635 22 1635 22 1670 46 c 128,-1,50
 1705 70 1705 70 1705 146 c 2,51,-1
 1705 494 l 2,52,53
 1705 712 1705 712 1463 712 c 0,54,55
 1313 712 1313 712 1225 624 c 0,56,57
 1181 580 1181 580 1156 519 c 128,-1,58
 1131 458 1131 458 1131 378 c 1,59,60
 1161 458 1161 458 1205 496 c 0,61,62
 1259 538 1259 538 1355 538 c 0,63,64
 1463 538 1463 538 1525 463 c 128,-1,65
 1587 388 1587 388 1587 260 c 0,66,67
 1587 142 1587 142 1508 67 c 128,-1,68
 1429 -8 1429 -8 1319 -8 c 0,69,70
 1183 -8 1183 -8 1109 114 c 0,71,72
 1049 214 1049 214 1049 356 c 0,73,74
 1049 542 1049 542 1153 654 c 0,75,76
 1269 782 1269 782 1497 782 c 0,77,78
 1731 782 1731 782 1827 694 c 1,79,80
 1861 728 1861 728 1889 737 c 128,-1,81
 1917 746 1917 746 1977 746 c 2,82,-1
 2413 746 l 2,83,84
 2449 746 2449 746 2471 766 c 2,85,-1
 2491 786 l 1,86,87
 2495 782 2495 782 2497 780 c 0,88,89
 2507 770 2507 770 2511 760 c 2,90,-1
 2609 526 l 1,91,-1
 2615 510 l 2,92,93
 2615 500 2615 500 2613 498 c 0,0,1
1399 266 m 0,94,95
 1399 334 1399 334 1375 386 c 0,96,97
 1345 446 1345 446 1283 446 c 0,98,99
 1153 446 1153 446 1153 254 c 0,100,101
 1153 178 1153 178 1191 118 c 128,-1,102
 1229 58 1229 58 1291 58 c 0,103,104
 1399 58 1399 58 1399 266 c 0,94,95
996 430 m 0,105,106
 996 316 996 316 942 238 c 0,107,108
 882 148 882 148 774 148 c 0,109,110
 708 148 708 148 660 202 c 1,111,112
 652 152 652 152 726 84 c 1,113,114
 802 22 802 22 888 12 c 1,115,116
 930 12 930 12 953 -11 c 128,-1,117
 976 -34 976 -34 976 -80 c 0,118,119
 976 -110 976 -110 951 -137 c 128,-1,120
 926 -164 926 -164 886 -164 c 0,121,122
 858 -164 858 -164 828 -146 c 0,123,124
 804 -128 804 -128 804 -104 c 0,125,126
 804 -72 804 -72 826 -56 c 1,127,128
 814 -38 814 -38 794 -36 c 0,129,130
 762 -36 762 -36 722 -82 c 2,131,-1
 662 -154 l 1,132,133
 594 -228 594 -228 558 -250 c 0,134,135
 506 -280 506 -280 410 -280 c 0,136,137
 312 -280 312 -280 223 -205 c 128,-1,138
 134 -130 134 -130 122 -54 c 0,139,140
 116 -22 116 -22 144 -22 c 0,141,142
 158 -22 158 -22 166 -36 c 0,143,144
 178 -74 178 -74 254 -112 c 128,-1,145
 330 -150 330 -150 410 -150 c 0,146,147
 522 -150 522 -150 598 -92 c 0,148,149
 698 -14 698 -14 732 -2 c 1,150,151
 554 62 554 62 554 364 c 0,152,153
 554 528 554 528 584 604 c 0,154,155
 590 622 590 622 612 622 c 0,156,157
 652 622 652 622 652 584 c 1,158,159
 644 530 644 530 640 492 c 128,-1,160
 636 454 636 454 636 416 c 0,161,162
 636 246 636 246 722 246 c 0,163,164
 792 246 792 246 792 468 c 0,165,166
 792 614 792 614 722 704 c 0,167,168
 636 820 636 820 458 820 c 0,169,170
 308 820 308 820 205 723 c 128,-1,171
 102 626 102 626 102 474 c 1,172,173
 118 546 118 546 167 589 c 128,-1,174
 216 632 216 632 282 632 c 0,175,176
 384 632 384 632 439 558 c 128,-1,177
 494 484 494 484 494 372 c 0,178,179
 494 278 494 278 437 203 c 128,-1,180
 380 128 380 128 276 128 c 0,181,182
 158 128 158 128 86 236 c 0,183,184
 26 330 26 330 26 472 c 0,185,186
 26 664 26 664 168 786 c 0,187,188
 304 900 304 900 512 900 c 0,189,190
 728 900 728 900 858 788 c 0,191,192
 996 668 996 668 996 430 c 0,105,106
312 364 m 0,193,194
 312 522 312 522 222 522 c 0,195,196
 130 522 130 522 130 380 c 0,197,198
 130 322 130 322 154 275 c 128,-1,199
 178 228 178 228 224 228 c 0,200,201
 312 228 312 228 312 364 c 0,193,194
EndSplineSet
EndChar

StartChar: tm_ka
Encoding: 2965 2965 62
Width: 1018
GlyphClass: 2
Flags: W
LayerCount: 2
Fore
SplineSet
992 272 m 0,0,1
 992 142 992 142 915 74 c 128,-1,2
 838 6 838 6 716 6 c 0,3,4
 660 6 660 6 610 27 c 128,-1,5
 560 48 560 48 558 68 c 1,6,7
 562 76 562 76 566 76 c 2,8,-1
 576 76 l 1,9,10
 586 60 586 60 630 60 c 0,11,12
 700 60 700 60 752 114 c 0,13,14
 800 168 800 168 800 254 c 0,15,16
 800 428 800 428 656 428 c 1,17,-1
 618 426 l 1,18,-1
 618 248 l 2,19,20
 618 0 618 0 318 0 c 0,21,22
 196 0 196 0 111 70 c 128,-1,23
 26 140 26 140 26 252 c 0,24,25
 26 344 26 344 76 408 c 128,-1,26
 126 472 126 472 208 490 c 1,27,-1
 208 632 l 2,28,29
 208 674 208 674 179 711 c 128,-1,30
 150 748 150 748 104 748 c 0,31,32
 60 748 60 748 58 762 c 1,33,34
 78 768 78 768 94 768 c 2,35,-1
 726 768 l 2,36,37
 772 768 772 768 790 777 c 128,-1,38
 808 786 808 786 814 802 c 1,39,-1
 826 816 l 1,40,41
 830 812 830 812 834 807 c 128,-1,42
 838 802 838 802 846 786 c 2,43,-1
 944 556 l 2,44,45
 956 528 956 528 946 522 c 256,46,47
 936 516 936 516 928 532 c 0,48,49
 902 592 902 592 850 640 c 0,50,51
 788 696 788 696 726 696 c 0,52,53
 618 696 618 696 618 578 c 2,54,-1
 618 496 l 1,55,-1
 704 496 l 2,56,57
 992 496 992 496 992 272 c 0,0,1
418 498 m 1,58,-1
 418 636 l 2,59,60
 418 702 418 702 354 702 c 0,61,62
 294 702 294 702 294 620 c 2,63,-1
 294 498 l 1,64,-1
 418 498 l 1,58,-1
418 198 m 2,65,-1
 418 428 l 1,66,-1
 242 428 l 2,67,68
 184 428 184 428 142 374 c 0,69,70
 106 322 106 322 106 252 c 0,71,72
 106 168 106 168 156 120 c 0,73,74
 206 76 206 76 276 76 c 0,75,76
 418 76 418 76 418 198 c 2,65,-1
EndSplineSet
EndChar

StartChar: tm_nga
Encoding: 2969 2969 63
Width: 1512
GlyphClass: 2
Flags: W
LayerCount: 2
Fore
SplineSet
1548 14 m 1,0,1
 1548 0 1548 0 1512 0 c 2,2,-1
 814 0 l 2,3,4
 766 0 766 0 764 10 c 0,5,6
 764 20 764 20 772 26 c 2,7,-1
 790 32 l 1,8,-1
 836 70 l 1,9,10
 874 120 874 120 874 220 c 0,11,12
 874 280 874 280 846 328 c 0,13,14
 812 386 812 386 758 386 c 0,15,16
 702 386 702 386 666 338 c 0,17,18
 658 328 658 328 652 312 c 0,19,20
 640 286 640 286 640 260 c 2,21,-1
 640 118 l 2,22,23
 640 82 640 82 661 56 c 128,-1,24
 682 30 682 30 712 26 c 0,25,26
 738 26 738 26 740 12 c 0,27,28
 740 0 740 0 714 0 c 2,29,-1
 354 0 l 2,30,31
 310 0 310 0 310 16 c 0,32,33
 310 28 310 28 338 28 c 0,34,35
 436 28 436 28 436 134 c 2,36,-1
 436 570 l 2,37,38
 436 630 436 630 422 658 c 0,39,40
 400 698 400 698 336 698 c 2,41,-1
 260 698 l 2,42,43
 170 698 170 698 170 586 c 2,44,-1
 170 164 l 2,45,46
 170 116 170 116 194 74 c 128,-1,47
 218 32 218 32 262 26 c 0,48,49
 280 26 280 26 280 10 c 1,50,51
 274 4 274 4 265 2 c 128,-1,52
 256 0 256 0 244 0 c 2,53,-1
 -18 0 l 2,54,55
 -48 0 -48 0 -52 12 c 0,56,57
 -52 24 -52 24 -26 26 c 0,58,59
 96 26 96 26 96 204 c 2,60,-1
 96 590 l 2,61,62
 96 738 96 738 2 738 c 1,63,-1
 -42 740 l 1,64,65
 -54 746 -54 746 -56 750 c 0,66,67
 -62 758 -62 758 -50 766 c 1,68,-1
 786 766 l 2,69,70
 842 766 842 766 862 776 c 1,71,-1
 880 790 l 1,72,73
 880 802 880 802 894 814 c 1,74,75
 908 802 908 802 912 792 c 2,76,-1
 1008 554 l 2,77,78
 1014 536 1014 536 1004 534 c 1,79,80
 990 544 990 544 982 554 c 0,81,82
 960 600 960 600 886 648 c 0,83,84
 848 670 848 670 808 684 c 128,-1,85
 768 698 768 698 732 698 c 0,86,87
 640 698 640 698 640 606 c 2,88,-1
 640 404 l 1,89,90
 710 482 710 482 836 482 c 0,91,92
 940 482 940 482 1006 408 c 0,93,94
 1062 342 1062 342 1062 254 c 0,95,96
 1062 146 1062 146 994 76 c 1,97,-1
 1084 76 l 2,98,99
 1152 76 1152 76 1172 105 c 128,-1,100
 1192 134 1192 134 1192 200 c 2,101,-1
 1192 552 l 2,102,103
 1192 670 1192 670 1162 712 c 0,104,105
 1146 734 1146 734 1092 742 c 0,106,107
 1072 748 1072 748 1070 756 c 0,108,109
 1070 768 1070 768 1106 768 c 2,110,-1
 1508 768 l 2,111,112
 1540 768 1540 768 1542 754 c 0,113,114
 1542 752 1542 752 1534 749 c 128,-1,115
 1526 746 1526 746 1508 746 c 0,116,117
 1396 746 1396 746 1396 662 c 2,118,-1
 1396 126 l 2,119,120
 1396 26 1396 26 1514 26 c 0,121,122
 1544 26 1544 26 1548 14 c 1,0,1
EndSplineSet
EndChar

StartChar: tm_ca
Encoding: 2970 2970 64
Width: 1006
GlyphClass: 2
Flags: W
LayerCount: 2
Fore
SplineSet
1004 272 m 2,0,1
 1010 254 1010 254 998 248 c 256,2,3
 986 242 986 242 980 260 c 0,4,5
 962 314 962 314 898 364 c 128,-1,6
 834 414 834 414 760 414 c 2,7,-1
 620 414 l 1,8,-1
 620 228 l 2,9,10
 620 90 620 90 516 24 c 0,11,12
 436 -28 436 -28 320 -28 c 0,13,14
 198 -28 198 -28 116 32 c 0,15,16
 26 98 26 98 26 234 c 0,17,18
 26 326 26 326 80 398 c 0,19,20
 128 460 128 460 204 478 c 1,21,-1
 204 602 l 2,22,23
 204 674 204 674 184 702 c 0,24,25
 160 742 160 742 84 742 c 0,26,27
 64 742 64 742 62 752 c 0,28,29
 62 766 62 766 104 766 c 2,30,-1
 692 766 l 2,31,32
 762 766 762 766 776 800 c 0,33,34
 778 812 778 812 788 816 c 1,35,36
 798 808 798 808 802 802 c 2,37,-1
 892 590 l 2,38,39
 902 568 902 568 896 562 c 1,40,-1
 878 568 l 1,41,42
 834 632 834 632 797 664 c 128,-1,43
 760 696 760 696 706 696 c 0,44,45
 640 696 640 696 626 658 c 0,46,47
 620 646 620 646 620 560 c 2,48,-1
 620 488 l 1,49,-1
 828 488 l 2,50,51
 874 488 874 488 892 520 c 0,52,53
 894 526 894 526 898 528 c 128,-1,54
 902 530 902 530 904 532 c 1,55,56
 916 518 916 518 920 508 c 2,57,-1
 1004 272 l 2,0,1
422 488 m 1,58,-1
 422 622 l 2,59,60
 422 698 422 698 348 698 c 0,61,62
 302 698 302 698 284 662 c 0,63,64
 280 650 280 650 278 635 c 128,-1,65
 276 620 276 620 276 586 c 2,66,-1
 276 488 l 1,67,-1
 422 488 l 1,58,-1
422 178 m 2,68,-1
 422 414 l 1,69,-1
 248 414 l 2,70,71
 194 414 194 414 148 360 c 0,72,73
 108 308 108 308 108 242 c 0,74,75
 108 154 108 154 162 94 c 0,76,77
 210 42 210 42 280 42 c 0,78,79
 422 42 422 42 422 178 c 2,68,-1
EndSplineSet
EndChar

StartChar: tm_ja
Encoding: 2972 2972 65
Width: 1138
GlyphClass: 2
Flags: W
LayerCount: 2
Fore
SplineSet
1110 62 m 0,0,1
 1110 -42 1110 -42 1006 -114 c 0,2,3
 916 -174 916 -174 818 -174 c 0,4,5
 710 -174 710 -174 638 -122 c 0,6,7
 620 -110 620 -110 620 -88 c 0,8,9
 620 -74 620 -74 635 -60 c 128,-1,10
 650 -46 650 -46 664 -44 c 1,11,-1
 700 -68 l 2,12,13
 744 -102 744 -102 798 -102 c 0,14,15
 844 -102 844 -102 879 -55 c 128,-1,16
 914 -8 914 -8 914 56 c 0,17,18
 914 136 914 136 868 176 c 0,19,20
 830 208 830 208 780 208 c 0,21,22
 710 208 710 208 670 160 c 0,23,24
 652 134 652 134 624 50 c 0,25,26
 612 8 612 8 608 0 c 0,27,28
 594 -38 594 -38 578 -60 c 0,29,30
 502 -166 502 -166 320 -166 c 0,31,32
 188 -166 188 -166 109 -96 c 128,-1,33
 30 -26 30 -26 30 86 c 0,34,35
 30 166 30 166 71 228 c 128,-1,36
 112 290 112 290 184 314 c 1,37,38
 134 314 134 314 84 360 c 0,39,40
 26 408 26 408 26 490 c 0,41,42
 26 764 26 764 372 764 c 0,43,44
 594 764 594 764 658 686 c 1,45,46
 716 754 716 754 858 754 c 0,47,48
 962 754 962 754 1036 691 c 128,-1,49
 1110 628 1110 628 1110 504 c 0,50,51
 1110 420 1110 420 1052 356 c 128,-1,52
 994 292 994 292 900 274 c 1,53,54
 996 274 996 274 1053 221 c 128,-1,55
 1110 168 1110 168 1110 62 c 0,0,1
908 530 m 0,56,57
 908 674 908 674 796 674 c 0,58,59
 758 674 758 674 725 651 c 128,-1,60
 692 628 692 628 692 590 c 2,61,-1
 692 492 l 2,62,63
 692 458 692 458 715 433 c 128,-1,64
 738 408 738 408 770 404 c 0,65,66
 800 404 800 404 800 390 c 256,67,68
 800 376 800 376 758 376 c 2,69,-1
 438 376 l 2,70,71
 402 376 402 376 402 388 c 256,72,73
 402 400 402 400 422 402 c 0,74,75
 494 402 494 402 494 486 c 2,76,-1
 494 552 l 2,77,78
 494 692 494 692 312 692 c 0,79,80
 242 692 242 692 189 667 c 128,-1,81
 136 642 136 642 128 598 c 1,82,83
 174 644 174 644 242 644 c 0,84,85
 408 644 408 644 408 488 c 0,86,87
 408 362 408 362 290 326 c 1,88,-1
 698 326 l 2,89,90
 820 326 820 326 864 375 c 128,-1,91
 908 424 908 424 908 530 c 0,56,57
222 476 m 0,92,93
 222 560 222 560 160 560 c 0,94,95
 134 560 134 560 114 534 c 0,96,97
 102 514 102 514 98 480 c 1,98,99
 98 396 98 396 160 396 c 256,100,101
 222 396 222 396 222 476 c 0,92,93
622 256 m 1,102,-1
 282 256 l 2,103,104
 208 256 208 256 162 213 c 128,-1,105
 116 170 116 170 116 98 c 0,106,107
 116 16 116 16 158 -37 c 128,-1,108
 200 -90 200 -90 282 -90 c 0,109,110
 396 -90 396 -90 422 14 c 128,-1,111
 448 118 448 118 486 172 c 0,112,113
 532 232 532 232 622 256 c 1,102,-1
EndSplineSet
EndChar

StartChar: tm_nya
Encoding: 2974 2974 66
Width: 1678
GlyphClass: 2
Flags: W
LayerCount: 2
Fore
SplineSet
1650 196 m 0,0,1
 1650 -48 1650 -48 1398 -166 c 1,2,3
 1192 -258 1192 -258 854 -258 c 0,4,5
 502 -258 502 -258 290 -140 c 0,6,7
 26 8 26 8 26 314 c 0,8,9
 26 530 26 530 168 652 c 0,10,11
 288 754 288 754 460 754 c 0,12,13
 482 754 482 754 488 742 c 1,14,15
 476 730 476 730 468 726 c 0,16,17
 344 702 344 702 282 580 c 0,18,19
 230 480 230 480 230 332 c 0,20,21
 230 30 230 30 404 -90 c 0,22,23
 546 -186 546 -186 878 -186 c 0,24,25
 1172 -186 1172 -186 1308 -95 c 128,-1,26
 1444 -4 1444 -4 1444 206 c 0,27,28
 1444 410 1444 410 1328 410 c 0,29,30
 1280 410 1280 410 1247 365 c 128,-1,31
 1214 320 1214 320 1214 266 c 2,32,-1
 1214 118 l 2,33,34
 1214 24 1214 24 1298 24 c 0,35,36
 1330 24 1330 24 1330 8 c 0,37,38
 1330 -4 1330 -4 1294 -4 c 2,39,-1
 918 -4 l 2,40,41
 880 -4 880 -4 878 12 c 0,42,43
 878 28 878 28 912 28 c 0,44,45
 944 28 944 28 977 49 c 128,-1,46
 1010 70 1010 70 1010 118 c 2,47,-1
 1010 592 l 2,48,49
 1010 658 1010 658 976 684 c 0,50,51
 952 698 952 698 902 698 c 2,52,-1
 754 698 l 2,53,54
 450 698 450 698 420 372 c 1,55,56
 444 438 444 438 497 481 c 128,-1,57
 550 524 550 524 620 524 c 0,58,59
 870 524 870 524 870 252 c 0,60,61
 870 128 870 128 794 58 c 128,-1,62
 718 -12 718 -12 610 -12 c 0,63,64
 472 -12 472 -12 400 98 c 0,65,66
 340 188 340 188 340 308 c 0,67,68
 340 514 340 514 428 628 c 0,69,70
 530 766 530 766 746 766 c 2,71,-1
 1386 766 l 2,72,73
 1434 766 1434 766 1458 790 c 1,74,-1
 1476 816 l 1,75,76
 1488 802 1488 802 1492 792 c 2,77,-1
 1590 546 l 2,78,79
 1596 526 1596 526 1590 520 c 1,80,81
 1578 520 1578 520 1572 534 c 0,82,83
 1542 596 1542 596 1472 642 c 0,84,85
 1394 696 1394 696 1314 696 c 0,86,87
 1214 696 1214 696 1214 602 c 2,88,-1
 1214 408 l 1,89,90
 1252 454 1252 454 1289 472 c 128,-1,91
 1326 490 1326 490 1410 490 c 0,92,93
 1522 490 1522 490 1586 413 c 128,-1,94
 1650 336 1650 336 1650 196 c 0,0,1
666 248 m 0,95,96
 666 424 666 424 556 424 c 0,97,98
 440 424 440 424 440 244 c 0,99,100
 440 178 440 178 473 123 c 128,-1,101
 506 68 506 68 562 68 c 0,102,103
 612 68 612 68 642 130 c 0,104,105
 666 182 666 182 666 248 c 0,95,96
EndSplineSet
EndChar

StartChar: tm_tta
Encoding: 2975 2975 67
Width: 944
GlyphClass: 2
Flags: W
LayerCount: 2
Fore
SplineSet
956 266 m 1,0,1
 962 260 962 260 954 242 c 2,2,-1
 808 -70 l 2,3,4
 806 -74 806 -74 801 -77 c 128,-1,5
 796 -80 796 -80 794 -82 c 0,6,7
 782 -82 782 -82 782 -64 c 0,8,9
 782 -40 782 -40 742 -20 c 0,10,11
 720 -12 720 -12 703 -8 c 128,-1,12
 686 -4 686 -4 660 -4 c 2,13,-1
 -26 -4 l 2,14,15
 -48 -4 -48 -4 -52 8 c 1,16,17
 -52 26 -52 26 -26 26 c 0,18,19
 -10 24 -10 24 -4 24 c 0,20,21
 100 24 100 24 100 138 c 2,22,-1
 100 604 l 2,23,24
 100 698 100 698 52 726 c 1,25,-1
 -26 740 l 1,26,27
 -56 740 -56 740 -56 752 c 0,28,29
 -56 766 -56 766 -20 766 c 2,30,-1
 444 766 l 2,31,32
 472 766 472 766 476 754 c 0,33,34
 476 742 476 742 440 742 c 0,35,36
 356 742 356 742 328 708 c 0,37,38
 310 684 310 684 310 612 c 2,39,-1
 310 202 l 2,40,41
 310 122 310 122 335 94 c 128,-1,42
 360 66 360 66 442 66 c 2,43,-1
 632 66 l 2,44,45
 764 66 764 66 852 146 c 0,46,47
 878 172 878 172 934 256 c 0,48,49
 944 268 944 268 956 266 c 1,0,1
EndSplineSet
EndChar

StartChar: tm_nna
Encoding: 2979 2979 68
Width: 2240
GlyphClass: 2
Flags: W
LayerCount: 2
Fore
SplineSet
2236 550 m 1,0,1
 2228 548 2228 548 2218 562 c 2,2,-1
 2158 638 l 1,3,4
 2100 698 2100 698 2020 698 c 0,5,6
 1934 698 1934 698 1934 562 c 2,7,-1
 1934 186 l 2,8,9
 1934 86 1934 86 1964 56 c 128,-1,10
 1994 26 1994 26 2068 26 c 0,11,12
 2098 26 2098 26 2098 14 c 0,13,14
 2098 0 2098 0 2054 0 c 2,15,-1
 1624 0 l 2,16,17
 1582 0 1582 0 1578 12 c 1,18,19
 1578 26 1578 26 1606 26 c 0,20,21
 1736 26 1736 26 1736 144 c 2,22,-1
 1736 530 l 2,23,24
 1736 630 1736 630 1708 666 c 128,-1,25
 1680 702 1680 702 1612 702 c 2,26,-1
 1484 702 l 1,27,28
 1646 600 1646 600 1646 346 c 0,29,30
 1646 206 1646 206 1576 104 c 0,31,32
 1496 -12 1496 -12 1372 -12 c 256,33,34
 1248 -12 1248 -12 1184 106 c 0,35,36
 1134 202 1134 202 1134 330 c 0,37,38
 1134 424 1134 424 1173 523 c 128,-1,39
 1212 622 1212 622 1288 680 c 1,40,41
 1234 716 1234 716 1098 716 c 0,42,43
 1026 716 1026 716 944 692 c 1,44,45
 1104 568 1104 568 1104 340 c 0,46,47
 1104 190 1104 190 1034 90 c 0,48,49
 998 38 998 38 950 12 c 128,-1,50
 902 -14 902 -14 838 -14 c 0,51,52
 708 -14 708 -14 642 102 c 0,53,54
 590 196 590 196 590 348 c 0,55,56
 590 428 590 428 630 523 c 128,-1,57
 670 618 670 618 746 668 c 1,58,59
 740 686 740 686 672 706 c 0,60,61
 642 714 642 714 603 720 c 128,-1,62
 564 726 564 726 526 726 c 0,63,64
 406 726 406 726 315 683 c 128,-1,65
 224 640 224 640 166 553 c 128,-1,66
 108 466 108 466 108 380 c 1,67,68
 174 526 174 526 336 526 c 0,69,70
 446 526 446 526 508 447 c 128,-1,71
 570 368 570 368 570 260 c 0,72,73
 570 144 570 144 495 65 c 128,-1,74
 420 -14 420 -14 288 -14 c 0,75,76
 164 -14 164 -14 95 82 c 128,-1,77
 26 178 26 178 26 328 c 0,78,79
 26 554 26 554 172 676 c 0,80,81
 306 786 306 786 530 786 c 0,82,83
 762 786 762 786 860 736 c 1,84,85
 1008 784 1008 784 1158 784 c 0,86,87
 1302 784 1302 784 1384 752 c 1,88,89
 1412 758 1412 758 1457 762 c 128,-1,90
 1502 766 1502 766 1564 766 c 2,91,-1
 1800 764 l 1,92,-1
 2004 760 l 2,93,94
 2086 760 2086 760 2104 792 c 2,95,-1
 2118 814 l 1,96,97
 2132 800 2132 800 2138 790 c 2,98,-1
 2236 574 l 2,99,100
 2242 556 2242 556 2236 550 c 1,0,1
1436 366 m 0,101,102
 1436 470 1436 470 1416 521 c 128,-1,103
 1396 572 1396 572 1340 644 c 1,104,105
 1208 542 1208 542 1208 330 c 0,106,107
 1208 72 1208 72 1336 72 c 0,108,109
 1436 72 1436 72 1436 366 c 0,101,102
894 368 m 0,110,111
 894 448 894 448 862 520 c 1,112,113
 832 598 832 598 792 628 c 1,114,115
 662 532 662 532 662 330 c 0,116,117
 662 68 662 68 794 68 c 0,118,119
 842 68 842 68 872 174 c 0,120,121
 894 262 894 262 894 368 c 0,110,111
368 258 m 0,122,123
 368 422 368 422 256 422 c 0,124,125
 200 422 200 422 164 371 c 128,-1,126
 128 320 128 320 128 250 c 0,127,128
 128 182 128 182 163 125 c 128,-1,129
 198 68 198 68 254 68 c 0,130,131
 368 68 368 68 368 258 c 0,122,123
EndSplineSet
EndChar

StartChar: tm_ta
Encoding: 2980 2980 69
Width: 1022
GlyphClass: 2
Flags: W
LayerCount: 2
Fore
SplineSet
994 228 m 0,0,1
 994 126 994 126 976 74 c 128,-1,2
 958 22 958 22 898 -50 c 0,3,4
 786 -180 786 -180 514 -180 c 2,5,-1
 226 -180 l 2,6,7
 190 -180 190 -180 159 -186 c 128,-1,8
 128 -192 128 -192 90 -208 c 0,9,10
 4 -242 4 -242 -42 -302 c 0,11,12
 -70 -342 -70 -342 -82 -342 c 1,13,14
 -84 -328 -84 -328 -80 -318 c 2,15,-1
 32 -74 l 2,16,17
 40 -54 40 -54 50 -58 c 1,18,-1
 62 -78 l 2,19,20
 84 -110 84 -110 138 -110 c 2,21,-1
 434 -110 l 2,22,23
 648 -110 648 -110 732 -8 c 0,24,25
 794 72 794 72 794 248 c 0,26,27
 794 364 794 364 730 408 c 0,28,29
 708 422 708 422 612 422 c 1,30,-1
 612 242 l 2,31,32
 612 -4 612 -4 308 -4 c 0,33,34
 182 -4 182 -4 110 54 c 0,35,36
 26 120 26 120 26 248 c 0,37,38
 26 348 26 348 94 424 c 0,39,40
 154 490 154 490 200 490 c 1,41,-1
 200 634 l 2,42,43
 200 684 200 684 172 715 c 128,-1,44
 144 746 144 746 98 746 c 0,45,46
 62 746 62 746 62 760 c 1,47,48
 66 762 66 762 68 762 c 0,49,50
 82 768 82 768 90 768 c 2,51,-1
 730 768 l 2,52,53
 784 768 784 768 802 792 c 2,54,-1
 818 816 l 1,55,56
 822 812 822 812 827 804 c 128,-1,57
 832 796 832 796 840 780 c 2,58,-1
 944 564 l 1,59,-1
 950 532 l 2,60,61
 948 534 948 534 946 534 c 0,62,63
 936 540 936 540 922 556 c 0,64,65
 826 698 826 698 716 698 c 0,66,67
 672 698 672 698 643 661 c 128,-1,68
 614 624 614 624 614 570 c 2,69,-1
 614 494 l 1,70,-1
 744 494 l 2,71,72
 868 494 868 494 938 410 c 1,73,74
 994 336 994 336 994 228 c 0,0,1
404 494 m 1,75,-1
 404 630 l 2,76,77
 404 696 404 696 340 696 c 0,78,79
 272 696 272 696 272 632 c 2,80,-1
 272 494 l 1,81,-1
 404 494 l 1,75,-1
404 216 m 2,82,-1
 404 420 l 1,83,-1
 258 420 l 2,84,85
 182 420 182 420 136 366 c 0,86,87
 100 320 100 320 100 248 c 0,88,89
 100 168 100 168 143 122 c 128,-1,90
 186 76 186 76 264 76 c 0,91,92
 336 76 336 76 366 100 c 0,93,94
 404 132 404 132 404 216 c 2,82,-1
EndSplineSet
EndChar

StartChar: tm_na
Encoding: 2984 2984 70
Width: 1106
GlyphClass: 2
Flags: W
LayerCount: 2
Fore
SplineSet
1078 200 m 0,0,1
 1078 6 1078 6 920 -108 c 0,2,3
 784 -204 784 -204 594 -204 c 2,4,-1
 226 -204 l 2,5,6
 130 -204 130 -204 64 -244 c 0,7,8
 6 -278 6 -278 -28 -326 c 0,9,10
 -52 -356 -52 -356 -62 -350 c 1,11,12
 -60 -330 -60 -330 -54 -318 c 2,13,-1
 52 -100 l 1,14,-1
 70 -74 l 1,15,-1
 82 -90 l 1,16,17
 90 -108 90 -108 110 -116 c 0,18,19
 138 -132 138 -132 188 -132 c 2,20,-1
 544 -132 l 2,21,22
 686 -132 686 -132 780 -60 c 0,23,24
 882 22 882 22 882 170 c 0,25,26
 882 378 882 378 764 378 c 0,27,28
 718 378 718 378 685 343 c 128,-1,29
 652 308 652 308 652 252 c 2,30,-1
 652 134 l 2,31,32
 652 68 652 68 686 34 c 0,33,34
 698 24 698 24 730 20 c 0,35,36
 754 20 754 20 756 6 c 1,37,38
 750 0 750 0 744 -2 c 128,-1,39
 738 -4 738 -4 728 -4 c 2,40,-1
 350 -4 l 2,41,42
 320 -4 320 -4 320 12 c 1,43,44
 326 14 326 14 330 16 c 0,45,46
 350 24 350 24 362 26 c 0,47,48
 400 26 400 26 426 62 c 1,49,50
 446 98 446 98 446 146 c 2,51,-1
 446 588 l 2,52,53
 446 642 446 642 432 664 c 0,54,55
 404 702 404 702 314 702 c 0,56,57
 236 702 236 702 209 676 c 128,-1,58
 182 650 182 650 182 582 c 2,59,-1
 182 188 l 2,60,61
 182 106 182 106 210 58 c 0,62,63
 222 36 222 36 262 24 c 0,64,65
 292 18 292 18 292 6 c 1,66,67
 278 -4 278 -4 266 -4 c 2,68,-1
 -10 -4 l 2,69,70
 -40 -4 -40 -4 -40 12 c 1,71,72
 -36 14 -36 14 -32 16 c 0,73,74
 -16 24 -16 24 -4 26 c 0,75,76
 38 26 38 26 66 58 c 0,77,78
 106 104 106 104 106 188 c 2,79,-1
 106 610 l 2,80,81
 106 660 106 660 86 694 c 0,82,83
 58 742 58 742 4 742 c 0,84,85
 -40 742 -40 742 -42 756 c 1,86,87
 -40 756 -40 756 -40 758 c 0,88,89
 -28 764 -28 764 -10 766 c 2,90,-1
 822 766 l 2,91,92
 864 766 864 766 886 788 c 2,93,-1
 908 812 l 1,94,95
 918 812 918 812 928 776 c 1,96,-1
 1016 558 l 2,97,98
 1018 548 1018 548 1017 543 c 128,-1,99
 1016 538 1016 538 1014 534 c 1,100,101
 1010 540 1010 540 1006 542 c 0,102,103
 990 556 990 556 980 568 c 0,104,105
 890 698 890 698 736 698 c 0,106,107
 654 698 654 698 654 610 c 2,108,-1
 654 400 l 1,109,110
 716 474 716 474 818 474 c 0,111,112
 946 474 946 474 1018 390 c 0,113,114
 1078 318 1078 318 1078 200 c 0,0,1
EndSplineSet
EndChar

StartChar: tm_nnna
Encoding: 2985 2985 71
Width: 1678
GlyphClass: 2
Flags: W
LayerCount: 2
Fore
SplineSet
1676 524 m 1,0,1
 1664 524 1664 524 1644 550 c 1,2,3
 1568 682 1568 682 1440 682 c 0,4,5
 1366 682 1366 682 1366 562 c 2,6,-1
 1366 144 l 2,7,8
 1366 24 1366 24 1466 24 c 0,9,10
 1520 24 1520 24 1520 12 c 256,11,12
 1520 0 1520 0 1484 0 c 2,13,-1
 1056 0 l 2,14,15
 1002 0 1002 0 1002 12 c 256,16,17
 1002 24 1002 24 1046 24 c 0,18,19
 1164 24 1164 24 1164 134 c 2,20,-1
 1164 578 l 2,21,22
 1164 678 1164 678 1088 678 c 2,23,-1
 934 678 l 1,24,25
 1076 546 1076 546 1076 334 c 0,26,27
 1076 194 1076 194 1010 92 c 0,28,29
 934 -18 934 -18 810 -18 c 0,30,31
 692 -18 692 -18 628 90 c 0,32,33
 572 186 572 186 572 332 c 0,34,35
 572 412 572 412 611 512 c 128,-1,36
 650 612 650 612 732 670 c 1,37,38
 668 712 668 712 498 712 c 0,39,40
 314 712 314 712 202 598 c 0,41,42
 104 500 104 500 104 362 c 1,43,44
 156 524 156 524 318 524 c 0,45,46
 436 524 436 524 500 446 c 0,47,48
 556 372 556 372 556 252 c 0,49,50
 556 142 556 142 483 66 c 128,-1,51
 410 -10 410 -10 300 -10 c 0,52,53
 152 -10 152 -10 80 106 c 0,54,55
 26 190 26 190 26 326 c 0,56,57
 26 542 26 542 158 659 c 128,-1,58
 290 776 290 776 532 776 c 0,59,60
 650 776 650 776 723 766 c 128,-1,61
 796 756 796 756 840 730 c 1,62,63
 856 748 856 748 942 748 c 2,64,-1
 1468 748 l 2,65,66
 1520 748 1520 748 1540 774 c 0,67,68
 1550 786 1550 786 1556 796 c 0,69,70
 1556 798 1556 798 1558 800 c 2,71,-1
 1576 768 l 1,72,-1
 1670 554 l 1,73,74
 1686 528 1686 528 1676 524 c 1,0,1
876 358 m 0,75,76
 876 460 876 460 851 532 c 128,-1,77
 826 604 826 604 786 624 c 1,78,79
 724 580 724 580 688 486 c 0,80,81
 672 440 672 440 664 400 c 128,-1,82
 656 360 656 360 656 312 c 0,83,84
 656 226 656 226 689 145 c 128,-1,85
 722 64 722 64 764 64 c 0,86,87
 816 64 816 64 850 166 c 0,88,89
 876 254 876 254 876 358 c 0,75,76
350 260 m 0,90,91
 350 428 350 428 242 428 c 0,92,93
 130 428 130 428 130 238 c 0,94,95
 130 176 130 176 160 124 c 128,-1,96
 190 72 190 72 242 72 c 0,97,98
 350 72 350 72 350 260 c 0,90,91
EndSplineSet
EndChar

StartChar: tm_pa
Encoding: 2986 2986 72
Width: 882
GlyphClass: 2
Flags: W
LayerCount: 2
Fore
SplineSet
946 10 m 1,0,-1
 940 -2 l 1,1,-1
 928 -2 l 1,2,-1
 912 0 l 1,3,-1
 -20 0 l 2,4,5
 -50 0 -50 0 -50 12 c 1,6,7
 -42 24 -42 24 -34 24 c 2,8,-1
 -18 26 l 1,9,10
 54 26 54 26 78 50 c 128,-1,11
 102 74 102 74 102 132 c 2,12,-1
 102 628 l 2,13,14
 102 706 102 706 54 730 c 0,15,16
 30 740 30 740 -22 740 c 1,17,18
 -60 734 -60 734 -60 754 c 0,19,20
 -60 766 -60 766 -28 766 c 2,21,-1
 386 766 l 2,22,23
 422 766 422 766 422 754 c 1,24,25
 418 752 418 752 411 747 c 128,-1,26
 404 742 404 742 392 740 c 0,27,28
 360 740 360 740 334 719 c 128,-1,29
 308 698 308 698 308 636 c 2,30,-1
 308 188 l 2,31,32
 308 72 308 72 404 72 c 2,33,-1
 494 72 l 2,34,35
 592 72 592 72 592 170 c 2,36,-1
 590 616 l 2,37,38
 590 682 590 682 560 716 c 0,39,40
 544 732 544 732 511 738 c 128,-1,41
 478 744 478 744 476 752 c 0,42,43
 476 762 476 762 500 766 c 1,44,-1
 918 766 l 2,45,46
 944 766 944 766 946 752 c 0,47,48
 946 738 946 738 906 738 c 0,49,50
 854 738 854 738 832 726 c 0,51,52
 798 704 798 704 798 622 c 2,53,-1
 798 118 l 2,54,55
 798 20 798 20 912 20 c 0,56,57
 944 20 944 20 946 10 c 1,0,-1
EndSplineSet
EndChar

StartChar: tm_ma
Encoding: 2990 2990 73
Width: 1258
GlyphClass: 2
Flags: W
LayerCount: 2
Fore
SplineSet
1230 382 m 256,0,1
 1230 228 1230 228 1123 114 c 128,-1,2
 1016 0 1016 0 830 0 c 2,3,-1
 8 0 l 2,4,5
 -34 0 -34 0 -34 12 c 0,6,7
 -34 22 -34 22 -4 26 c 1,8,9
 60 26 60 26 82 40 c 0,10,11
 118 62 118 62 118 138 c 2,12,-1
 118 632 l 2,13,14
 118 736 118 736 16 736 c 1,15,-1
 -12 734 l 2,16,17
 -44 728 -44 728 -44 750 c 0,18,19
 -44 766 -44 766 -8 766 c 2,20,-1
 392 766 l 2,21,22
 428 766 428 766 432 754 c 1,23,24
 432 740 432 740 406 738 c 0,25,26
 320 738 320 738 320 614 c 2,27,-1
 320 158 l 2,28,29
 320 70 320 70 436 70 c 0,30,31
 546 70 546 70 546 178 c 2,32,-1
 546 622 l 2,33,34
 546 740 546 740 464 740 c 0,35,36
 454 740 454 740 450 752 c 0,37,38
 450 762 450 762 462 766 c 1,39,-1
 822 766 l 2,40,41
 1024 766 1024 766 1138 640 c 0,42,43
 1230 536 1230 536 1230 382 c 256,0,1
1022 362 m 0,44,45
 1022 696 1022 696 848 696 c 0,46,47
 750 696 750 696 750 554 c 2,48,-1
 750 192 l 2,49,50
 750 72 750 72 862 72 c 0,51,52
 1022 72 1022 72 1022 362 c 0,44,45
EndSplineSet
EndChar

StartChar: tm_ya
Encoding: 2991 2991 74
Width: 1224
GlyphClass: 2
Flags: W
LayerCount: 2
Fore
SplineSet
1266 18 m 0,0,1
 1266 0 1266 0 1238 -2 c 2,2,-1
 412 -2 l 1,3,-1
 412 56 l 1,4,5
 358 -16 358 -16 268 -16 c 0,6,7
 208 -16 208 -16 156 24 c 0,8,9
 96 72 96 72 96 156 c 2,10,-1
 96 570 l 2,11,12
 96 738 96 738 -10 738 c 0,13,14
 -52 738 -52 738 -56 750 c 1,15,16
 -56 766 -56 766 -18 766 c 2,17,-1
 206 766 l 2,18,19
 254 766 254 766 254 750 c 0,20,21
 254 736 254 736 238 734 c 0,22,23
 214 734 214 734 189 691 c 128,-1,24
 164 648 164 648 164 590 c 2,25,-1
 164 192 l 2,26,27
 164 142 164 142 196 104 c 0,28,29
 226 62 226 62 280 62 c 0,30,31
 328 62 328 62 368 93 c 128,-1,32
 408 124 408 124 408 182 c 2,33,-1
 408 628 l 2,34,35
 408 678 408 678 376 709 c 128,-1,36
 344 740 344 740 294 740 c 0,37,38
 264 740 264 740 264 750 c 0,39,40
 264 762 264 762 282 766 c 1,41,-1
 674 766 l 2,42,43
 722 766 722 766 724 756 c 0,44,45
 724 744 724 744 696 744 c 0,46,47
 614 744 614 744 614 658 c 2,48,-1
 614 152 l 2,49,50
 614 66 614 66 710 66 c 2,51,-1
 806 66 l 2,52,53
 894 66 894 66 894 162 c 2,54,-1
 894 622 l 2,55,56
 894 740 894 740 802 740 c 0,57,58
 778 740 778 740 776 754 c 0,59,60
 776 766 776 766 800 766 c 2,61,-1
 1208 766 l 2,62,63
 1244 766 1244 766 1248 754 c 1,64,65
 1248 740 1248 740 1206 740 c 0,66,67
 1102 740 1102 740 1102 646 c 2,68,-1
 1102 142 l 2,69,70
 1102 76 1102 76 1138 52 c 0,71,72
 1162 34 1162 34 1228 34 c 0,73,74
 1264 34 1264 34 1266 18 c 0,0,1
EndSplineSet
EndChar

StartChar: tm_ra
Encoding: 2992 2992 75
Width: 928
GlyphClass: 2
Flags: W
LayerCount: 2
Fore
SplineSet
940 540 m 1,0,1
 928 538 928 538 910 564 c 1,2,3
 888 612 888 612 820 656 c 128,-1,4
 752 700 752 700 696 700 c 0,5,6
 660 700 660 700 644 686 c 0,7,8
 620 662 620 662 620 588 c 2,9,-1
 620 176 l 2,10,11
 620 90 620 90 643 60 c 128,-1,12
 666 30 666 30 728 30 c 0,13,14
 762 30 762 30 766 18 c 0,15,16
 766 6 766 6 732 6 c 0,17,18
 690 6 690 6 652 -20 c 1,19,-1
 562 -96 l 2,20,21
 498 -146 498 -146 416 -170 c 0,22,23
 376 -180 376 -180 336 -187 c 128,-1,24
 296 -194 296 -194 256 -194 c 2,25,-1
 82 -204 l 2,26,27
 16 -210 16 -210 -47 -247 c 128,-1,28
 -110 -284 -110 -284 -140 -332 c 0,29,30
 -158 -362 -158 -362 -170 -356 c 1,31,32
 -170 -336 -170 -336 -166 -324 c 2,33,-1
 -74 -126 l 2,34,35
 -54 -82 -54 -82 -46 -80 c 1,36,37
 -36 -88 -36 -88 -34 -92 c 2,38,-1
 -26 -106 l 1,39,40
 6 -132 6 -132 150 -132 c 0,41,42
 362 -132 362 -132 404 -36 c 0,43,44
 422 6 422 6 422 62 c 2,45,-1
 422 576 l 2,46,47
 422 698 422 698 312 698 c 0,48,49
 264 698 264 698 244 695 c 128,-1,50
 224 692 224 692 206 682 c 0,51,52
 160 654 160 654 160 556 c 2,53,-1
 160 206 l 2,54,55
 160 88 160 88 180 62 c 0,56,57
 208 26 208 26 254 26 c 0,58,59
 278 26 278 26 280 12 c 0,60,61
 280 0 280 0 252 0 c 2,62,-1
 -32 0 l 2,63,64
 -52 0 -52 0 -54 10 c 0,65,66
 -54 20 -54 20 -24 24 c 1,67,68
 34 24 34 24 62 48 c 128,-1,69
 90 72 90 72 90 154 c 2,70,-1
 90 596 l 2,71,72
 90 678 90 678 59 711 c 128,-1,73
 28 744 28 744 -10 744 c 0,74,75
 -52 744 -52 744 -56 756 c 1,76,77
 -50 760 -50 760 -46 760 c 0,78,79
 -28 766 -28 766 -14 766 c 2,80,-1
 742 766 l 2,81,82
 762 766 762 766 796 780 c 1,83,-1
 810 800 l 2,84,85
 818 812 818 812 828 816 c 1,86,-1
 842 790 l 1,87,-1
 930 576 l 1,88,-1
 940 540 l 1,0,1
EndSplineSet
EndChar

StartChar: tm_rra
Encoding: 2993 2993 76
Width: 1026
GlyphClass: 2
Flags: W
LayerCount: 2
Fore
SplineSet
996 332 m 0,0,1
 996 102 996 102 884 -34 c 0,2,3
 786 -156 786 -156 620 -186 c 0,4,5
 548 -198 548 -198 228 -198 c 0,6,7
 152 -198 152 -198 70 -240 c 128,-1,8
 -12 -282 -12 -282 -44 -346 c 0,9,10
 -56 -368 -56 -368 -66 -368 c 0,11,12
 -80 -364 -80 -364 -62 -326 c 2,13,-1
 34 -100 l 2,14,15
 40 -86 40 -86 44 -80 c 128,-1,16
 48 -74 48 -74 52 -68 c 1,17,18
 62 -76 62 -76 66 -88 c 128,-1,19
 70 -100 70 -100 93 -114 c 128,-1,20
 116 -128 116 -128 174 -128 c 2,21,-1
 452 -128 l 2,22,23
 568 -128 568 -128 646 -82 c 0,24,25
 792 4 792 4 792 370 c 0,26,27
 792 692 792 692 650 692 c 0,28,29
 542 692 542 692 542 584 c 2,30,-1
 542 180 l 2,31,32
 542 26 542 26 634 26 c 0,33,34
 656 26 656 26 660 8 c 1,35,36
 656 6 656 6 648 3 c 128,-1,37
 640 0 640 0 632 0 c 2,38,-1
 296 0 l 2,39,40
 266 0 266 0 266 14 c 256,41,42
 266 28 266 28 284 34 c 0,43,44
 342 46 342 46 342 150 c 2,45,-1
 342 566 l 2,46,47
 342 696 342 696 242 696 c 0,48,49
 152 696 152 696 152 586 c 2,50,-1
 152 190 l 2,51,52
 152 162 152 162 154 146 c 128,-1,53
 156 130 156 130 171 87 c 128,-1,54
 186 44 186 44 220 32 c 0,55,56
 244 26 244 26 244 14 c 0,57,58
 244 0 244 0 194 0 c 2,59,-1
 -30 0 l 2,60,61
 -60 0 -60 0 -60 12 c 256,62,63
 -60 24 -60 24 -28 24 c 0,64,65
 80 24 80 24 80 178 c 2,66,-1
 80 604 l 2,67,68
 80 680 80 680 140 726 c 128,-1,69
 200 772 200 772 308 772 c 0,70,71
 458 772 458 772 516 694 c 1,72,73
 560 774 560 774 692 774 c 0,74,75
 836 774 836 774 908 690 c 0,76,77
 968 620 968 620 986 512 c 0,78,79
 996 446 996 446 996 332 c 0,0,1
EndSplineSet
EndChar

StartChar: tm_la
Encoding: 2994 2994 77
Width: 1264
GlyphClass: 2
Flags: W
LayerCount: 2
Fore
SplineSet
1236 348 m 0,0,1
 1236 -38 1236 -38 884 -38 c 0,2,3
 698 -38 698 -38 648 96 c 0,4,5
 620 170 620 170 620 496 c 0,6,7
 620 582 620 582 558 636 c 0,8,9
 504 680 504 680 430 680 c 0,10,11
 284 680 284 680 208 608 c 0,12,13
 116 520 116 520 116 406 c 1,14,15
 192 526 192 526 318 526 c 0,16,17
 432 526 432 526 498 453 c 128,-1,18
 564 380 564 380 564 242 c 0,19,20
 564 130 564 130 486 56 c 128,-1,21
 408 -18 408 -18 282 -18 c 0,22,23
 166 -18 166 -18 92 80 c 0,24,25
 26 170 26 170 26 302 c 0,26,27
 26 756 26 756 464 756 c 0,28,29
 780 756 780 756 822 510 c 1,30,-1
 828 412 l 1,31,-1
 824 272 l 1,32,-1
 824 144 l 1,33,34
 836 36 836 36 902 36 c 0,35,36
 966 36 966 36 1002 166 c 0,37,38
 1012 206 1012 206 1018 259 c 128,-1,39
 1024 312 1024 312 1024 372 c 0,40,41
 1024 690 1024 690 890 690 c 1,42,-1
 840 674 l 2,43,44
 830 668 830 668 810 672 c 0,45,46
 796 672 796 672 789 680 c 128,-1,47
 782 688 782 688 782 702 c 0,48,49
 782 726 782 726 824 740 c 128,-1,50
 866 754 866 754 912 754 c 0,51,52
 1070 754 1070 754 1153 643 c 128,-1,53
 1236 532 1236 532 1236 348 c 0,0,1
360 246 m 0,54,55
 360 440 360 440 256 440 c 0,56,57
 134 440 134 440 134 242 c 0,58,59
 134 168 134 168 162 116 c 128,-1,60
 190 64 190 64 246 64 c 0,61,62
 360 64 360 64 360 246 c 0,54,55
EndSplineSet
EndChar

StartChar: tm_lla
Encoding: 2995 2995 78
Width: 1592
GlyphClass: 2
Flags: W
LayerCount: 2
Fore
SplineSet
1590 498 m 0,0,1
 1582 496 1582 496 1562 528 c 0,2,3
 1538 574 1538 574 1478 620 c 0,4,5
 1408 672 1408 672 1334 672 c 0,6,7
 1280 672 1280 672 1280 574 c 2,8,-1
 1280 144 l 2,9,10
 1280 68 1280 68 1322 40 c 0,11,12
 1348 24 1348 24 1408 24 c 0,13,14
 1440 24 1440 24 1442 10 c 1,15,16
 1428 0 1428 0 1418 0 c 2,17,-1
 1014 0 l 2,18,19
 988 0 988 0 988 16 c 0,20,21
 988 28 988 28 1002 30 c 0,22,23
 1032 30 1032 30 1057 65 c 128,-1,24
 1082 100 1082 100 1082 162 c 2,25,-1
 1082 570 l 2,26,27
 1082 640 1082 640 1046 664 c 0,28,29
 1020 680 1020 680 966 680 c 0,30,31
 878 680 878 680 860 632 c 1,32,33
 886 574 886 574 886 516 c 2,34,-1
 886 140 l 2,35,36
 886 100 886 100 903 69 c 128,-1,37
 920 38 920 38 942 32 c 0,38,39
 960 30 960 30 962 10 c 1,40,41
 956 4 956 4 947 2 c 128,-1,42
 938 0 938 0 926 0 c 2,43,-1
 526 0 l 2,44,45
 506 0 506 0 504 10 c 0,46,47
 504 22 504 22 530 22 c 0,48,49
 612 22 612 22 647 46 c 128,-1,50
 682 70 682 70 682 146 c 2,51,-1
 682 494 l 2,52,53
 682 712 682 712 440 712 c 0,54,55
 290 712 290 712 202 624 c 0,56,57
 158 580 158 580 133 519 c 128,-1,58
 108 458 108 458 108 378 c 1,59,60
 138 458 138 458 182 496 c 0,61,62
 236 538 236 538 332 538 c 0,63,64
 440 538 440 538 502 463 c 128,-1,65
 564 388 564 388 564 260 c 0,66,67
 564 142 564 142 485 67 c 128,-1,68
 406 -8 406 -8 296 -8 c 0,69,70
 160 -8 160 -8 86 114 c 0,71,72
 26 214 26 214 26 356 c 0,73,74
 26 542 26 542 130 654 c 0,75,76
 246 782 246 782 474 782 c 0,77,78
 708 782 708 782 804 694 c 1,79,80
 838 728 838 728 866 737 c 128,-1,81
 894 746 894 746 954 746 c 2,82,-1
 1390 746 l 2,83,84
 1426 746 1426 746 1448 766 c 2,85,-1
 1468 786 l 1,86,87
 1472 782 1472 782 1474 780 c 0,88,89
 1484 770 1484 770 1488 760 c 2,90,-1
 1586 526 l 1,91,-1
 1592 510 l 2,92,93
 1592 500 1592 500 1590 498 c 0,0,1
376 266 m 0,94,95
 376 334 376 334 352 386 c 0,96,97
 322 446 322 446 260 446 c 0,98,99
 130 446 130 446 130 254 c 0,100,101
 130 178 130 178 168 118 c 128,-1,102
 206 58 206 58 268 58 c 0,103,104
 376 58 376 58 376 266 c 0,94,95
EndSplineSet
EndChar

StartChar: tm_llla
Encoding: 2996 2996 79
Width: 1214
GlyphClass: 2
Flags: W
LayerCount: 2
Fore
SplineSet
1188 388 m 0,0,1
 1188 284 1188 284 1142 190 c 128,-1,2
 1096 96 1096 96 1014 46 c 128,-1,3
 932 -4 932 -4 726 -4 c 1,4,5
 726 -104 726 -104 820 -134 c 2,6,-1
 928 -172 l 1,7,8
 982 -200 982 -200 982 -262 c 0,9,10
 982 -298 982 -298 953 -324 c 128,-1,11
 924 -350 924 -350 886 -350 c 0,12,13
 854 -350 854 -350 828 -326 c 128,-1,14
 802 -302 802 -302 802 -280 c 0,15,16
 802 -262 802 -262 814 -244 c 2,17,-1
 826 -228 l 1,18,19
 826 -202 826 -202 790 -202 c 1,20,21
 742 -208 742 -208 688 -270 c 0,22,23
 614 -356 614 -356 590 -372 c 0,24,25
 520 -426 520 -426 416 -426 c 0,26,27
 188 -426 188 -426 104 -192 c 0,28,29
 96 -174 96 -174 96 -158 c 0,30,31
 96 -140 96 -140 112 -134 c 2,32,-1
 126 -130 l 1,33,34
 132 -136 132 -136 138 -143 c 128,-1,35
 144 -150 144 -150 152 -162 c 0,36,37
 188 -222 188 -222 280 -260 c 0,38,39
 352 -290 352 -290 424 -290 c 0,40,41
 492 -290 492 -290 578 -250 c 1,42,-1
 708 -182 l 1,43,44
 610 -164 610 -164 556 -98 c 0,45,46
 528 -64 528 -64 528 -2 c 1,47,-1
 -18 -2 l 2,48,49
 -58 -2 -58 -2 -58 14 c 0,50,51
 -58 26 -58 26 -4 26 c 0,52,53
 98 26 98 26 98 164 c 2,54,-1
 98 626 l 2,55,56
 98 710 98 710 56 734 c 0,57,58
 36 744 36 744 -14 744 c 0,59,60
 -52 744 -52 744 -54 752 c 0,61,62
 -54 768 -54 768 -2 768 c 2,63,-1
 340 768 l 2,64,65
 396 768 396 768 398 754 c 0,66,67
 398 742 398 742 366 742 c 0,68,69
 338 742 338 742 314 700 c 0,70,71
 306 682 306 682 302 667 c 128,-1,72
 298 652 298 652 298 630 c 2,73,-1
 298 214 l 2,74,75
 298 68 298 68 394 68 c 0,76,77
 472 68 472 68 504 94 c 0,78,79
 528 112 528 112 528 168 c 2,80,-1
 528 630 l 2,81,82
 528 690 528 690 506 718 c 0,83,84
 496 730 496 730 469 738 c 128,-1,85
 442 746 442 746 440 754 c 0,86,87
 440 768 440 768 490 768 c 2,88,-1
 834 768 l 2,89,90
 990 768 990 768 1089 657 c 128,-1,91
 1188 546 1188 546 1188 388 c 0,0,1
986 404 m 0,92,93
 986 698 986 698 826 698 c 0,94,95
 726 698 726 698 726 584 c 2,96,-1
 726 192 l 2,97,98
 726 68 726 68 820 68 c 0,99,100
 986 68 986 68 986 404 c 0,92,93
EndSplineSet
EndChar

StartChar: tm_va
Encoding: 2997 2997 80
Width: 1334
GlyphClass: 2
Flags: W
LayerCount: 2
Fore
SplineSet
1378 752 m 1,0,1
 1372 746 1372 746 1362 744 c 128,-1,2
 1352 742 1352 742 1340 742 c 0,3,4
 1278 742 1278 742 1254 715 c 128,-1,5
 1230 688 1230 688 1230 626 c 2,6,-1
 1230 108 l 2,7,8
 1230 20 1230 20 1332 20 c 0,9,10
 1362 20 1362 20 1364 6 c 1,11,12
 1354 0 1354 0 1341 -2 c 128,-1,13
 1328 -4 1328 -4 1312 -4 c 2,14,-1
 544 -4 l 2,15,16
 520 -4 520 -4 516 8 c 1,17,18
 516 24 516 24 542 30 c 0,19,20
 728 64 728 64 728 382 c 0,21,22
 728 718 728 718 448 718 c 0,23,24
 306 718 306 718 219 637 c 128,-1,25
 132 556 132 556 116 408 c 1,26,27
 176 534 176 534 328 534 c 0,28,29
 440 534 440 534 505 460 c 128,-1,30
 570 386 570 386 570 270 c 0,31,32
 570 158 570 158 504 82 c 0,33,34
 432 -2 432 -2 300 -2 c 256,35,36
 168 -2 168 -2 97 96 c 128,-1,37
 26 194 26 194 26 346 c 0,38,39
 26 544 26 544 132 662 c 1,40,41
 254 790 254 790 484 790 c 0,42,43
 698 790 698 790 824 672 c 0,44,45
 942 564 942 564 942 386 c 0,46,47
 942 250 942 250 890 166 c 0,48,49
 860 118 860 118 794 70 c 1,50,-1
 922 70 l 2,51,52
 1026 70 1026 70 1026 156 c 2,53,-1
 1026 608 l 2,54,55
 1026 744 1026 744 898 744 c 0,56,57
 870 744 870 744 866 756 c 0,58,59
 866 768 866 768 904 768 c 2,60,-1
 1338 768 l 2,61,62
 1376 768 1376 768 1378 752 c 1,0,1
378 282 m 0,63,64
 378 452 378 452 268 452 c 0,65,66
 210 452 210 452 174 396 c 0,67,68
 158 366 158 366 150 337 c 128,-1,69
 142 308 142 308 142 268 c 0,70,71
 142 188 142 188 170 129 c 128,-1,72
 198 70 198 70 258 70 c 0,73,74
 378 70 378 70 378 282 c 0,63,64
EndSplineSet
EndChar

StartChar: tm_ssa
Encoding: 2999 2999 81
Width: 1722
GlyphClass: 2
Flags: W
LayerCount: 2
Fore
SplineSet
1714 218 m 2,0,-1
 1608 42 l 1,1,-1
 1556 -64 l 2,2,3
 1554 -68 1554 -68 1549 -71 c 128,-1,4
 1544 -74 1544 -74 1542 -76 c 1,5,6
 1534 -68 1534 -68 1532 -62 c 0,7,8
 1520 0 1520 0 1404 0 c 2,9,-1
 1276 0 l 1,10,11
 1228 -6 1228 -6 1228 -134 c 0,12,13
 1228 -206 1228 -206 1277 -259 c 128,-1,14
 1326 -312 1326 -312 1400 -312 c 0,15,16
 1486 -312 1486 -312 1526 -260 c 0,17,18
 1538 -248 1538 -248 1550 -248 c 0,19,20
 1560 -248 1560 -248 1570 -258 c 0,21,22
 1582 -272 1582 -272 1570 -292 c 0,23,24
 1524 -362 1524 -362 1320 -362 c 0,25,26
 1208 -362 1208 -362 1121 -300 c 128,-1,27
 1034 -238 1034 -238 1034 -136 c 0,28,29
 1034 -52 1034 -52 1088 -4 c 1,30,-1
 522 -4 l 2,31,32
 492 -4 492 -4 492 10 c 256,33,34
 492 24 492 24 524 30 c 0,35,36
 612 42 612 42 664 135 c 128,-1,37
 716 228 716 228 716 366 c 0,38,39
 716 716 716 716 438 716 c 0,40,41
 286 716 286 716 188 616 c 0,42,43
 98 524 98 524 98 354 c 1,44,45
 146 534 146 534 318 534 c 0,46,47
 416 534 416 534 485 463 c 128,-1,48
 554 392 554 392 554 270 c 0,49,50
 554 150 554 150 474 71 c 128,-1,51
 394 -8 394 -8 274 -8 c 0,52,53
 152 -8 152 -8 84 98 c 0,54,55
 24 188 24 188 24 326 c 0,56,57
 24 526 24 526 124 644 c 0,58,59
 238 780 238 780 470 780 c 0,60,61
 690 780 690 780 814 666 c 0,62,63
 926 558 926 558 926 374 c 0,64,65
 926 192 926 192 776 66 c 1,66,-1
 1232 66 l 1,67,68
 1000 96 1000 96 1000 412 c 0,69,70
 1000 768 1000 768 1312 768 c 0,71,72
 1596 768 1596 768 1596 440 c 0,73,74
 1596 298 1596 298 1539 211 c 128,-1,75
 1482 124 1482 124 1346 70 c 1,76,-1
 1412 66 l 1,77,78
 1508 66 1508 66 1570 98 c 0,79,80
 1616 122 1616 122 1648 166 c 2,81,-1
 1692 232 l 1,82,83
 1698 250 1698 250 1714 244 c 0,84,85
 1722 242 1722 242 1720 235 c 128,-1,86
 1718 228 1718 228 1714 218 c 2,0,-1
1404 474 m 0,87,88
 1404 710 1404 710 1306 710 c 0,89,90
 1190 710 1190 710 1190 452 c 2,91,-1
 1190 316 l 2,92,93
 1190 132 1190 132 1288 132 c 0,94,95
 1404 132 1404 132 1404 474 c 0,87,88
354 260 m 0,96,97
 354 426 354 426 246 426 c 0,98,99
 192 426 192 426 159 368 c 128,-1,100
 126 310 126 310 126 252 c 0,101,102
 126 182 126 182 155 131 c 128,-1,103
 184 80 184 80 240 80 c 0,104,105
 288 80 288 80 322 134 c 0,106,107
 354 192 354 192 354 260 c 0,96,97
EndSplineSet
EndChar

StartChar: tm_sa
Encoding: 3000 3000 82
Width: 1728
GlyphClass: 2
Flags: W
LayerCount: 2
Fore
SplineSet
1700 396 m 0,0,1
 1700 -20 1700 -20 1366 -20 c 0,2,3
 1192 -20 1192 -20 1123 50 c 128,-1,4
 1054 120 1054 120 1054 276 c 2,5,-1
 1054 482 l 2,6,7
 1054 692 1054 692 932 692 c 0,8,9
 868 692 868 692 838 642 c 1,10,11
 874 590 874 590 874 436 c 2,12,-1
 874 134 l 2,13,14
 874 20 874 20 954 20 c 0,15,16
 968 20 968 20 970 10 c 0,17,18
 970 -4 970 -4 932 -4 c 2,19,-1
 584 -4 l 2,20,21
 564 -4 564 -4 560 8 c 0,22,23
 556 26 556 26 584 26 c 0,24,25
 666 26 666 26 666 136 c 2,26,-1
 666 494 l 2,27,28
 666 594 666 594 606 648 c 128,-1,29
 546 702 546 702 442 702 c 0,30,31
 284 702 284 702 196 614 c 0,32,33
 154 572 154 572 129 513 c 128,-1,34
 104 454 104 454 104 386 c 1,35,36
 164 528 164 528 308 528 c 0,37,38
 424 528 424 528 492 446 c 0,39,40
 550 370 550 370 550 246 c 0,41,42
 550 144 550 144 477 67 c 128,-1,43
 404 -10 404 -10 286 -10 c 0,44,45
 164 -10 164 -10 95 88 c 128,-1,46
 26 186 26 186 26 344 c 0,47,48
 26 524 26 524 130 640 c 0,49,50
 248 772 248 772 460 772 c 256,51,52
 672 772 672 772 792 696 c 1,53,54
 838 764 838 764 986 764 c 0,55,56
 1262 764 1262 764 1262 446 c 2,57,-1
 1262 260 l 2,58,59
 1262 34 1262 34 1374 34 c 0,60,61
 1434 34 1434 34 1470 164 c 0,62,63
 1498 270 1498 270 1498 380 c 0,64,65
 1498 658 1498 658 1376 684 c 1,66,-1
 1342 682 l 2,67,68
 1330 682 1330 682 1322 698 c 1,69,-1
 1320 710 l 1,70,71
 1320 746 1320 746 1364 746 c 2,72,-1
 1412 750 l 1,73,74
 1546 750 1546 750 1623 655 c 128,-1,75
 1700 560 1700 560 1700 396 c 0,0,1
358 242 m 0,76,77
 358 426 358 426 240 426 c 0,78,79
 186 426 186 426 156 377 c 128,-1,80
 126 328 126 328 126 248 c 0,81,82
 126 184 126 184 152 129 c 128,-1,83
 178 74 178 74 234 74 c 0,84,85
 358 74 358 74 358 242 c 0,76,77
EndSplineSet
EndChar

StartChar: tm_ha
Encoding: 3001 3001 83
Width: 1958
GlyphClass: 2
Flags: W
LayerCount: 2
Fore
SplineSet
1930 384 m 0,0,1
 1930 66 1930 66 1758 -74 c 0,2,3
 1616 -188 1616 -188 1344 -188 c 2,4,-1
 220 -188 l 2,5,6
 160 -188 160 -188 92 -227 c 128,-1,7
 24 -266 24 -266 -22 -332 c 0,8,9
 -30 -348 -30 -348 -34 -350 c 128,-1,10
 -38 -352 -38 -352 -42 -354 c 1,11,12
 -48 -346 -48 -346 -48 -340 c 2,13,-1
 -42 -322 l 1,14,-1
 60 -86 l 2,15,16
 66 -70 66 -70 78 -66 c 1,17,-1
 90 -82 l 1,18,19
 96 -118 96 -118 180 -118 c 2,20,-1
 1392 -118 l 2,21,22
 1722 -118 1722 -118 1722 336 c 0,23,24
 1722 506 1722 506 1706 568 c 0,25,26
 1676 686 1676 686 1586 686 c 0,27,28
 1478 686 1478 686 1478 568 c 2,29,-1
 1478 126 l 2,30,31
 1478 82 1478 82 1501 55 c 128,-1,32
 1524 28 1524 28 1558 24 c 0,33,34
 1590 24 1590 24 1590 8 c 0,35,36
 1590 -4 1590 -4 1556 -4 c 2,37,-1
 1248 -4 l 2,38,39
 1204 -4 1204 -4 1202 10 c 0,40,41
 1202 22 1202 22 1220 28 c 128,-1,42
 1238 34 1238 34 1259 67 c 128,-1,43
 1280 100 1280 100 1280 142 c 2,44,-1
 1280 552 l 2,45,46
 1280 636 1280 636 1270 658 c 0,47,48
 1252 692 1252 692 1192 692 c 0,49,50
 1100 692 1100 692 1100 552 c 2,51,-1
 1100 164 l 2,52,53
 1100 52 1100 52 1160 34 c 1,54,55
 1184 22 1184 22 1184 10 c 256,56,57
 1184 -2 1184 -2 1142 -2 c 2,58,-1
 534 -2 l 2,59,60
 498 -2 498 -2 496 12 c 0,61,62
 496 24 496 24 518 26 c 0,63,64
 616 46 616 46 664 112 c 0,65,66
 724 196 724 196 724 376 c 0,67,68
 724 538 724 538 651 629 c 128,-1,69
 578 720 578 720 458 720 c 0,70,71
 142 720 142 720 100 384 c 1,72,73
 154 544 154 544 308 544 c 0,74,75
 426 544 426 544 491 468 c 128,-1,76
 556 392 556 392 556 266 c 0,77,78
 556 150 556 150 470 73 c 128,-1,79
 384 -4 384 -4 270 -4 c 0,80,81
 150 -4 150 -4 82 100 c 1,82,83
 26 194 26 194 26 332 c 0,84,85
 26 526 26 526 124 644 c 0,86,87
 246 790 246 790 500 790 c 0,88,89
 686 790 686 790 800 690 c 0,90,91
 926 578 926 578 926 374 c 0,92,93
 926 268 926 268 870 174 c 0,94,95
 828 98 828 98 782 78 c 1,96,97
 836 72 836 72 874 72 c 0,98,99
 942 72 942 72 976 92 c 0,100,101
 1028 128 1028 128 1028 220 c 2,102,-1
 1028 532 l 2,103,104
 1028 644 1028 644 1064 696 c 0,105,106
 1114 764 1114 764 1252 764 c 0,107,108
 1392 764 1392 764 1458 684 c 1,109,110
 1500 766 1500 766 1652 766 c 0,111,112
 1796 766 1796 766 1868 650 c 0,113,114
 1930 548 1930 548 1930 384 c 0,0,1
356 246 m 0,115,116
 356 430 356 430 244 430 c 0,117,118
 122 430 122 430 122 244 c 0,119,120
 122 80 122 80 242 80 c 0,121,122
 356 80 356 80 356 246 c 0,115,116
EndSplineSet
EndChar

StartChar: tm_aakaar
Encoding: 3006 3006 84
Width: 922
GlyphClass: 2
Flags: W
LayerCount: 2
Fore
SplineSet
940 552 m 2,0,1
 946 540 946 540 938 534 c 0,2,3
 926 530 926 530 914 550 c 1,4,5
 900 594 900 594 834 644 c 0,6,7
 760 696 760 696 692 696 c 0,8,9
 616 696 616 696 616 586 c 2,10,-1
 616 138 l 2,11,12
 616 74 616 74 652 38 c 0,13,14
 664 26 664 26 738 26 c 0,15,16
 756 26 756 26 760 14 c 1,17,18
 760 -4 760 -4 740 -4 c 2,19,-1
 304 -4 l 2,20,21
 280 -4 280 -4 278 10 c 0,22,23
 278 22 278 22 300 22 c 0,24,25
 346 22 346 22 368 34 c 0,26,27
 418 60 418 60 418 152 c 2,28,-1
 418 594 l 2,29,30
 418 702 418 702 296 702 c 0,31,32
 152 702 152 702 152 574 c 2,33,-1
 152 154 l 2,34,35
 152 26 152 26 232 26 c 0,36,37
 256 26 256 26 258 12 c 0,38,39
 258 2 258 2 234 -2 c 1,40,-1
 -44 -2 l 2,41,42
 -72 -2 -72 -2 -72 14 c 0,43,44
 -72 26 -72 26 -40 28 c 0,45,46
 82 28 82 28 82 124 c 2,47,-1
 82 600 l 2,48,49
 82 748 82 748 -24 748 c 0,50,51
 -62 748 -62 748 -64 758 c 1,52,-1
 -58 768 l 1,53,-1
 -40 768 l 1,54,-1
 -22 766 l 1,55,-1
 750 766 l 2,56,57
 794 766 794 766 810 788 c 2,58,-1
 826 812 l 1,59,60
 838 798 838 798 842 786 c 2,61,-1
 940 552 l 2,0,1
EndSplineSet
EndChar

StartChar: tm_ikaar
Encoding: 3007 3007 85
Width: 424
GlyphClass: 2
Flags: W
LayerCount: 2
Fore
SplineSet
214 8 m 1,0,-1
 72 8 l 1,1,-1
 72 818 l 2,2,3
 72 1082 72 1082 -84 1082 c 2,4,-1
 -138 1082 l 2,5,6
 -202 1082 -202 1082 -247 1031 c 128,-1,7
 -292 980 -292 980 -292 908 c 2,8,-1
 -292 870 l 2,9,10
 -292 840 -292 840 -282 818 c 128,-1,11
 -272 796 -272 796 -244 772 c 1,12,-1
 -398 772 l 1,13,14
 -414 788 -414 788 -426 818 c 1,15,-1
 -436 870 l 1,16,-1
 -436 908 l 2,17,18
 -436 972 -436 972 -418 1019 c 128,-1,19
 -400 1066 -400 1066 -356 1108 c 0,20,21
 -276 1188 -276 1188 -138 1188 c 2,22,-1
 -84 1188 l 2,23,24
 54 1188 54 1188 134 1083 c 128,-1,25
 214 978 214 978 214 818 c 2,26,-1
 214 8 l 1,0,-1
EndSplineSet
EndChar

StartChar: tm_iikaar
Encoding: 3008 3008 86
Width: 0
GlyphClass: 4
Flags: W
LayerCount: 2
Fore
SplineSet
-96 1074 m 2,0,1
 -96 1038 -96 1038 -140 994 c 0,2,3
 -182 956 -182 956 -232 956 c 2,4,-1
 -304 956 l 2,5,6
 -370 956 -370 956 -411 1000 c 128,-1,7
 -452 1044 -452 1044 -452 1112 c 2,8,-1
 -452 1148 l 1,9,-1
 -444 1172 l 1,10,11
 -462 1170 -462 1170 -474 1163 c 128,-1,12
 -486 1156 -486 1156 -510 1136 c 0,13,14
 -552 1100 -552 1100 -552 1054 c 2,15,-1
 -552 1016 l 2,16,17
 -552 994 -552 994 -549 982 c 128,-1,18
 -546 970 -546 970 -534 944 c 0,19,20
 -526 920 -526 920 -517 905 c 128,-1,21
 -508 890 -508 890 -488 864 c 1,22,-1
 -636 864 l 1,23,-1
 -658 902 l 1,24,-1
 -674 940 l 2,25,26
 -692 992 -692 992 -692 1016 c 2,27,-1
 -692 1074 l 2,28,29
 -692 1116 -692 1116 -673 1151 c 128,-1,30
 -654 1186 -654 1186 -612 1220 c 0,31,32
 -534 1284 -534 1284 -436 1284 c 2,33,-1
 -332 1284 l 2,34,35
 -252 1284 -252 1284 -174 1238 c 128,-1,36
 -96 1192 -96 1192 -96 1126 c 2,37,-1
 -96 1074 l 2,0,1
-240 1110 m 1,38,-1
 -240 1144 l 2,39,40
 -240 1162 -240 1162 -246 1166 c 2,41,-1
 -262 1182 l 1,42,-1
 -288 1188 l 1,43,44
 -306 1188 -306 1188 -317 1179 c 128,-1,45
 -328 1170 -328 1170 -334 1144 c 1,46,-1
 -334 1110 l 2,47,48
 -334 1090 -334 1090 -322 1078 c 128,-1,49
 -310 1066 -310 1066 -286 1062 c 0,50,51
 -276 1062 -276 1062 -260 1073 c 128,-1,52
 -244 1084 -244 1084 -240 1110 c 1,38,-1
EndSplineSet
EndChar

StartChar: tm_ukaar
Encoding: 3009 3009 87
Width: 601
GlyphClass: 4
Flags: W
LayerCount: 2
Fore
SplineSet
524 364 m 1,0,-1
 68 364 l 1,1,-1
 68 672 l 1,2,-1
 -278 672 l 1,3,-1
 -278 764 l 1,4,-1
 524 764 l 1,5,-1
 524 364 l 1,0,-1
398 452 m 1,6,-1
 398 672 l 1,7,-1
 198 672 l 1,8,-1
 198 452 l 1,9,-1
 398 452 l 1,6,-1
EndSplineSet
EndChar

StartChar: tm_uukaar
Encoding: 3010 3010 88
Width: 1005
GlyphClass: 4
Flags: W
LayerCount: 2
Fore
SplineSet
922 472 m 2,0,1
 922 278 922 278 832 168 c 0,2,3
 700 0 700 0 374 0 c 0,4,5
 286 0 286 0 164 62 c 0,6,7
 30 134 30 134 -44 252 c 1,8,-1
 12 306 l 1,9,10
 76 210 76 210 170 156 c 0,11,12
 180 152 180 152 215 138 c 128,-1,13
 250 124 250 124 283 115 c 128,-1,14
 316 106 316 106 374 106 c 0,15,16
 628 106 628 106 726 218 c 0,17,18
 794 296 794 296 794 452 c 2,19,-1
 794 652 l 2,20,21
 794 788 794 788 708 895 c 128,-1,22
 622 1002 622 1002 502 1002 c 0,23,24
 390 1002 390 1002 318 936 c 128,-1,25
 246 870 246 870 246 764 c 1,26,-1
 574 764 l 1,27,-1
 574 364 l 1,28,-1
 120 364 l 1,29,-1
 120 672 l 1,30,-1
 -244 672 l 1,31,-1
 -244 764 l 1,32,-1
 120 764 l 1,33,34
 120 916 120 916 226 1012 c 128,-1,35
 332 1108 332 1108 520 1108 c 0,36,37
 692 1108 692 1108 816 976 c 1,38,39
 922 854 922 854 922 692 c 2,40,-1
 922 472 l 2,0,1
446 452 m 1,41,-1
 446 672 l 1,42,-1
 246 672 l 1,43,-1
 246 452 l 1,44,-1
 446 452 l 1,41,-1
EndSplineSet
EndChar

StartChar: tm_ekaar
Encoding: 3014 3014 89
Width: 1016
GlyphClass: 2
Flags: W
LayerCount: 2
Fore
SplineSet
1054 20 m 0,0,1
 1072 20 1072 20 1074 10 c 1,2,3
 1068 4 1068 4 1062 3 c 128,-1,4
 1056 2 1056 2 1044 0 c 2,5,-1
 602 0 l 2,6,7
 578 0 578 0 574 12 c 1,8,9
 586 22 586 22 594 22 c 0,10,11
 730 22 730 22 730 134 c 2,12,-1
 730 562 l 2,13,14
 730 826 730 826 464 826 c 0,15,16
 266 826 266 826 170 686 c 0,17,18
 132 628 132 628 115 550 c 128,-1,19
 98 472 98 472 98 364 c 1,20,21
 116 442 116 442 178 492 c 128,-1,22
 240 542 240 542 322 542 c 0,23,24
 566 542 566 542 566 264 c 0,25,26
 566 148 566 148 493 73 c 128,-1,27
 420 -2 420 -2 296 -2 c 0,28,29
 26 -2 26 -2 26 404 c 0,30,31
 26 630 26 630 146 766 c 128,-1,32
 266 902 266 902 492 902 c 0,33,34
 700 902 700 902 812 805 c 128,-1,35
 924 708 924 708 924 542 c 2,36,-1
 924 136 l 2,37,38
 924 74 924 74 949 47 c 128,-1,39
 974 20 974 20 1054 20 c 0,0,1
358 280 m 0,40,41
 358 458 358 458 252 458 c 0,42,43
 136 458 136 458 136 254 c 0,44,45
 136 190 136 190 162 132 c 128,-1,46
 188 74 188 74 248 74 c 0,47,48
 358 74 358 74 358 280 c 0,40,41
EndSplineSet
EndChar

StartChar: tm_eekaar
Encoding: 3015 3015 90
Width: 948
GlyphClass: 2
Flags: W
LayerCount: 2
Fore
SplineSet
908 262 m 0,0,1
 908 120 908 120 800 38 c 128,-1,2
 692 -44 692 -44 518 -44 c 0,3,4
 26 -44 26 -44 26 506 c 0,5,6
 26 792 26 792 126 928 c 0,7,8
 240 1088 240 1088 518 1088 c 0,9,10
 862 1088 862 1088 862 802 c 0,11,12
 862 688 862 688 782 628 c 0,13,14
 710 574 710 574 590 574 c 0,15,16
 492 574 492 574 431 637 c 128,-1,17
 370 700 370 700 370 810 c 0,18,19
 370 868 370 868 397 924 c 128,-1,20
 424 980 424 980 464 1012 c 1,21,22
 326 1000 326 1000 272 848 c 0,23,24
 232 734 232 734 232 524 c 0,25,26
 232 278 232 278 303 150 c 128,-1,27
 374 22 374 22 514 22 c 1,28,29
 396 104 396 104 396 244 c 0,30,31
 396 532 396 532 664 532 c 0,32,33
 778 532 778 532 843 461 c 128,-1,34
 908 390 908 390 908 262 c 0,0,1
674 814 m 0,35,36
 674 990 674 990 574 990 c 0,37,38
 508 990 508 990 472 918 c 0,39,40
 450 868 450 868 450 814 c 0,41,42
 450 750 450 750 480 704 c 128,-1,43
 510 658 510 658 566 658 c 0,44,45
 618 658 618 658 652 718 c 1,46,47
 674 766 674 766 674 814 c 0,35,36
710 254 m 0,48,49
 710 432 710 432 594 432 c 0,50,51
 540 432 540 432 507 379 c 128,-1,52
 474 326 474 326 474 252 c 0,53,54
 474 174 474 174 507 122 c 128,-1,55
 540 70 540 70 602 70 c 0,56,57
 710 70 710 70 710 254 c 0,48,49
EndSplineSet
EndChar

StartChar: tm_aikaar
Encoding: 3016 3016 91
Width: 1480
GlyphClass: 2
Flags: W
LayerCount: 2
Fore
SplineSet
1452 366 m 0,0,1
 1452 192 1452 192 1364 90 c 0,2,3
 1270 -24 1270 -24 1102 -24 c 0,4,5
 1036 -24 1036 -24 1024 2 c 1,6,7
 1016 32 1016 32 1044 34 c 0,8,9
 1150 34 1150 34 1210 138 c 0,10,11
 1256 218 1256 218 1256 340 c 0,12,13
 1256 516 1256 516 1178 612 c 0,14,15
 1112 694 1112 694 1004 694 c 0,16,17
 964 694 964 694 924 680 c 1,18,19
 1074 562 1074 562 1074 338 c 0,20,21
 1074 192 1074 192 1008 92 c 0,22,23
 932 -18 932 -18 800 -18 c 0,24,25
 684 -18 684 -18 622 98 c 0,26,27
 572 194 572 194 572 338 c 0,28,29
 572 426 572 426 612 519 c 128,-1,30
 652 612 652 612 726 674 c 1,31,32
 652 706 652 706 524 706 c 0,33,34
 382 706 382 706 293 657 c 128,-1,35
 204 608 204 608 153 529 c 128,-1,36
 102 450 102 450 102 346 c 1,37,38
 148 512 148 512 320 512 c 0,39,40
 438 512 438 512 500 432 c 0,41,42
 528 396 528 396 542 352 c 128,-1,43
 556 308 556 308 556 248 c 0,44,45
 556 122 556 122 482 50 c 128,-1,46
 408 -22 408 -22 294 -22 c 0,47,48
 162 -22 162 -22 94 73 c 128,-1,49
 26 168 26 168 26 314 c 0,50,51
 26 770 26 770 572 770 c 0,52,53
 722 770 722 770 824 736 c 1,54,55
 926 764 926 764 1050 764 c 0,56,57
 1246 764 1246 764 1352 652 c 0,58,59
 1452 548 1452 548 1452 366 c 0,0,1
872 332 m 0,60,61
 872 530 872 530 782 630 c 1,62,63
 656 542 656 542 656 304 c 0,64,65
 656 228 656 228 692 147 c 128,-1,66
 728 66 728 66 766 66 c 0,67,68
 872 66 872 66 872 332 c 0,60,61
352 240 m 0,69,70
 352 414 352 414 242 414 c 0,71,72
 190 414 190 414 154 354 c 0,73,74
 126 302 126 302 126 230 c 0,75,76
 126 172 126 172 162 112 c 0,77,78
 198 58 198 58 248 58 c 0,79,80
 352 58 352 58 352 240 c 0,69,70
EndSplineSet
EndChar

StartChar: tm_halant
Encoding: 3021 3021 95
Width: 0
GlyphClass: 4
Flags: W
LayerCount: 2
Fore
SplineSet
-388 1110 m 0,0,1
 -388 1058 -388 1058 -422 1022 c 1,2,3
 -460 988 -460 988 -516 988 c 0,4,5
 -574 988 -574 988 -605 1023 c 128,-1,6
 -636 1058 -636 1058 -636 1116 c 0,7,8
 -636 1170 -636 1170 -599 1202 c 128,-1,9
 -562 1234 -562 1234 -512 1234 c 0,10,11
 -456 1234 -456 1234 -422 1196 c 128,-1,12
 -388 1158 -388 1158 -388 1110 c 0,0,1
EndSplineSet
EndChar

StartChar: tm_two
Encoding: 3048 3048 98
Width: 1425
GlyphClass: 2
Flags: W
LayerCount: 2
Fore
SplineSet
1244 70 m 1,0,-1
 1226 0 l 1,1,-1
 586 0 l 2,2,3
 429 0 429 0 429 106 c 0,4,5
 429 153 429 153 478 181.5 c 128,-1,6
 527 210 527 210 586 210 c 2,7,-1
 779 210 l 2,8,9
 867 210 867 210 928 271.5 c 128,-1,10
 989 333 989 333 989 420 c 0,11,12
 989 500 989 500 945 560.5 c 128,-1,13
 901 621 901 621 831 621 c 0,14,15
 793 621 793 621 744 595 c 1,16,17
 814 555 814 555 814 437 c 0,18,19
 814 382 814 382 772.5 344.5 c 128,-1,20
 731 307 731 307 675 307 c 0,21,22
 618 307 618 307 580 351 c 128,-1,23
 542 395 542 395 542 455 c 0,24,25
 542 565 542 565 646.5 632.5 c 128,-1,26
 751 700 751 700 884 700 c 0,27,28
 987 700 987 700 1058 629 c 128,-1,29
 1129 558 1129 558 1129 455 c 0,30,31
 1129 321 1129 321 1025.5 230.5 c 128,-1,32
 922 140 922 140 779 140 c 2,33,-1
 595 140 l 2,34,35
 551 140 551 140 551 106 c 0,36,37
 551 70 551 70 604 70 c 2,38,-1
 1244 70 l 1,0,-1
675 560 m 1,39,40
 621 516 621 516 621 473 c 0,41,42
 621 386 621 386 666 386 c 0,43,44
 709 386 709 386 709 473 c 0,45,46
 709 518 709 518 675 560 c 1,39,40
EndSplineSet
EndChar

StartChar: tm_three
Encoding: 3049 3049 99
Width: 1424
GlyphClass: 2
Flags: W
LayerCount: 2
Fore
SplineSet
1270 70 m 1,0,-1
 1252 0 l 1,1,-1
 640 0 l 1,2,-1
 657 70 l 1,3,-1
 780 70 l 2,4,5
 874 70 874 70 941 130.5 c 128,-1,6
 1008 191 1008 191 1008 280 c 0,7,8
 1008 317 1008 317 982.5 342.5 c 128,-1,9
 957 368 957 368 920 368 c 0,10,11
 890 368 890 368 865 341 c 128,-1,12
 840 314 840 314 833 280 c 2,13,-1
 815 193 l 1,14,-1
 675 193 l 1,15,-1
 764 630 l 1,16,-1
 571 630 l 1,17,-1
 444 0 l 1,18,-1
 378 0 l 1,19,-1
 517 700 l 1,20,-1
 1095 700 l 1,21,-1
 1077 630 l 1,22,-1
 902 630 l 1,23,-1
 859 403 l 1,24,25
 918 455 918 455 990 455 c 0,26,27
 1057 455 1057 455 1102.5 403.5 c 128,-1,28
 1148 352 1148 352 1148 280 c 0,29,30
 1148 209 1148 209 1090 151 c 128,-1,31
 1032 93 1032 93 947 70 c 1,32,-1
 1270 70 l 1,0,-1
EndSplineSet
EndChar

StartChar: tm_four
Encoding: 3050 3050 100
Width: 1427
GlyphClass: 2
Flags: W
LayerCount: 2
Fore
SplineSet
915 316 m 1,0,-1
 644 316 l 2,1,2
 601 316 601 316 570.5 291 c 128,-1,3
 540 266 540 266 540 228 c 0,4,5
 540 158 540 158 609.5 114 c 128,-1,6
 679 70 679 70 766 70 c 0,7,8
 811 70 811 70 844 99.5 c 128,-1,9
 877 129 877 129 887 175 c 2,10,-1
 915 316 l 1,0,-1
979 630 m 1,11,-1
 784 630 l 1,12,-1
 735 386 l 1,13,-1
 930 386 l 1,14,-1
 979 630 l 1,11,-1
1042 245 m 2,15,16
 1017 125 1017 125 940 62.5 c 128,-1,17
 863 0 863 0 766 0 c 0,18,19
 651 0 651 0 559.5 64 c 128,-1,20
 468 128 468 128 468 228 c 0,21,22
 468 294 468 294 520.5 340 c 128,-1,23
 573 386 573 386 644 386 c 2,24,-1
 669 386 l 1,25,-1
 731 700 l 1,26,-1
 1344 700 l 1,27,-1
 1329 630 l 1,28,-1
 1118 630 l 1,29,-1
 1068 386 l 1,30,-1
 1232 386 l 1,31,-1
 1248 464 l 1,32,-1
 1309 464 l 1,33,-1
 1279 316 l 1,34,-1
 1055 316 l 1,35,-1
 1042 245 l 2,15,16
EndSplineSet
EndChar

StartChar: tm_five
Encoding: 3051 3051 101
Width: 1424
GlyphClass: 2
Flags: W
LayerCount: 2
Fore
SplineSet
1412 517 m 1,0,-1
 1359 526 l 1,1,2
 1369 563 1369 563 1369 598 c 0,3,4
 1369 723 1369 723 1253.5 825.5 c 128,-1,5
 1138 928 1138 928 965 928 c 0,6,7
 728 928 728 928 575.5 716 c 128,-1,8
 423 504 423 504 423 228 c 0,9,10
 423 -43 423 -43 515 -179.5 c 128,-1,11
 607 -316 607 -316 790 -316 c 0,12,13
 979 -316 979 -316 1103.5 -163.5 c 128,-1,14
 1228 -11 1228 -11 1228 193 c 0,15,16
 1228 257 1228 257 1200 304.5 c 128,-1,17
 1172 352 1172 352 1126 352 c 0,18,19
 1099 352 1099 352 1072.5 336.5 c 128,-1,20
 1046 321 1046 321 1039 298 c 2,21,-1
 980 0 l 1,22,-1
 840 0 l 1,23,-1
 965 630 l 1,24,-1
 759 630 l 1,25,-1
 634 0 l 1,26,-1
 566 0 l 1,27,-1
 706 700 l 1,28,-1
 1237 700 l 1,29,-1
 1219 630 l 1,30,-1
 1105 630 l 1,31,-1
 1057 386 l 1,32,33
 1101 437 1101 437 1171 437 c 0,34,35
 1261 437 1261 437 1314.5 368.5 c 128,-1,36
 1368 300 1368 300 1368 193 c 0,37,38
 1368 -47 1368 -47 1202.5 -216 c 128,-1,39
 1037 -385 1037 -385 799 -385 c 0,40,41
 589 -385 589 -385 471.5 -223 c 128,-1,42
 354 -61 354 -61 354 193 c 0,43,44
 354 513 354 513 519 764 c 128,-1,45
 684 1015 684 1015 948 1015 c 0,46,47
 1152 1015 1152 1015 1288.5 889.5 c 128,-1,48
 1425 764 1425 764 1425 613 c 0,49,50
 1425 566 1425 566 1412 517 c 1,0,-1
EndSplineSet
EndChar

StartChar: tm_six
Encoding: 3052 3052 102
Width: 1424
GlyphClass: 2
Flags: W
LayerCount: 2
Fore
SplineSet
784 316 m 1,0,-1
 513 316 l 2,1,2
 469 316 469 316 438 291 c 128,-1,3
 407 266 407 266 407 228 c 0,4,5
 407 158 407 158 477 114 c 128,-1,6
 547 70 547 70 635 70 c 0,7,8
 680 70 680 70 713 99.5 c 128,-1,9
 746 129 746 129 756 175 c 2,10,-1
 784 316 l 1,0,-1
846 630 m 1,11,-1
 653 630 l 1,12,-1
 603 386 l 1,13,-1
 798 386 l 1,14,-1
 846 630 l 1,11,-1
910 245 m 2,15,16
 884 125 884 125 808 62.5 c 128,-1,17
 732 0 732 0 635 0 c 0,18,19
 518 0 518 0 428 64 c 128,-1,20
 338 128 338 128 338 228 c 0,21,22
 338 294 338 294 389.5 340 c 128,-1,23
 441 386 441 386 513 386 c 2,24,-1
 537 386 l 1,25,-1
 600 700 l 1,26,-1
 1229 700 l 1,27,-1
 1213 630 l 1,28,-1
 988 630 l 1,29,-1
 938 386 l 1,30,-1
 1422 386 l 1,31,-1
 1410 316 l 1,32,-1
 1353 316 l 1,33,-1
 1291 0 l 1,34,-1
 1151 0 l 1,35,-1
 1213 316 l 1,36,-1
 1116 316 l 1,37,-1
 1055 0 l 1,38,-1
 967 0 l 1,39,-1
 1028 316 l 1,40,-1
 924 316 l 1,41,-1
 910 245 l 2,15,16
EndSplineSet
EndChar

StartChar: tm_seven
Encoding: 3053 3053 103
Width: 1425
GlyphClass: 2
Flags: W
LayerCount: 2
Fore
SplineSet
643 88 m 1,0,1
 706 88 706 88 753 128 c 128,-1,2
 800 168 800 168 800 228 c 0,3,4
 800 269 800 269 781 301 c 128,-1,5
 762 333 762 333 729 333 c 0,6,7
 684 333 684 333 654.5 296.5 c 128,-1,8
 625 260 625 260 625 210 c 0,9,10
 625 135 625 135 643 88 c 1,0,1
1042 0 m 1,11,-1
 1167 630 l 1,12,-1
 852 630 l 2,13,14
 704 630 704 630 594.5 540.5 c 128,-1,15
 485 451 485 451 485 316 c 0,16,17
 485 247 485 247 507 194.5 c 128,-1,18
 529 142 529 142 572 106 c 1,19,20
 555 135 555 135 555 228 c 256,21,22
 555 321 555 321 614.5 388 c 128,-1,23
 674 455 674 455 765 455 c 0,24,25
 837 455 837 455 884 398 c 128,-1,26
 931 341 931 341 931 263 c 0,27,28
 931 155 931 155 863 77.5 c 128,-1,29
 795 0 795 0 695 0 c 0,30,31
 576 0 576 0 495.5 94 c 128,-1,32
 415 188 415 188 415 316 c 0,33,34
 415 481 415 481 545.5 590.5 c 128,-1,35
 676 700 676 700 852 700 c 2,36,-1
 1430 700 l 1,37,-1
 1412 630 l 1,38,-1
 1307 630 l 1,39,-1
 1181 0 l 1,40,-1
 1042 0 l 1,11,-1
EndSplineSet
EndChar

StartChar: tm_eight
Encoding: 3054 3054 104
Width: 1427
GlyphClass: 2
Flags: W
LayerCount: 2
Fore
SplineSet
849 629 m 1,0,1
 745 611 745 611 670 548.5 c 128,-1,2
 595 486 595 486 595 402 c 0,3,4
 595 338 595 338 638.5 291 c 128,-1,5
 682 244 682 244 744 244 c 0,6,7
 817 244 817 244 864 307.5 c 128,-1,8
 911 371 911 371 911 454 c 0,9,10
 911 580 911 580 849 629 c 1,0,1
1024 140 m 1,11,-1
 411 140 l 2,12,13
 381 140 381 140 357 125 c 128,-1,14
 333 110 333 110 333 87 c 0,15,16
 333 43 333 43 412 -13.5 c 128,-1,17
 491 -70 491 -70 639 -70 c 0,18,19
 743 -70 743 -70 839.5 -18 c 128,-1,20
 936 34 936 34 1024 140 c 1,11,-1
1414 -245 m 1,21,-1
 1269 -245 l 1,22,-1
 1348 140 l 1,23,-1
 1164 140 l 1,24,25
 1051 4 1051 4 915 -63.5 c 128,-1,26
 779 -131 779 -131 621 -131 c 0,27,28
 421 -131 421 -131 311.5 -52.5 c 128,-1,29
 202 26 202 26 202 123 c 0,30,31
 202 160 202 160 233 184.5 c 128,-1,32
 264 209 264 209 307 209 c 2,33,-1
 666 209 l 1,34,35
 604 231 604 231 565 284.5 c 128,-1,36
 526 338 526 338 526 402 c 0,37,38
 526 534 526 534 652 617 c 128,-1,39
 778 700 778 700 937 700 c 0,40,41
 1069 700 1069 700 1169 620.5 c 128,-1,42
 1269 541 1269 541 1269 420 c 0,43,44
 1269 306 1269 306 1213 209 c 1,45,-1
 1364 209 l 1,46,-1
 1463 700 l 1,47,-1
 1603 700 l 1,48,-1
 1414 -245 l 1,21,-1
989 620 m 1,49,50
 1042 530 1042 530 1042 411 c 0,51,52
 1042 267 1042 267 919 209 c 1,53,-1
 1077 209 l 1,54,55
 1146 308 1146 308 1146 402 c 0,56,57
 1146 486 1146 486 1103 553 c 128,-1,58
 1060 620 1060 620 989 620 c 1,49,50
EndSplineSet
EndChar

StartChar: tm_nine
Encoding: 3055 3055 105
Width: 1427
GlyphClass: 2
Flags: W
LayerCount: 2
Fore
SplineSet
692 316 m 1,0,-1
 422 316 l 2,1,2
 379 316 379 316 348 291 c 128,-1,3
 317 266 317 266 317 228 c 0,4,5
 317 158 317 158 387 114 c 128,-1,6
 457 70 457 70 544 70 c 0,7,8
 589 70 589 70 622 99.5 c 128,-1,9
 655 129 655 129 665 175 c 2,10,-1
 692 316 l 1,0,-1
756 630 m 1,11,-1
 562 630 l 1,12,-1
 513 386 l 1,13,-1
 707 386 l 1,14,-1
 756 630 l 1,11,-1
1157 175 m 0,15,16
 1157 259 1157 259 1052 298 c 1,17,18
 982 240 982 240 982 158 c 0,19,20
 982 121 982 121 1007.5 95.5 c 128,-1,21
 1033 70 1033 70 1068 70 c 0,22,23
 1107 70 1107 70 1132 101.5 c 128,-1,24
 1157 133 1157 133 1157 175 c 0,15,16
1297 0 m 1,25,26
 1375 93 1375 93 1375 193 c 0,27,28
 1375 263 1375 263 1332.5 315.5 c 128,-1,29
 1290 368 1290 368 1226 368 c 0,30,31
 1163 368 1163 368 1113 342 c 1,32,33
 1167 322 1167 322 1201 276.5 c 128,-1,34
 1235 231 1235 231 1235 175 c 0,35,36
 1235 104 1235 104 1187 52 c 128,-1,37
 1139 0 1139 0 1068 0 c 0,38,39
 1005 0 1005 0 958.5 46.5 c 128,-1,40
 912 93 912 93 912 158 c 0,41,42
 912 257 912 257 982 316 c 1,43,-1
 833 316 l 1,44,-1
 819 245 l 2,45,46
 795 125 795 125 718.5 62.5 c 128,-1,47
 642 0 642 0 544 0 c 0,48,49
 428 0 428 0 337 64 c 128,-1,50
 246 128 246 128 246 228 c 0,51,52
 246 294 246 294 299 340 c 128,-1,53
 352 386 352 386 422 386 c 2,54,-1
 446 386 l 1,55,-1
 508 700 l 1,56,-1
 1122 700 l 1,57,-1
 1104 630 l 1,58,-1
 896 630 l 1,59,-1
 847 386 l 1,60,-1
 947 386 l 2,61,62
 1014 386 1014 386 1052 368 c 1,63,64
 1111 420 1111 420 1226 420 c 0,65,66
 1327 420 1327 420 1399.5 354.5 c 128,-1,67
 1472 289 1472 289 1472 193 c 0,68,69
 1472 109 1472 109 1410 0 c 1,70,-1
 1297 0 l 1,25,26
EndSplineSet
EndChar

StartChar: tm_ten
Encoding: 3056 3056 106
Width: 1260
GlyphClass: 2
Flags: W
LayerCount: 2
Fore
SplineSet
597 149 m 1,0,1
 558 74 558 74 508 37 c 128,-1,2
 458 0 458 0 395 0 c 0,3,4
 302 0 302 0 242 64 c 128,-1,5
 182 128 182 128 182 200 c 0,6,7
 182 224 182 224 186 244 c 2,8,-1
 279 700 l 1,9,-1
 419 700 l 1,10,-1
 325 244 l 2,11,12
 320 223 320 223 320 205 c 0,13,14
 320 155 320 155 346.5 112.5 c 128,-1,15
 373 70 373 70 413 70 c 0,16,17
 472 70 472 70 525 146 c 128,-1,18
 578 222 578 222 606 359 c 2,19,-1
 675 700 l 1,20,-1
 815 700 l 1,21,-1
 746 351 l 2,22,23
 728 262 728 262 728 204 c 0,24,25
 728 150 728 150 760.5 110 c 128,-1,26
 793 70 793 70 841 70 c 0,27,28
 957 70 957 70 1026 204 c 128,-1,29
 1095 338 1095 338 1095 500 c 0,30,31
 1095 691 1095 691 995.5 840 c 128,-1,32
 896 989 896 989 737 989 c 1,33,-1
 755 1042 l 1,34,35
 960 1042 960 1042 1097.5 880.5 c 128,-1,36
 1235 719 1235 719 1235 500 c 0,37,38
 1235 300 1235 300 1118.5 150 c 128,-1,39
 1002 0 1002 0 824 0 c 0,40,41
 739 0 739 0 673.5 40.5 c 128,-1,42
 608 81 608 81 597 149 c 1,0,1
EndSplineSet
EndChar

StartChar: tm_hundred
Encoding: 3057 3057 107
Width: 1166
GlyphClass: 2
Flags: W
LayerCount: 2
Fore
SplineSet
1284 700 m 1,0,-1
 1267 629 l 1,1,-1
 1117 629 l 1,2,-1
 991 0 l 1,3,-1
 851 0 l 1,4,-1
 977 629 l 1,5,-1
 770 629 l 1,6,-1
 644 0 l 1,7,-1
 504 0 l 1,8,-1
 599 472 l 2,9,10
 606 507 606 507 606 534 c 0,11,12
 606 579 606 579 589 613 c 128,-1,13
 572 647 572 647 540 647 c 0,14,15
 483 647 483 647 440 595.5 c 128,-1,16
 397 544 397 544 382 472 c 2,17,-1
 285 0 l 1,18,-1
 146 0 l 1,19,-1
 242 472 l 2,20,21
 263 577 263 577 336.5 647 c 128,-1,22
 410 717 410 717 503 717 c 0,23,24
 567 717 567 717 614 679.5 c 128,-1,25
 661 642 661 642 661 585 c 1,26,-1
 685 700 l 1,27,-1
 1284 700 l 1,0,-1
EndSplineSet
EndChar

StartChar: tm_thousand
Encoding: 3058 3058 108
Width: 1256
GlyphClass: 2
Flags: W
LayerCount: 2
Fore
SplineSet
551 316 m 1,0,-1
 280 316 l 2,1,2
 237 316 237 316 206 291 c 128,-1,3
 175 266 175 266 175 228 c 0,4,5
 175 158 175 158 245.5 114 c 128,-1,6
 316 70 316 70 402 70 c 0,7,8
 447 70 447 70 480 99.5 c 128,-1,9
 513 129 513 129 523 175 c 2,10,-1
 551 316 l 1,0,-1
615 630 m 1,11,-1
 420 630 l 1,12,-1
 371 386 l 1,13,-1
 565 386 l 1,14,-1
 615 630 l 1,11,-1
677 245 m 2,15,16
 653 125 653 125 576 62.5 c 128,-1,17
 499 0 499 0 402 0 c 0,18,19
 285 0 285 0 195 64 c 128,-1,20
 105 128 105 128 105 228 c 0,21,22
 105 294 105 294 156.5 340 c 128,-1,23
 208 386 208 386 280 386 c 2,24,-1
 304 386 l 1,25,-1
 367 700 l 1,26,-1
 997 700 l 1,27,-1
 983 630 l 1,28,-1
 755 630 l 1,29,-1
 705 386 l 1,30,-1
 1120 386 l 1,31,-1
 1105 316 l 1,32,-1
 971 316 l 1,33,-1
 945 175 l 1,34,35
 990 228 990 228 1067 228 c 0,36,37
 1134 228 1134 228 1179.5 176 c 128,-1,38
 1225 124 1225 124 1225 53 c 0,39,40
 1225 -78 1225 -78 1108 -161 c 128,-1,41
 991 -244 991 -244 840 -244 c 0,42,43
 740 -244 740 -244 542 -205 c 0,44,45
 346 -167 346 -167 244 -167 c 0,46,47
 181 -167 181 -167 134 -206.5 c 128,-1,48
 87 -246 87 -246 87 -307 c 0,49,50
 87 -384 87 -384 158 -411 c 1,51,-1
 149 -445 l 1,52,53
 82 -433 82 -433 36.5 -387 c 128,-1,54
 -9 -341 -9 -341 -9 -280 c 0,55,56
 -9 -205 -9 -205 70.5 -159.5 c 128,-1,57
 150 -114 150 -114 244 -114 c 0,58,59
 346 -114 346 -114 542 -153 c 0,60,61
 740 -192 740 -192 840 -192 c 0,62,63
 938 -192 938 -192 1011.5 -135 c 128,-1,64
 1085 -78 1085 -78 1085 9 c 0,65,66
 1085 61 1085 61 1061 100.5 c 128,-1,67
 1037 140 1037 140 997 140 c 256,68,69
 957 140 957 140 927 88 c 1,70,-1
 910 0 l 1,71,-1
 769 0 l 1,72,-1
 831 316 l 1,73,-1
 691 316 l 1,74,-1
 677 245 l 2,15,16
EndSplineSet
EndChar

StartChar: zerowidthnonjoiner
Encoding: 8204 8204 109
Width: 0
GlyphClass: 2
Flags: W
LayerCount: 2
Fore
SplineSet
315 1225 m 1,0,-1
 -34 -516 l 1,1,-1
 -103 -516 l 1,2,-1
 244 1225 l 1,3,-1
 315 1225 l 1,0,-1
EndSplineSet
EndChar

StartChar: zerowidthjoiner
Encoding: 8205 8205 110
Width: 0
GlyphClass: 2
Flags: W
LayerCount: 2
Fore
SplineSet
415 997 m 1,0,-1
 363 953 l 1,1,-1
 270 1073 l 1,2,-1
 -24 -441 l 1,3,-1
 -87 -441 l 1,4,-1
 206 1073 l 1,5,-1
 65 953 l 1,6,-1
 32 997 l 1,7,-1
 210 1145 l 1,8,-1
 89 1292 l 1,9,-1
 140 1334 l 1,10,-1
 260 1185 l 1,11,-1
 437 1334 l 1,12,-1
 472 1292 l 1,13,-1
 294 1145 l 1,14,-1
 415 997 l 1,0,-1
EndSplineSet
EndChar

StartChar: u2013
Encoding: 8211 8211 111
Width: 722
GlyphClass: 2
Flags: W
LayerCount: 2
Fore
SplineSet
733 319 m 1,0,-1
 -12 319 l 1,1,-1
 -12 370 l 1,2,-1
 733 370 l 1,3,-1
 733 319 l 1,0,-1
EndSplineSet
EndChar

StartChar: u2014
Encoding: 8212 8212 112
Width: 1284
GlyphClass: 2
Flags: W
LayerCount: 2
Fore
SplineSet
1296 318 m 1,0,-1
 -13 319 l 1,1,-1
 -13 371 l 1,2,-1
 1296 370 l 1,3,-1
 1296 318 l 1,0,-1
EndSplineSet
EndChar

StartChar: u2018
Encoding: 65539 -1 113
Width: 356
GlyphClass: 2
Flags: W
LayerCount: 2
Fore
SplineSet
252 954 m 1,0,-1
 252 790 l 1,1,-1
 100 790 l 1,2,-1
 100 918 l 2,3,4
 100 974 100 974 104 1000 c 128,-1,5
 108 1026 108 1026 112 1038 c 128,-1,6
 116 1050 116 1050 124 1070 c 0,7,8
 162 1132 162 1132 228 1164 c 1,9,-1
 264 1110 l 1,10,11
 222 1094 222 1094 200 1054 c 128,-1,12
 178 1014 178 1014 178 954 c 1,13,-1
 252 954 l 1,0,-1
EndSplineSet
EndChar

StartChar: u2019
Encoding: 65540 -1 114
Width: 356
GlyphClass: 2
Flags: W
LayerCount: 2
Fore
SplineSet
98 994 m 1,0,-1
 98 1156 l 1,1,-1
 248 1156 l 1,2,-1
 248 1028 l 2,3,4
 248 930 248 930 224 876 c 0,5,6
 210 850 210 850 182 825 c 128,-1,7
 154 800 154 800 118 782 c 1,8,-1
 84 836 l 1,9,10
 122 850 122 850 146 892 c 0,11,12
 170 928 170 928 170 994 c 1,13,-1
 98 994 l 1,0,-1
EndSplineSet
EndChar

StartChar: u201C
Encoding: 65541 -1 115
Width: 532
GlyphClass: 2
Flags: W
LayerCount: 2
Fore
SplineSet
216 954 m 1,0,-1
 216 790 l 1,1,-1
 66 790 l 1,2,-1
 66 918 l 1,3,-1
 70 1008 l 1,4,5
 78 1046 78 1046 90 1070 c 0,6,7
 124 1130 124 1130 194 1164 c 1,8,-1
 228 1110 l 1,9,10
 186 1094 186 1094 164 1054 c 128,-1,11
 142 1014 142 1014 142 954 c 1,12,-1
 216 954 l 1,0,-1
458 954 m 1,13,-1
 458 790 l 1,14,-1
 308 790 l 1,15,-1
 308 918 l 2,16,17
 308 1030 308 1030 336 1079 c 128,-1,18
 364 1128 364 1128 436 1164 c 1,19,-1
 470 1110 l 1,20,21
 428 1094 428 1094 406 1054 c 128,-1,22
 384 1014 384 1014 384 954 c 1,23,-1
 458 954 l 1,13,-1
EndSplineSet
EndChar

StartChar: u201D
Encoding: 65542 -1 116
Width: 532
GlyphClass: 2
Flags: W
LayerCount: 2
Fore
SplineSet
68 994 m 1,0,-1
 68 1156 l 1,1,-1
 220 1156 l 1,2,-1
 220 1028 l 2,3,4
 220 930 220 930 196 876 c 1,5,6
 164 818 164 818 90 782 c 1,7,-1
 56 836 l 1,8,9
 92 850 92 850 116 892 c 0,10,11
 140 928 140 928 140 994 c 1,12,-1
 68 994 l 1,0,-1
310 994 m 1,13,-1
 310 1156 l 1,14,-1
 460 1156 l 1,15,-1
 460 1028 l 2,16,17
 460 930 460 930 436 876 c 1,18,19
 404 818 404 818 332 782 c 1,20,-1
 298 836 l 1,21,22
 336 850 336 850 360 892 c 128,-1,23
 384 934 384 934 384 994 c 1,24,-1
 310 994 l 1,13,-1
EndSplineSet
EndChar

StartChar: u2026
Encoding: 8230 8230 117
Width: 1283
GlyphClass: 2
Flags: W
LayerCount: 2
Fore
SplineSet
265 136 m 0,0,1
 298 136 298 136 320.5 114 c 128,-1,2
 343 92 343 92 343 58 c 0,3,4
 343 26 343 26 320.5 3 c 128,-1,5
 298 -20 298 -20 265 -20 c 0,6,7
 233 -20 233 -20 210 3 c 128,-1,8
 187 26 187 26 187 58 c 0,9,10
 187 92 187 92 210 114 c 128,-1,11
 233 136 233 136 265 136 c 0,0,1
638 136 m 256,12,13
 670 136 670 136 693 114 c 128,-1,14
 716 92 716 92 716 58 c 0,15,16
 716 26 716 26 692.5 3 c 128,-1,17
 669 -20 669 -20 638 -20 c 0,18,19
 606 -20 606 -20 583 3 c 128,-1,20
 560 26 560 26 560 58 c 0,21,22
 560 92 560 92 583 114 c 128,-1,23
 606 136 606 136 638 136 c 256,12,13
1010 136 m 0,24,25
 1043 136 1043 136 1066 114 c 128,-1,26
 1089 92 1089 92 1089 58 c 0,27,28
 1089 26 1089 26 1065.5 3 c 128,-1,29
 1042 -20 1042 -20 1010 -20 c 256,30,31
 978 -20 978 -20 955.5 3 c 128,-1,32
 933 26 933 26 933 58 c 0,33,34
 933 92 933 92 955.5 114 c 128,-1,35
 978 136 978 136 1010 136 c 0,24,25
EndSplineSet
EndChar

StartChar: u2212
Encoding: 8722 8722 118
Width: 974
GlyphClass: 2
Flags: W
LayerCount: 2
Fore
SplineSet
133 450 m 1,0,-1
 133 508 l 1,1,-1
 894 508 l 1,2,-1
 894 450 l 1,3,-1
 133 450 l 1,0,-1
EndSplineSet
EndChar

StartChar: u25CC
Encoding: 9676 9676 119
Width: 1167
GlyphClass: 2
Flags: W
LayerCount: 2
Fore
SplineSet
654 665 m 0,0,1
 626 665 626 665 612 679 c 128,-1,2
 598 693 598 693 598 724 c 0,3,4
 598 746 598 746 615 762.5 c 128,-1,5
 632 779 632 779 654 779 c 0,6,7
 683 779 683 779 697.5 765 c 128,-1,8
 712 751 712 751 712 724 c 0,9,10
 712 693 712 693 697.5 679 c 128,-1,11
 683 665 683 665 654 665 c 0,0,1
840 616 m 0,12,13
 811 616 811 616 796.5 630.5 c 128,-1,14
 782 645 782 645 782 674 c 0,15,16
 782 701 782 701 796.5 715 c 128,-1,17
 811 729 811 729 840 729 c 0,18,19
 862 729 862 729 879 713 c 128,-1,20
 896 697 896 697 896 674 c 0,21,22
 896 645 896 645 882 630.5 c 128,-1,23
 868 616 868 616 840 616 c 0,12,13
470 616 m 0,24,25
 442 616 442 616 428 630.5 c 128,-1,26
 414 645 414 645 414 674 c 0,27,28
 414 697 414 697 431 713 c 128,-1,29
 448 729 448 729 470 729 c 0,30,31
 494 729 494 729 510 713 c 128,-1,32
 526 697 526 697 526 674 c 0,33,34
 526 645 526 645 512.5 630.5 c 128,-1,35
 499 616 499 616 470 616 c 0,24,25
973 482 m 0,36,37
 951 482 951 482 933.5 498 c 128,-1,38
 916 514 916 514 916 538 c 0,39,40
 916 567 916 567 930.5 581 c 128,-1,41
 945 595 945 595 973 595 c 256,42,43
 1001 595 1001 595 1014.5 581 c 128,-1,44
 1028 567 1028 567 1028 538 c 0,45,46
 1028 514 1028 514 1012 498 c 128,-1,47
 996 482 996 482 973 482 c 0,36,37
336 482 m 0,48,49
 307 482 307 482 293 495.5 c 128,-1,50
 279 509 279 509 279 538 c 256,51,52
 279 567 279 567 293 581 c 128,-1,53
 307 595 307 595 336 595 c 0,54,55
 364 595 364 595 378 581 c 128,-1,56
 392 567 392 567 392 538 c 0,57,58
 392 514 392 514 375 498 c 128,-1,59
 358 482 358 482 336 482 c 0,48,49
1024 298 m 0,60,61
 994 298 994 298 979.5 311.5 c 128,-1,62
 965 325 965 325 965 354 c 0,63,64
 965 382 965 382 979.5 396 c 128,-1,65
 994 410 994 410 1024 410 c 0,66,67
 1046 410 1046 410 1063 393 c 128,-1,68
 1080 376 1080 376 1080 354 c 0,69,70
 1080 331 1080 331 1063 314.5 c 128,-1,71
 1046 298 1046 298 1024 298 c 0,60,61
287 298 m 0,72,73
 257 298 257 298 243 311.5 c 128,-1,74
 229 325 229 325 229 354 c 0,75,76
 229 382 229 382 243 396 c 128,-1,77
 257 410 257 410 287 410 c 0,78,79
 310 410 310 410 326.5 393 c 128,-1,80
 343 376 343 376 343 354 c 0,81,82
 343 331 343 331 326.5 314.5 c 128,-1,83
 310 298 310 298 287 298 c 0,72,73
973 112 m 256,84,85
 945 112 945 112 930.5 126.5 c 128,-1,86
 916 141 916 141 916 169 c 0,87,88
 916 193 916 193 933.5 209.5 c 128,-1,89
 951 226 951 226 973 226 c 0,90,91
 996 226 996 226 1012 209.5 c 128,-1,92
 1028 193 1028 193 1028 169 c 0,93,94
 1028 141 1028 141 1014.5 126.5 c 128,-1,95
 1001 112 1001 112 973 112 c 256,84,85
336 112 m 0,96,97
 307 112 307 112 293 126.5 c 128,-1,98
 279 141 279 141 279 169 c 0,99,100
 279 198 279 198 293 212 c 128,-1,101
 307 226 307 226 336 226 c 0,102,103
 358 226 358 226 375 209.5 c 128,-1,104
 392 193 392 193 392 169 c 0,105,106
 392 141 392 141 378 126.5 c 128,-1,107
 364 112 364 112 336 112 c 0,96,97
840 -22 m 0,108,109
 811 -22 811 -22 796.5 -8 c 128,-1,110
 782 6 782 6 782 34 c 0,111,112
 782 63 782 63 796.5 78 c 128,-1,113
 811 93 811 93 840 93 c 0,114,115
 863 93 863 93 879.5 75 c 128,-1,116
 896 57 896 57 896 34 c 256,117,118
 896 11 896 11 879 -5.5 c 128,-1,119
 862 -22 862 -22 840 -22 c 0,108,109
470 -22 m 0,120,121
 448 -22 448 -22 431 -5.5 c 128,-1,122
 414 11 414 11 414 34 c 256,123,124
 414 57 414 57 430.5 75 c 128,-1,125
 447 93 447 93 470 93 c 0,126,127
 495 93 495 93 510.5 75 c 128,-1,128
 526 57 526 57 526 34 c 256,129,130
 526 11 526 11 510 -5.5 c 128,-1,131
 494 -22 494 -22 470 -22 c 0,120,121
654 -72 m 0,132,133
 632 -72 632 -72 615 -55 c 128,-1,134
 598 -38 598 -38 598 -16 c 0,135,136
 598 14 598 14 612 28.5 c 128,-1,137
 626 43 626 43 654 43 c 0,138,139
 683 43 683 43 697.5 28.5 c 128,-1,140
 712 14 712 14 712 -16 c 0,141,142
 712 -44 712 -44 697.5 -58 c 128,-1,143
 683 -72 683 -72 654 -72 c 0,132,133
EndSplineSet
EndChar

StartChar: tm_k_ikaar
Encoding: 65543 -1 120
Width: 1356
GlyphClass: 2
Flags: W
LayerCount: 2
Fore
SplineSet
1406 12 m 256,0,1
 1406 0 1406 0 1378 0 c 2,2,-1
 960 0 l 2,3,4
 910 0 910 0 908 10 c 0,5,6
 908 28 908 28 942 28 c 0,7,8
 996 28 996 28 1018 42 c 0,9,10
 1056 64 1056 64 1056 132 c 2,11,-1
 1056 782 l 2,12,13
 1056 910 1056 910 986 960 c 0,14,15
 936 994 936 994 836 994 c 0,16,17
 754 994 754 994 690 958 c 0,18,19
 616 914 616 914 616 842 c 0,20,21
 616 790 616 790 646 766 c 1,22,-1
 722 766 l 2,23,24
 788 766 788 766 800 790 c 0,25,26
 806 802 806 802 811 807 c 128,-1,27
 816 812 816 812 818 814 c 1,28,29
 822 808 822 808 824 806 c 0,30,31
 834 794 834 794 840 780 c 2,32,-1
 944 544 l 2,33,34
 950 526 950 526 940 522 c 0,35,36
 932 520 932 520 920 534 c 1,37,38
 894 596 894 596 836 646 c 128,-1,39
 778 696 778 696 720 696 c 0,40,41
 614 696 614 696 614 568 c 2,42,-1
 614 492 l 1,43,-1
 700 492 l 2,44,45
 988 492 988 492 988 264 c 0,46,47
 988 134 988 134 911 66 c 128,-1,48
 834 -2 834 -2 714 -2 c 0,49,50
 614 -2 614 -2 560 50 c 1,51,-1
 556 62 l 1,52,53
 560 70 560 70 564 70 c 2,54,-1
 586 60 l 1,55,-1
 626 52 l 1,56,57
 698 52 698 52 747 107 c 128,-1,58
 796 162 796 162 796 244 c 0,59,60
 796 424 796 424 654 424 c 1,61,-1
 614 422 l 1,62,-1
 614 240 l 2,63,64
 614 -8 614 -8 314 -8 c 0,65,66
 196 -8 196 -8 111 59 c 128,-1,67
 26 126 26 126 26 242 c 0,68,69
 26 334 26 334 75 401 c 128,-1,70
 124 468 124 468 206 480 c 1,71,-1
 206 604 l 2,72,73
 206 672 206 672 174 708 c 128,-1,74
 142 744 142 744 92 744 c 0,75,76
 54 744 54 744 52 758 c 1,77,78
 66 762 66 762 88 764 c 128,-1,79
 110 766 110 766 120 766 c 2,80,-1
 566 766 l 1,81,82
 546 800 546 800 546 836 c 0,83,84
 546 936 546 936 644 1002 c 0,85,86
 734 1058 734 1058 842 1058 c 0,87,88
 1084 1058 1084 1058 1176 958 c 0,89,90
 1254 870 1254 870 1254 652 c 2,91,-1
 1254 194 l 2,92,93
 1254 102 1254 102 1268 74 c 0,94,95
 1294 24 1294 24 1376 24 c 0,96,97
 1406 24 1406 24 1406 12 c 256,0,1
414 494 m 1,98,-1
 414 630 l 2,99,100
 414 696 414 696 350 696 c 0,101,102
 290 696 290 696 290 614 c 2,103,-1
 290 494 l 1,104,-1
 414 494 l 1,98,-1
410 188 m 2,105,-1
 410 422 l 1,106,-1
 238 422 l 2,107,108
 180 422 180 422 142 365 c 128,-1,109
 104 308 104 308 104 242 c 0,110,111
 104 160 104 160 154 113 c 128,-1,112
 204 66 204 66 272 66 c 0,113,114
 410 66 410 66 410 188 c 2,105,-1
EndSplineSet
Ligature2: "'psts' Post Base Substitutions lookup 8 subtable" tm_ka tm_ikaar
EndChar

StartChar: tm_ng_ikaar
Encoding: 65544 -1 121
Width: 1896
GlyphClass: 2
Flags: W
LayerCount: 2
Fore
SplineSet
814 0 m 2,0,1
 766 0 766 0 764 10 c 0,2,3
 764 20 764 20 772 26 c 2,4,-1
 790 32 l 1,5,-1
 836 70 l 1,6,7
 874 120 874 120 874 220 c 0,8,9
 874 280 874 280 846 328 c 0,10,11
 812 386 812 386 758 386 c 0,12,13
 702 386 702 386 666 338 c 0,14,15
 658 328 658 328 652 312 c 0,16,17
 640 286 640 286 640 260 c 2,18,-1
 640 118 l 2,19,20
 640 82 640 82 661 56 c 128,-1,21
 682 30 682 30 712 26 c 0,22,23
 738 26 738 26 740 12 c 0,24,25
 740 0 740 0 714 0 c 2,26,-1
 354 0 l 2,27,28
 310 0 310 0 310 16 c 0,29,30
 310 28 310 28 338 28 c 0,31,32
 436 28 436 28 436 134 c 2,33,-1
 436 570 l 2,34,35
 436 630 436 630 422 658 c 0,36,37
 400 698 400 698 336 698 c 2,38,-1
 260 698 l 2,39,40
 170 698 170 698 170 586 c 2,41,-1
 170 164 l 2,42,43
 170 116 170 116 194 74 c 128,-1,44
 218 32 218 32 262 26 c 0,45,46
 280 26 280 26 280 10 c 1,47,48
 274 4 274 4 265 2 c 128,-1,49
 256 0 256 0 244 0 c 2,50,-1
 -18 0 l 2,51,52
 -48 0 -48 0 -52 12 c 0,53,54
 -52 24 -52 24 -26 26 c 0,55,56
 96 26 96 26 96 204 c 2,57,-1
 96 590 l 2,58,59
 96 738 96 738 2 738 c 1,60,-1
 -42 740 l 1,61,62
 -54 746 -54 746 -56 750 c 0,63,64
 -62 758 -62 758 -50 766 c 1,65,-1
 786 766 l 2,66,67
 842 766 842 766 862 776 c 1,68,-1
 880 790 l 1,69,70
 880 802 880 802 894 814 c 1,71,72
 908 802 908 802 912 792 c 2,73,-1
 1008 554 l 2,74,75
 1014 536 1014 536 1004 534 c 1,76,77
 990 544 990 544 982 554 c 0,78,79
 960 600 960 600 886 648 c 0,80,81
 848 670 848 670 808 684 c 128,-1,82
 768 698 768 698 732 698 c 0,83,84
 640 698 640 698 640 606 c 2,85,-1
 640 404 l 1,86,87
 710 482 710 482 836 482 c 0,88,89
 940 482 940 482 1006 408 c 0,90,91
 1062 342 1062 342 1062 254 c 0,92,93
 1062 146 1062 146 994 76 c 1,94,-1
 1084 76 l 2,95,96
 1194 76 1194 76 1194 162 c 2,97,-1
 1194 578 l 1,98,99
 1012 630 1012 630 1012 804 c 0,100,101
 1012 950 1012 950 1130 1026 c 0,102,103
 1228 1090 1228 1090 1376 1090 c 0,104,105
 1536 1090 1536 1090 1628 1032 c 0,106,107
 1736 962 1736 962 1736 828 c 2,108,-1
 1736 142 l 2,109,110
 1736 76 1736 76 1762 53 c 128,-1,111
 1788 30 1788 30 1850 30 c 0,112,113
 1878 30 1878 30 1882 18 c 0,114,115
 1882 8 1882 8 1852 4 c 1,116,-1
 1520 4 l 2,117,118
 1488 4 1488 4 1486 18 c 0,119,120
 1486 38 1486 38 1508 40 c 0,121,122
 1532 40 1532 40 1538 76 c 1,123,-1
 1540 160 l 1,124,-1
 1540 790 l 2,125,126
 1540 1002 1540 1002 1322 1002 c 0,127,128
 1206 1002 1206 1002 1143 950 c 128,-1,129
 1080 898 1080 898 1080 806 c 0,130,131
 1080 676 1080 676 1190 658 c 1,132,133
 1190 752 1190 752 1114 752 c 0,134,135
 1084 752 1084 752 1082 766 c 1,136,137
 1088 772 1088 772 1098 774 c 128,-1,138
 1108 776 1108 776 1120 776 c 2,139,-1
 1486 776 l 2,140,141
 1516 776 1516 776 1518 762 c 0,142,143
 1518 750 1518 750 1472 750 c 0,144,145
 1432 750 1432 750 1408 688 c 0,146,147
 1394 642 1394 642 1394 612 c 2,148,-1
 1394 136 l 2,149,150
 1394 78 1394 78 1430 50 c 1,151,152
 1464 30 1464 30 1470 18 c 1,153,154
 1470 0 1470 0 1424 0 c 2,155,-1
 814 0 l 2,0,1
EndSplineSet
Ligature2: "'psts' Post Base Substitutions lookup 8 subtable" tm_nga tm_ikaar
EndChar

StartChar: tm_c_ikaar
Encoding: 65545 -1 122
Width: 1372
GlyphClass: 2
Flags: W
LayerCount: 2
Fore
SplineSet
1422 10 m 1,0,1
 1416 4 1416 4 1406 2 c 128,-1,2
 1396 0 1396 0 1384 0 c 2,3,-1
 946 0 l 2,4,5
 914 0 914 0 912 14 c 0,6,7
 912 26 912 26 950 26 c 1,8,-1
 960 24 l 1,9,-1
 976 24 l 2,10,11
 1074 24 1074 24 1074 184 c 2,12,-1
 1074 828 l 2,13,14
 1074 1006 1074 1006 874 1006 c 0,15,16
 646 1006 646 1006 646 842 c 0,17,18
 646 786 646 786 672 766 c 1,19,-1
 734 766 l 2,20,21
 792 766 792 766 816 790 c 1,22,-1
 836 816 l 1,23,24
 846 808 846 808 848 802 c 2,25,-1
 936 588 l 2,26,27
 938 582 938 582 938 574 c 128,-1,28
 938 566 938 566 938 564 c 1,29,30
 936 566 936 566 934 566 c 0,31,32
 924 572 924 572 910 588 c 0,33,34
 826 702 826 702 730 702 c 0,35,36
 664 702 664 702 638 658 c 0,37,38
 622 630 622 630 622 566 c 2,39,-1
 622 480 l 1,40,-1
 870 480 l 2,41,42
 904 480 904 480 928 504 c 2,43,-1
 948 528 l 1,44,45
 960 514 960 514 964 504 c 2,46,-1
 1048 266 l 2,47,48
 1054 250 1054 250 1046 244 c 1,49,50
 1042 246 1042 246 1037 248 c 128,-1,51
 1032 250 1032 250 1028 256 c 0,52,53
 942 408 942 408 802 408 c 2,54,-1
 622 408 l 1,55,-1
 622 226 l 2,56,57
 622 88 622 88 520 22 c 0,58,59
 438 -28 438 -28 322 -28 c 0,60,61
 196 -28 196 -28 118 32 c 0,62,63
 26 102 26 102 26 232 c 0,64,65
 26 320 26 320 79 390 c 128,-1,66
 132 460 132 460 206 474 c 1,67,-1
 206 608 l 2,68,69
 206 680 206 680 184 710 c 0,70,71
 156 750 156 750 86 750 c 0,72,73
 62 750 62 750 62 760 c 1,74,75
 78 766 78 766 90 766 c 2,76,-1
 594 766 l 1,77,78
 566 788 566 788 566 844 c 0,79,80
 566 958 566 958 670 1020 c 0,81,82
 766 1074 766 1074 926 1074 c 0,83,84
 1066 1074 1066 1074 1167 1001 c 128,-1,85
 1268 928 1268 928 1268 794 c 2,86,-1
 1268 170 l 2,87,88
 1268 98 1268 98 1285 61 c 128,-1,89
 1302 24 1302 24 1396 24 c 0,90,91
 1420 24 1420 24 1422 10 c 1,0,1
422 480 m 1,92,-1
 422 628 l 2,93,94
 422 664 422 664 412 684 c 128,-1,95
 402 704 402 704 350 704 c 0,96,97
 274 704 274 704 274 592 c 2,98,-1
 274 480 l 1,99,-1
 422 480 l 1,92,-1
422 176 m 2,100,-1
 422 408 l 1,101,-1
 250 408 l 2,102,103
 188 408 188 408 148 357 c 128,-1,104
 108 306 108 306 108 238 c 0,105,106
 108 148 108 148 164 92 c 0,107,108
 212 40 212 40 282 40 c 0,109,110
 422 40 422 40 422 176 c 2,100,-1
EndSplineSet
Ligature2: "'psts' Post Base Substitutions lookup 8 subtable" tm_ca tm_ikaar
EndChar

StartChar: tm_j_ikaar
Encoding: 65546 -1 123
Width: 1538
GlyphClass: 2
Flags: W
LayerCount: 2
Fore
SplineSet
1602 12 m 0,0,1
 1602 0 1602 0 1566 0 c 2,2,-1
 1156 0 l 2,3,4
 1124 0 1124 0 1122 14 c 0,5,6
 1122 26 1122 26 1146 26 c 0,7,8
 1246 26 1246 26 1246 138 c 2,9,-1
 1246 838 l 2,10,11
 1246 910 1246 910 1186 956 c 0,12,13
 1134 992 1134 992 1048 992 c 256,14,15
 962 992 962 992 899 960 c 128,-1,16
 836 928 836 928 836 860 c 0,17,18
 836 800 836 800 876 754 c 1,19,20
 964 754 964 754 1037 691 c 128,-1,21
 1110 628 1110 628 1110 504 c 0,22,23
 1110 418 1110 418 1056 354 c 128,-1,24
 1002 290 1002 290 904 268 c 1,25,26
 998 268 998 268 1054 217 c 128,-1,27
 1110 166 1110 166 1110 62 c 0,28,29
 1110 -40 1110 -40 1012 -112 c 0,30,31
 924 -176 924 -176 818 -176 c 256,32,33
 712 -176 712 -176 640 -122 c 0,34,35
 622 -110 622 -110 622 -86 c 0,36,37
 622 -74 622 -74 635 -60 c 128,-1,38
 648 -46 648 -46 662 -46 c 1,39,-1
 702 -70 l 1,40,41
 746 -102 746 -102 796 -102 c 0,42,43
 854 -102 854 -102 890 -46 c 1,44,45
 916 2 916 2 916 56 c 0,46,47
 916 124 916 124 879 165 c 128,-1,48
 842 206 842 206 788 206 c 0,49,50
 708 206 708 206 670 160 c 0,51,52
 650 136 650 136 626 52 c 1,53,54
 608 -30 608 -30 580 -62 c 0,55,56
 502 -170 502 -170 324 -170 c 0,57,58
 190 -170 190 -170 108 -100 c 128,-1,59
 26 -30 26 -30 26 82 c 0,60,61
 26 246 26 246 184 314 c 1,62,63
 130 308 130 308 82 350 c 0,64,65
 24 398 24 398 24 488 c 0,66,67
 24 620 24 620 118 692 c 128,-1,68
 212 764 212 764 368 764 c 0,69,70
 464 764 464 764 549 742 c 128,-1,71
 634 720 634 720 664 680 c 1,72,73
 670 710 670 710 728 734 c 1,74,-1
 790 752 l 1,75,76
 748 770 748 770 748 848 c 0,77,78
 748 960 748 960 856 1020 c 0,79,80
 944 1066 944 1066 1084 1066 c 0,81,82
 1446 1066 1446 1066 1446 770 c 2,83,-1
 1446 132 l 2,84,85
 1446 22 1446 22 1556 22 c 0,86,87
 1600 22 1600 22 1602 12 c 0,0,1
910 524 m 0,88,89
 910 674 910 674 800 674 c 0,90,91
 758 674 758 674 725 653 c 128,-1,92
 692 632 692 632 692 598 c 2,93,-1
 692 494 l 2,94,95
 692 454 692 454 722 424 c 0,96,97
 746 400 746 400 776 400 c 256,98,99
 806 400 806 400 806 388 c 0,100,101
 806 374 806 374 764 374 c 2,102,-1
 440 374 l 2,103,104
 406 374 406 374 402 386 c 0,105,106
 402 398 402 398 422 400 c 0,107,108
 450 400 450 400 472 424 c 128,-1,109
 494 448 494 448 494 480 c 2,110,-1
 494 550 l 2,111,112
 494 692 494 692 318 692 c 0,113,114
 274 692 274 692 243 686 c 128,-1,115
 212 680 212 680 184 664 c 0,116,117
 132 636 132 636 124 596 c 1,118,119
 174 642 174 642 246 642 c 0,120,121
 406 642 406 642 406 492 c 0,122,123
 406 364 406 364 296 322 c 1,124,-1
 704 322 l 2,125,126
 910 322 910 322 910 524 c 0,88,89
218 476 m 0,127,128
 218 558 218 558 156 558 c 0,129,130
 136 558 136 558 115 534 c 128,-1,131
 94 510 94 510 94 476 c 0,132,133
 94 392 94 392 160 392 c 0,134,135
 218 392 218 392 218 476 c 0,127,128
628 250 m 1,136,-1
 272 250 l 2,137,138
 202 250 202 250 157 206 c 128,-1,139
 112 162 112 162 112 96 c 0,140,141
 112 16 112 16 155 -39 c 128,-1,142
 198 -94 198 -94 280 -94 c 0,143,144
 340 -94 340 -94 382 -58 c 0,145,146
 410 -30 410 -30 422 10 c 0,147,148
 446 120 446 120 490 176 c 128,-1,149
 534 232 534 232 628 250 c 1,136,-1
EndSplineSet
Ligature2: "'psts' Post Base Substitutions lookup 8 subtable" tm_ja tm_ikaar
EndChar

StartChar: tm_ny_ikaar
Encoding: 65547 -1 124
Width: 2156
GlyphClass: 2
Flags: W
LayerCount: 2
Fore
SplineSet
1650 196 m 0,0,1
 1650 -48 1650 -48 1398 -166 c 1,2,3
 1192 -258 1192 -258 854 -258 c 0,4,5
 502 -258 502 -258 290 -140 c 0,6,7
 26 8 26 8 26 314 c 0,8,9
 26 530 26 530 168 652 c 0,10,11
 288 754 288 754 460 754 c 0,12,13
 482 754 482 754 488 742 c 1,14,15
 476 730 476 730 468 726 c 0,16,17
 344 702 344 702 282 580 c 0,18,19
 230 480 230 480 230 332 c 0,20,21
 230 30 230 30 404 -90 c 0,22,23
 546 -186 546 -186 878 -186 c 0,24,25
 1172 -186 1172 -186 1308 -95 c 128,-1,26
 1444 -4 1444 -4 1444 206 c 0,27,28
 1444 410 1444 410 1328 410 c 0,29,30
 1280 410 1280 410 1247 365 c 128,-1,31
 1214 320 1214 320 1214 266 c 2,32,-1
 1214 118 l 2,33,34
 1214 24 1214 24 1298 24 c 0,35,36
 1330 24 1330 24 1330 8 c 0,37,38
 1330 -4 1330 -4 1294 -4 c 2,39,-1
 918 -4 l 2,40,41
 880 -4 880 -4 878 12 c 0,42,43
 878 28 878 28 912 28 c 0,44,45
 944 28 944 28 977 49 c 128,-1,46
 1010 70 1010 70 1010 118 c 2,47,-1
 1010 592 l 2,48,49
 1010 658 1010 658 976 684 c 0,50,51
 952 698 952 698 902 698 c 2,52,-1
 754 698 l 2,53,54
 450 698 450 698 420 372 c 1,55,56
 444 438 444 438 497 481 c 128,-1,57
 550 524 550 524 620 524 c 0,58,59
 870 524 870 524 870 252 c 0,60,61
 870 128 870 128 794 58 c 128,-1,62
 718 -12 718 -12 610 -12 c 0,63,64
 472 -12 472 -12 400 98 c 0,65,66
 340 188 340 188 340 308 c 0,67,68
 340 514 340 514 428 628 c 0,69,70
 530 766 530 766 746 766 c 2,71,-1
 1386 766 l 2,72,73
 1434 766 1434 766 1458 790 c 1,74,-1
 1476 816 l 1,75,76
 1488 802 1488 802 1492 792 c 2,77,-1
 1590 546 l 2,78,79
 1596 526 1596 526 1590 520 c 1,80,81
 1578 520 1578 520 1572 534 c 0,82,83
 1542 596 1542 596 1472 642 c 0,84,85
 1394 696 1394 696 1314 696 c 0,86,87
 1214 696 1214 696 1214 602 c 2,88,-1
 1214 408 l 1,89,90
 1252 454 1252 454 1289 472 c 128,-1,91
 1326 490 1326 490 1410 490 c 0,92,93
 1522 490 1522 490 1586 413 c 128,-1,94
 1650 336 1650 336 1650 196 c 0,0,1
666 248 m 0,95,96
 666 424 666 424 556 424 c 0,97,98
 440 424 440 424 440 244 c 0,99,100
 440 178 440 178 473 123 c 128,-1,101
 506 68 506 68 562 68 c 0,102,103
 612 68 612 68 642 130 c 0,104,105
 666 182 666 182 666 248 c 0,95,96
1162 768 m 1,106,107
 1140 784 1140 784 1140 840 c 0,108,109
 1140 960 1140 960 1236 1027 c 128,-1,110
 1332 1094 1332 1094 1518 1094 c 0,111,112
 1614 1094 1614 1094 1725 1066 c 128,-1,113
 1836 1038 1836 1038 1886 998 c 0,114,115
 1968 934 1968 934 1968 826 c 2,116,-1
 1968 140 l 2,117,118
 1968 30 1968 30 2054 22 c 1,119,-1
 2104 22 l 2,120,121
 2122 22 2122 22 2126 10 c 0,122,123
 2126 -2 2126 -2 2106 -2 c 2,124,-1
 1666 -2 l 2,125,126
 1642 -2 1642 -2 1640 8 c 0,127,128
 1640 24 1640 24 1672 24 c 0,129,130
 1712 24 1712 24 1740 48 c 128,-1,131
 1768 72 1768 72 1768 140 c 2,132,-1
 1768 864 l 2,133,134
 1768 916 1768 916 1724 958 c 0,135,136
 1700 978 1700 978 1622 998 c 128,-1,137
 1544 1018 1544 1018 1492 1018 c 0,138,139
 1442 1018 1442 1018 1388 1002 c 0,140,141
 1354 992 1354 992 1304 970 c 0,142,143
 1216 930 1216 930 1216 852 c 0,144,145
 1216 792 1216 792 1262 766 c 1,146,-1
 1162 768 l 1,106,107
EndSplineSet
Ligature2: "'psts' Post Base Substitutions lookup 8 subtable" tm_nya tm_ikaar
EndChar

StartChar: tm_tt_ikaar
Encoding: 65548 -1 125
Width: 1214
GlyphClass: 2
Flags: W
LayerCount: 2
Fore
SplineSet
1216 244 m 1,0,1
 1220 236 1220 236 1220 232 c 2,2,-1
 1212 216 l 1,3,-1
 1060 -66 l 2,4,5
 1050 -84 1050 -84 1038 -82 c 1,6,7
 1032 -70 1032 -70 1032 -60 c 0,8,9
 1032 -42 1032 -42 994 -24 c 128,-1,10
 956 -6 956 -6 916 -6 c 2,11,-1
 778 -6 l 1,12,13
 712 -36 712 -36 712 -134 c 0,14,15
 712 -210 712 -210 758 -253 c 128,-1,16
 804 -296 804 -296 872 -296 c 0,17,18
 938 -296 938 -296 970 -276 c 0,19,20
 988 -264 988 -264 1006 -260 c 0,21,22
 1018 -260 1018 -260 1027 -270 c 128,-1,23
 1036 -280 1036 -280 1036 -288 c 0,24,25
 1036 -300 1036 -300 1014 -316 c 0,26,27
 944 -354 944 -354 800 -354 c 0,28,29
 690 -354 690 -354 601 -295 c 128,-1,30
 512 -236 512 -236 512 -136 c 0,31,32
 512 -40 512 -40 580 -4 c 1,33,-1
 10 -4 l 2,34,35
 -44 -4 -44 -4 -44 12 c 0,36,37
 -44 26 -44 26 8 26 c 0,38,39
 110 26 110 26 110 142 c 2,40,-1
 110 598 l 2,41,42
 110 698 110 698 66 728 c 0,43,44
 60 732 60 732 37 737 c 128,-1,45
 14 742 14 742 -14 742 c 0,46,47
 -40 742 -40 742 -40 756 c 1,48,49
 -34 760 -34 760 -32 760 c 0,50,51
 -18 766 -18 766 -6 766 c 2,52,-1
 418 766 l 2,53,54
 458 766 458 766 462 754 c 0,55,56
 462 742 462 742 432 742 c 0,57,58
 358 742 358 742 332 710 c 0,59,60
 316 684 316 684 316 618 c 2,61,-1
 316 206 l 2,62,63
 316 130 316 130 340 98 c 128,-1,64
 364 66 364 66 452 66 c 2,65,-1
 634 66 l 1,66,67
 532 126 532 126 494 202 c 128,-1,68
 456 278 456 278 456 420 c 0,69,70
 456 764 456 764 758 764 c 0,71,72
 922 764 922 764 998 652 c 0,73,74
 1062 558 1062 558 1062 404 c 0,75,76
 1062 134 1062 134 836 66 c 1,77,-1
 902 62 l 1,78,79
 1018 62 1018 62 1100 126 c 1,80,-1
 1196 230 l 1,81,82
 1204 246 1204 246 1216 244 c 1,0,1
870 386 m 0,83,84
 870 692 870 692 764 692 c 0,85,86
 686 692 686 692 660 592 c 0,87,88
 654 566 654 566 650 518 c 128,-1,89
 646 470 646 470 646 402 c 0,90,91
 646 140 646 140 748 92 c 1,92,93
 870 134 870 134 870 386 c 0,83,84
EndSplineSet
Ligature2: "'psts' Post Base Substitutions lookup 8 subtable" tm_tta tm_ikaar
EndChar

StartChar: tm_nn_ikaar
Encoding: 65549 -1 126
Width: 2618
GlyphClass: 2
Flags: W
LayerCount: 2
Fore
SplineSet
2662 10 m 0,0,1
 2662 -2 2662 -2 2618 -2 c 2,2,-1
 2210 -2 l 2,3,4
 2162 -2 2162 -2 2158 10 c 1,5,6
 2158 24 2158 24 2192 24 c 0,7,8
 2254 24 2254 24 2276 38 c 0,9,10
 2312 62 2312 62 2312 136 c 2,11,-1
 2312 816 l 2,12,13
 2312 904 2312 904 2256 946 c 1,14,15
 2198 984 2198 984 2078 984 c 0,16,17
 1832 984 1832 984 1832 842 c 0,18,19
 1832 780 1832 780 1884 748 c 1,20,-1
 2042 748 l 2,21,22
 2128 748 2128 748 2140 786 c 0,23,24
 2142 792 2142 792 2146 794 c 128,-1,25
 2150 796 2150 796 2152 798 c 0,26,27
 2162 790 2162 790 2166 784 c 2,28,-1
 2270 562 l 2,29,30
 2282 538 2282 538 2270 530 c 1,31,32
 2258 530 2258 530 2250 544 c 0,33,34
 2228 596 2228 596 2163 640 c 128,-1,35
 2098 684 2098 684 2036 684 c 0,36,37
 1972 684 1972 684 1944 642 c 0,38,39
 1928 614 1928 614 1928 546 c 2,40,-1
 1928 186 l 2,41,42
 1928 86 1928 86 1962 50 c 0,43,44
 1986 26 1986 26 2062 26 c 1,45,46
 2094 36 2094 36 2094 14 c 0,47,48
 2094 2 2094 2 2062 0 c 2,49,-1
 1602 0 l 2,50,51
 1572 0 1572 0 1572 12 c 256,52,53
 1572 24 1572 24 1602 24 c 0,54,55
 1672 24 1672 24 1700 51 c 128,-1,56
 1728 78 1728 78 1728 170 c 2,57,-1
 1728 516 l 2,58,59
 1728 620 1728 620 1701 654 c 128,-1,60
 1674 688 1674 688 1610 688 c 2,61,-1
 1482 688 l 1,62,63
 1638 592 1638 592 1638 330 c 0,64,65
 1638 194 1638 194 1572 94 c 0,66,67
 1496 -14 1496 -14 1368 -14 c 0,68,69
 1242 -14 1242 -14 1180 104 c 0,70,71
 1130 200 1130 200 1130 330 c 0,72,73
 1130 426 1130 426 1170 525 c 128,-1,74
 1210 624 1210 624 1286 680 c 1,75,76
 1214 716 1214 716 1094 716 c 0,77,78
 1018 716 1018 716 942 692 c 1,79,80
 1100 576 1100 576 1100 340 c 0,81,82
 1100 190 1100 190 1032 90 c 0,83,84
 996 38 996 38 948 12 c 128,-1,85
 900 -14 900 -14 836 -14 c 0,86,87
 704 -14 704 -14 640 104 c 0,88,89
 588 198 588 198 588 348 c 0,90,91
 588 420 588 420 626 510 c 0,92,93
 672 618 672 618 744 668 c 1,94,95
 738 686 738 686 672 704 c 128,-1,96
 606 722 606 722 526 722 c 0,97,98
 408 722 408 722 314 680 c 128,-1,99
 220 638 220 638 162 552 c 0,100,101
 134 508 134 508 119 465 c 128,-1,102
 104 422 104 422 104 376 c 1,103,104
 138 450 138 450 187 487 c 128,-1,105
 236 524 236 524 324 524 c 0,106,107
 446 524 446 524 510 442 c 0,108,109
 566 368 566 368 566 260 c 0,110,111
 566 140 566 140 494 63 c 128,-1,112
 422 -14 422 -14 284 -14 c 0,113,114
 164 -14 164 -14 95 84 c 128,-1,115
 26 182 26 182 26 332 c 0,116,117
 26 556 26 556 176 680 c 0,118,119
 310 786 310 786 526 786 c 0,120,121
 752 786 752 786 858 732 c 1,122,123
 992 778 992 778 1132 778 c 0,124,125
 1216 778 1216 778 1271 770 c 128,-1,126
 1326 762 1326 762 1380 738 c 1,127,128
 1430 748 1430 748 1786 748 c 1,129,130
 1754 806 1754 806 1754 836 c 0,131,132
 1754 946 1754 946 1864 1006 c 0,133,134
 1958 1054 1958 1054 2112 1054 c 0,135,136
 2516 1054 2516 1054 2516 786 c 2,137,-1
 2516 120 l 2,138,139
 2516 56 2516 56 2558 34 c 0,140,141
 2566 30 2566 30 2620 24 c 2,142,-1
 2646 22 l 2,143,144
 2658 22 2658 22 2662 10 c 0,0,1
1432 352 m 0,145,146
 1432 522 1432 522 1336 648 c 1,147,148
 1202 538 1202 538 1202 330 c 0,149,150
 1202 70 1202 70 1330 70 c 0,151,152
 1432 70 1432 70 1432 352 c 0,145,146
890 368 m 0,153,154
 890 530 890 530 790 632 c 1,155,156
 730 588 730 588 694 502 c 128,-1,157
 658 416 658 416 658 330 c 0,158,159
 658 70 658 70 788 70 c 0,160,161
 838 70 838 70 868 172 c 0,162,163
 890 256 890 256 890 368 c 0,153,154
364 258 m 0,164,165
 364 422 364 422 252 422 c 0,166,167
 196 422 196 422 160 372 c 1,168,169
 128 320 128 320 128 250 c 0,170,171
 128 178 128 178 159 123 c 128,-1,172
 190 68 190 68 252 68 c 0,173,174
 364 68 364 68 364 258 c 0,164,165
EndSplineSet
Ligature2: "'psts' Post Base Substitutions lookup 8 subtable" tm_nna tm_ikaar
EndChar

StartChar: tm_t_ikaar
Encoding: 65550 -1 127
Width: 1368
GlyphClass: 2
Flags: W
LayerCount: 2
Fore
SplineSet
1444 14 m 0,0,1
 1436 2 1436 2 1418 0 c 2,2,-1
 992 0 l 2,3,4
 980 0 980 0 976 12 c 1,5,-1
 992 26 l 1,6,7
 1014 30 1014 30 1046 46 c 1,8,9
 1072 64 1072 64 1078 104 c 1,10,-1
 1080 178 l 1,11,-1
 1082 830 l 2,12,13
 1082 986 1082 986 882 986 c 0,14,15
 776 986 776 986 714 952 c 1,16,17
 638 916 638 916 638 838 c 0,18,19
 638 792 638 792 670 760 c 1,20,-1
 732 760 l 2,21,22
 788 760 788 760 804 784 c 2,23,-1
 820 810 l 1,24,-1
 836 774 l 1,25,-1
 942 556 l 1,26,-1
 948 524 l 2,27,28
 946 526 946 526 944 526 c 0,29,30
 934 532 934 532 920 548 c 0,31,32
 824 690 824 690 718 690 c 0,33,34
 614 690 614 690 614 568 c 2,35,-1
 614 470 l 1,36,-1
 730 470 l 2,37,38
 868 470 868 470 936 382 c 0,39,40
 990 312 990 312 990 204 c 256,41,42
 990 96 990 96 973 40 c 128,-1,43
 956 -16 956 -16 898 -82 c 0,44,45
 784 -214 784 -214 516 -214 c 2,46,-1
 228 -214 l 2,47,48
 192 -214 192 -214 161 -220 c 128,-1,49
 130 -226 130 -226 92 -242 c 0,50,51
 8 -276 8 -276 -40 -332 c 0,52,53
 -56 -350 -56 -350 -70 -360 c 0,54,55
 -74 -362 -74 -362 -82 -368 c 1,56,57
 -86 -356 -86 -356 -82 -346 c 2,58,-1
 36 -106 l 2,59,60
 40 -98 40 -98 52 -90 c 1,61,-1
 62 -116 l 1,62,63
 82 -142 82 -142 140 -142 c 2,64,-1
 436 -142 l 2,65,66
 650 -142 650 -142 732 -34 c 0,67,68
 788 46 788 46 788 224 c 0,69,70
 788 340 788 340 728 380 c 0,71,72
 704 396 704 396 612 396 c 1,73,-1
 612 218 l 2,74,75
 612 -38 612 -38 310 -38 c 0,76,77
 188 -38 188 -38 116 20 c 1,78,79
 26 86 26 86 26 224 c 0,80,81
 26 328 26 328 96 400 c 0,82,83
 150 458 150 458 204 466 c 1,84,-1
 204 630 l 2,85,86
 204 742 204 742 104 742 c 0,87,88
 68 742 68 742 68 756 c 1,89,90
 74 762 74 762 80 764 c 128,-1,91
 86 766 86 766 96 766 c 2,92,-1
 576 766 l 1,93,94
 558 794 558 794 558 836 c 0,95,96
 558 952 558 952 668 1012 c 0,97,98
 756 1058 756 1058 892 1058 c 0,99,100
 1108 1058 1108 1058 1202 990 c 0,101,102
 1290 930 1290 930 1290 788 c 2,103,-1
 1290 154 l 2,104,105
 1290 76 1290 76 1316 50 c 0,106,107
 1328 38 1328 38 1356 32 c 2,108,-1
 1404 26 l 1,109,-1
 1432 24 l 2,110,111
 1446 24 1446 24 1444 14 c 0,0,1
408 466 m 1,112,-1
 408 624 l 2,113,114
 408 690 408 690 346 690 c 0,115,116
 276 690 276 690 276 626 c 2,117,-1
 276 466 l 1,118,-1
 408 466 l 1,112,-1
406 190 m 2,119,-1
 406 396 l 1,120,-1
 260 396 l 2,121,122
 184 396 184 396 138 342 c 0,123,124
 100 294 100 294 100 224 c 0,125,126
 100 144 100 144 148 90 c 1,127,128
 198 40 198 40 266 40 c 0,129,130
 406 40 406 40 406 190 c 2,119,-1
EndSplineSet
Ligature2: "'psts' Post Base Substitutions lookup 8 subtable" tm_ta tm_ikaar
EndChar

StartChar: tm_n_ikaar
Encoding: 65551 -1 128
Width: 1440
GlyphClass: 2
Flags: W
LayerCount: 2
Fore
SplineSet
1504 8 m 0,0,1
 1504 -4 1504 -4 1484 -4 c 2,2,-1
 1044 -4 l 2,3,4
 1020 -4 1020 -4 1018 6 c 0,5,6
 1018 22 1018 22 1050 22 c 0,7,8
 1090 22 1090 22 1118 46 c 128,-1,9
 1146 70 1146 70 1146 138 c 2,10,-1
 1146 862 l 2,11,12
 1146 914 1146 914 1102 956 c 1,13,14
 1048 1000 1048 1000 950 1000 c 0,15,16
 834 1000 834 1000 762 968 c 0,17,18
 674 928 674 928 674 850 c 0,19,20
 674 790 674 790 720 764 c 1,21,-1
 808 764 l 2,22,23
 856 764 856 764 878 786 c 1,24,-1
 892 810 l 1,25,26
 896 806 896 806 901 798 c 128,-1,27
 906 790 906 790 914 774 c 2,28,-1
 1000 554 l 2,29,30
 1006 538 1006 538 998 532 c 1,31,32
 992 538 992 538 990 540 c 0,33,34
 974 554 974 554 966 566 c 0,35,36
 874 694 874 694 722 694 c 0,37,38
 638 694 638 694 638 606 c 2,39,-1
 638 406 l 1,40,41
 696 480 696 480 802 480 c 0,42,43
 934 480 934 480 1002 392 c 0,44,45
 1062 316 1062 316 1062 198 c 0,46,47
 1062 8 1062 8 906 -106 c 1,48,49
 768 -198 768 -198 580 -198 c 2,50,-1
 212 -198 l 2,51,52
 114 -198 114 -198 46 -238 c 0,53,54
 -10 -268 -10 -268 -44 -312 c 2,55,-1
 -74 -346 l 1,56,-1
 -80 -344 l 2,57,58
 -86 -338 -86 -338 -72 -312 c 2,59,-1
 34 -94 l 2,60,61
 46 -68 46 -68 56 -66 c 1,62,-1
 64 -82 l 2,63,64
 72 -98 72 -98 99 -112 c 128,-1,65
 126 -126 126 -126 184 -126 c 2,66,-1
 530 -126 l 2,67,68
 672 -126 672 -126 766 -54 c 0,69,70
 868 28 868 28 868 176 c 0,71,72
 868 386 868 386 748 386 c 0,73,74
 702 386 702 386 668 347 c 128,-1,75
 634 308 634 308 634 242 c 2,76,-1
 634 124 l 2,77,78
 634 72 634 72 670 38 c 0,79,80
 680 28 680 28 712 24 c 0,81,82
 742 24 742 24 742 12 c 1,83,84
 738 10 738 10 729 7 c 128,-1,85
 720 4 720 4 712 4 c 2,86,-1
 336 4 l 2,87,88
 306 4 306 4 306 18 c 1,89,90
 312 20 312 20 316 22 c 0,91,92
 336 30 336 30 348 32 c 0,93,94
 386 32 386 32 412 68 c 1,95,96
 432 104 432 104 432 152 c 2,97,-1
 432 586 l 2,98,99
 432 620 432 620 429 634 c 128,-1,100
 426 648 426 648 416 660 c 0,101,102
 388 698 388 698 298 698 c 0,103,104
 222 698 222 698 195 673 c 128,-1,105
 168 648 168 648 168 580 c 2,106,-1
 168 194 l 2,107,108
 168 106 168 106 188 72 c 128,-1,109
 208 38 208 38 240 31 c 128,-1,110
 272 24 272 24 276 12 c 1,111,112
 262 4 262 4 252 4 c 2,113,-1
 -26 4 l 2,114,115
 -58 4 -58 4 -58 20 c 0,116,117
 -58 34 -58 34 -20 34 c 0,118,119
 26 34 26 34 52 66 c 0,120,121
 92 116 92 116 92 196 c 2,122,-1
 92 606 l 2,123,124
 92 658 92 658 70 696 c 0,125,126
 42 746 42 746 -10 746 c 0,127,128
 -30 746 -30 746 -38 747 c 128,-1,129
 -46 748 -46 748 -54 752 c 1,130,131
 -54 764 -54 764 -26 766 c 2,132,-1
 620 766 l 1,133,134
 598 782 598 782 598 838 c 0,135,136
 598 1072 598 1072 976 1072 c 0,137,138
 1168 1072 1168 1072 1264 996 c 0,139,140
 1346 932 1346 932 1346 824 c 2,141,-1
 1346 138 l 2,142,143
 1346 28 1346 28 1432 20 c 1,144,-1
 1482 20 l 2,145,146
 1500 20 1500 20 1504 8 c 0,0,1
EndSplineSet
Ligature2: "'psts' Post Base Substitutions lookup 8 subtable" tm_na tm_ikaar
EndChar

StartChar: tm_nnn_ikaar
Encoding: 65552 -1 129
Width: 2030
GlyphClass: 2
Flags: W
LayerCount: 2
Fore
SplineSet
2096 10 m 0,0,1
 2096 -2 2096 -2 2062 -2 c 2,2,-1
 1626 -2 l 2,3,4
 1590 -2 1590 -2 1590 8 c 0,5,6
 1590 20 1590 20 1638 20 c 0,7,8
 1746 20 1746 20 1746 130 c 2,9,-1
 1746 784 l 2,10,11
 1746 892 1746 892 1696 936 c 128,-1,12
 1646 980 1646 980 1538 980 c 0,13,14
 1446 980 1446 980 1382 943 c 128,-1,15
 1318 906 1318 906 1318 830 c 0,16,17
 1318 772 1318 772 1354 748 c 1,18,-1
 1504 748 l 2,19,20
 1556 748 1556 748 1580 774 c 0,21,22
 1588 784 1588 784 1590 791 c 128,-1,23
 1592 798 1592 798 1594 800 c 2,24,-1
 1612 768 l 1,25,-1
 1704 550 l 1,26,27
 1720 524 1720 524 1710 520 c 0,28,29
 1698 516 1698 516 1680 548 c 0,30,31
 1652 590 1652 590 1598 628 c 0,32,33
 1522 678 1522 678 1458 678 c 0,34,35
 1358 678 1358 678 1358 562 c 2,36,-1
 1358 144 l 2,37,38
 1358 22 1358 22 1462 22 c 0,39,40
 1510 22 1510 22 1514 10 c 1,41,42
 1508 6 1508 6 1500 3 c 128,-1,43
 1492 0 1492 0 1480 0 c 2,44,-1
 1052 0 l 2,45,46
 998 0 998 0 998 12 c 256,47,48
 998 24 998 24 1042 24 c 0,49,50
 1106 24 1106 24 1133 54 c 128,-1,51
 1160 84 1160 84 1160 162 c 2,52,-1
 1160 578 l 2,53,54
 1160 678 1160 678 1084 678 c 2,55,-1
 930 678 l 1,56,57
 1072 548 1072 548 1072 334 c 0,58,59
 1072 192 1072 192 1006 92 c 0,60,61
 932 -18 932 -18 806 -18 c 0,62,63
 688 -18 688 -18 626 88 c 0,64,65
 598 136 598 136 584 193 c 128,-1,66
 570 250 570 250 570 330 c 0,67,68
 570 406 570 406 609 507 c 128,-1,69
 648 608 648 608 728 670 c 1,70,71
 666 714 666 714 494 714 c 0,72,73
 308 714 308 714 198 598 c 0,74,75
 150 546 150 546 125 489 c 128,-1,76
 100 432 100 432 100 362 c 1,77,78
 154 528 154 528 314 528 c 0,79,80
 428 528 428 528 494 450 c 0,81,82
 552 376 552 376 552 252 c 0,83,84
 552 146 552 146 477 68 c 128,-1,85
 402 -10 402 -10 280 -10 c 0,86,87
 150 -10 150 -10 82 102 c 0,88,89
 26 196 26 196 26 320 c 0,90,91
 26 544 26 544 156 663 c 128,-1,92
 286 782 286 782 530 782 c 0,93,94
 644 782 644 782 718 770 c 128,-1,95
 792 758 792 758 836 730 c 1,96,97
 852 748 852 748 938 748 c 2,98,-1
 1280 748 l 1,99,100
 1252 794 1252 794 1248 826 c 1,101,102
 1248 948 1248 948 1368 1008 c 0,103,104
 1462 1052 1462 1052 1600 1052 c 0,105,106
 1720 1052 1720 1052 1810 1010 c 0,107,108
 1948 944 1948 944 1948 794 c 2,109,-1
 1948 154 l 2,110,111
 1948 72 1948 72 1978 44 c 0,112,113
 2002 24 2002 24 2060 24 c 0,114,115
 2096 24 2096 24 2096 10 c 0,0,1
872 358 m 0,116,117
 872 460 872 460 847 532 c 128,-1,118
 822 604 822 604 788 626 c 1,119,120
 724 580 724 580 688 490 c 128,-1,121
 652 400 652 400 652 312 c 0,122,123
 652 226 652 226 684 148 c 0,124,125
 714 64 714 64 762 64 c 0,126,127
 816 64 816 64 844 161 c 128,-1,128
 872 258 872 258 872 358 c 0,116,117
350 266 m 0,129,130
 350 430 350 430 240 430 c 0,131,132
 188 430 188 430 152 376 c 1,133,134
 122 322 122 322 122 246 c 0,135,136
 122 184 122 184 156 129 c 128,-1,137
 190 74 190 74 238 74 c 0,138,139
 350 74 350 74 350 266 c 0,129,130
EndSplineSet
Ligature2: "'psts' Post Base Substitutions lookup 8 subtable" tm_nnna tm_ikaar
EndChar

StartChar: tm_p_ikaar
Encoding: 65553 -1 130
Width: 1232
GlyphClass: 2
Flags: W
LayerCount: 2
Fore
SplineSet
1284 4 m 0,0,1
 1284 -8 1284 -8 1264 -8 c 2,2,-1
 900 -6 l 2,3,4
 868 -6 868 -6 866 8 c 1,5,6
 870 14 870 14 875 19 c 128,-1,7
 880 24 880 24 898 36 c 0,8,9
 930 56 930 56 930 116 c 2,10,-1
 930 830 l 2,11,12
 930 1010 930 1010 718 1010 c 0,13,14
 618 1010 618 1010 543 960 c 128,-1,15
 468 910 468 910 468 818 c 0,16,17
 468 692 468 692 580 650 c 1,18,19
 580 698 580 698 554 724 c 0,20,21
 540 734 540 734 506 744 c 0,22,23
 494 746 494 746 488 750 c 128,-1,24
 482 754 482 754 476 758 c 0,25,26
 476 762 476 762 479 765 c 128,-1,27
 482 768 482 768 484 770 c 2,28,-1
 882 770 l 2,29,30
 906 770 906 770 908 760 c 0,31,32
 908 750 908 750 890 746 c 1,33,34
 788 746 788 746 788 652 c 2,35,-1
 788 122 l 2,36,37
 788 92 788 92 810 54 c 0,38,39
 816 40 816 40 838 30 c 0,40,41
 856 18 856 18 858 8 c 1,42,43
 852 4 852 4 839 2 c 128,-1,44
 826 0 826 0 818 0 c 2,45,-1
 -22 0 l 2,46,47
 -52 0 -52 0 -54 14 c 0,48,49
 -54 26 -54 26 -18 26 c 0,50,51
 98 26 98 26 98 112 c 2,52,-1
 98 628 l 2,53,54
 98 746 98 746 0 746 c 0,55,56
 -18 746 -18 746 -28 744 c 0,57,58
 -58 740 -58 740 -58 754 c 0,59,60
 -58 766 -58 766 -28 766 c 2,61,-1
 354 766 l 2,62,63
 388 766 388 766 392 754 c 1,64,65
 378 742 378 742 358 738 c 128,-1,66
 338 734 338 734 320 722 c 0,67,68
 296 700 296 700 296 644 c 2,69,-1
 296 170 l 2,70,71
 296 68 296 68 386 68 c 2,72,-1
 502 68 l 2,73,74
 584 68 584 68 584 174 c 2,75,-1
 584 584 l 1,76,77
 402 638 402 638 402 796 c 0,78,79
 402 938 402 938 500 1013 c 128,-1,80
 598 1088 598 1088 770 1088 c 0,81,82
 924 1088 924 1088 1031 1015 c 128,-1,83
 1138 942 1138 942 1138 812 c 2,84,-1
 1138 114 l 2,85,86
 1138 18 1138 18 1250 18 c 0,87,88
 1282 18 1282 18 1284 4 c 0,0,1
EndSplineSet
Ligature2: "'psts' Post Base Substitutions lookup 8 subtable" tm_pa tm_ikaar
EndChar

StartChar: tm_m_ikaar
Encoding: 65554 -1 131
Width: 1616
GlyphClass: 2
Flags: W
LayerCount: 2
Fore
SplineSet
1652 8 m 0,0,1
 1652 -4 1652 -4 1616 -4 c 2,2,-1
 1178 -4 l 2,3,4
 1146 -4 1146 -4 1146 12 c 0,5,6
 1146 22 1146 22 1176 26 c 0,7,8
 1198 26 1198 26 1222 26 c 0,9,10
 1258 30 1258 30 1276 48 c 128,-1,11
 1294 66 1294 66 1294 128 c 2,12,-1
 1294 804 l 2,13,14
 1294 932 1294 932 1246 978 c 0,15,16
 1202 1016 1202 1016 1090 1016 c 0,17,18
 1008 1016 1008 1016 942 982 c 0,19,20
 854 940 854 940 854 856 c 0,21,22
 854 808 854 808 890 760 c 1,23,24
 1010 760 1010 760 1116 660 c 0,25,26
 1234 546 1234 546 1234 372 c 0,27,28
 1234 226 1234 226 1135 113 c 128,-1,29
 1036 0 1036 0 890 0 c 2,30,-1
 -2 0 l 2,31,32
 -38 0 -38 0 -38 14 c 1,33,34
 -32 20 -32 20 -23 22 c 128,-1,35
 -14 24 -14 24 -2 24 c 0,36,37
 66 24 66 24 92 50 c 128,-1,38
 118 76 118 76 118 136 c 2,39,-1
 118 612 l 2,40,41
 118 696 118 696 89 719 c 128,-1,42
 60 742 60 742 -18 742 c 0,43,44
 -42 742 -42 742 -42 758 c 1,45,46
 -36 764 -36 764 -26 766 c 128,-1,47
 -16 768 -16 768 -4 768 c 2,48,-1
 404 768 l 2,49,50
 434 770 434 770 436 758 c 0,51,52
 436 746 436 746 406 742 c 1,53,54
 374 742 374 742 348 720 c 128,-1,55
 322 698 322 698 322 654 c 2,56,-1
 322 170 l 2,57,58
 322 68 322 68 432 68 c 0,59,60
 496 68 496 68 523 98 c 128,-1,61
 550 128 550 128 550 210 c 2,62,-1
 550 626 l 2,63,64
 550 740 550 740 474 740 c 0,65,66
 458 740 458 740 454 758 c 1,67,68
 468 766 468 766 480 766 c 2,69,-1
 804 766 l 1,70,71
 794 778 794 778 788 794 c 128,-1,72
 782 810 782 810 782 834 c 0,73,74
 782 962 782 962 888 1026 c 0,75,76
 982 1082 982 1082 1122 1082 c 0,77,78
 1492 1082 1492 1082 1492 800 c 2,79,-1
 1492 104 l 2,80,81
 1492 46 1492 46 1536 28 c 0,82,83
 1548 22 1548 22 1614 22 c 0,84,85
 1650 22 1650 22 1652 8 c 0,0,1
1026 396 m 0,86,87
 1026 532 1026 532 994 604 c 0,88,89
 952 698 952 698 856 698 c 0,90,91
 806 698 806 698 780 672 c 0,92,93
 758 646 758 646 758 578 c 2,94,-1
 758 150 l 2,95,96
 758 112 758 112 786 89 c 128,-1,97
 814 66 814 66 852 66 c 0,98,99
 950 66 950 66 992 146 c 0,100,101
 1026 214 1026 214 1026 396 c 0,86,87
EndSplineSet
Ligature2: "'psts' Post Base Substitutions lookup 8 subtable" tm_ma tm_ikaar
EndChar

StartChar: tm_y_ikaar
Encoding: 65555 -1 132
Width: 1540
GlyphClass: 2
Flags: W
LayerCount: 2
Fore
SplineSet
1590 10 m 1,0,1
 1584 4 1584 4 1574 2 c 128,-1,2
 1564 0 1564 0 1552 0 c 2,3,-1
 1230 0 l 2,4,5
 1200 0 1200 0 1198 14 c 0,6,7
 1198 24 1198 24 1204 30 c 0,8,9
 1236 52 1236 52 1236 136 c 2,10,-1
 1236 788 l 2,11,12
 1236 1000 1236 1000 1000 1000 c 0,13,14
 756 1000 756 1000 756 792 c 0,15,16
 756 726 756 726 804 684 c 0,17,18
 836 654 836 654 880 646 c 1,19,20
 880 744 880 744 794 744 c 0,21,22
 772 744 772 744 768 756 c 0,23,24
 768 768 768 768 796 768 c 2,25,-1
 1178 768 l 2,26,27
 1208 768 1208 768 1208 758 c 0,28,29
 1208 746 1208 746 1180 744 c 0,30,31
 1098 744 1098 744 1098 650 c 2,32,-1
 1098 158 l 2,33,34
 1098 28 1098 28 1178 28 c 0,35,36
 1190 28 1190 28 1192 14 c 0,37,38
 1192 0 1192 0 1150 0 c 2,39,-1
 400 0 l 1,40,-1
 400 64 l 1,41,42
 348 -6 348 -6 260 -6 c 0,43,44
 182 -6 182 -6 134 43 c 128,-1,45
 86 92 86 92 86 168 c 2,46,-1
 86 602 l 2,47,48
 86 740 86 740 -12 740 c 0,49,50
 -54 740 -54 740 -54 752 c 0,51,52
 -54 772 -54 772 -14 766 c 1,53,-1
 222 766 l 2,54,55
 252 766 252 766 252 752 c 256,56,57
 252 738 252 738 238 736 c 0,58,59
 214 736 214 736 185 686 c 128,-1,60
 156 636 156 636 156 588 c 2,61,-1
 156 198 l 2,62,63
 156 150 156 150 190 108 c 128,-1,64
 224 66 224 66 280 66 c 0,65,66
 338 66 338 66 374 116 c 0,67,68
 398 152 398 152 398 202 c 2,69,-1
 398 616 l 2,70,71
 398 740 398 740 286 740 c 0,72,73
 264 740 264 740 260 752 c 1,74,75
 260 766 260 766 304 766 c 2,76,-1
 656 766 l 2,77,78
 692 766 692 766 692 748 c 1,79,80
 686 740 686 740 682 738 c 2,81,-1
 664 734 l 1,82,83
 604 710 604 710 604 642 c 2,84,-1
 604 166 l 2,85,86
 604 68 604 68 694 68 c 2,87,-1
 794 68 l 2,88,89
 886 68 886 68 886 168 c 2,90,-1
 886 582 l 1,91,92
 804 582 804 582 746 652 c 0,93,94
 698 706 698 706 698 792 c 0,95,96
 698 1074 698 1074 1070 1074 c 0,97,98
 1432 1074 1432 1074 1432 798 c 2,99,-1
 1432 182 l 2,100,101
 1432 74 1432 74 1470 44 c 0,102,103
 1492 26 1492 26 1552 26 c 0,104,105
 1588 26 1588 26 1590 10 c 1,0,1
EndSplineSet
Ligature2: "'psts' Post Base Substitutions lookup 8 subtable" tm_ya tm_ikaar
EndChar

StartChar: tm_r_ikaar
Encoding: 65556 -1 133
Width: 1278
GlyphClass: 2
Flags: W
LayerCount: 2
Fore
SplineSet
432 154 m 2,0,-1
 432 582 l 2,1,2
 432 702 432 702 288 702 c 0,3,4
 168 702 168 702 168 528 c 2,5,-1
 168 140 l 2,6,7
 168 28 168 28 246 28 c 0,8,9
 270 28 270 28 272 14 c 0,10,11
 272 4 272 4 248 0 c 1,12,-1
 -28 0 l 2,13,14
 -58 0 -58 0 -58 16 c 0,15,16
 -58 28 -58 28 -26 30 c 0,17,18
 98 30 98 30 98 126 c 2,19,-1
 98 598 l 2,20,21
 98 748 98 748 -8 748 c 0,22,23
 -44 748 -44 748 -44 758 c 1,24,-1
 -38 770 l 1,25,-1
 -26 770 l 1,26,-1
 -8 768 l 1,27,-1
 528 768 l 1,28,29
 506 822 506 822 502 854 c 1,30,31
 502 966 502 966 586 1030 c 0,32,33
 662 1084 662 1084 780 1084 c 0,34,35
 1176 1084 1176 1084 1176 780 c 2,36,-1
 1176 122 l 2,37,38
 1176 70 1176 70 1200 40 c 0,39,40
 1218 22 1218 22 1292 22 c 0,41,42
 1328 22 1328 22 1328 10 c 1,43,44
 1322 6 1322 6 1314 3 c 128,-1,45
 1306 0 1306 0 1294 0 c 2,46,-1
 858 0 l 2,47,48
 826 0 826 0 824 10 c 0,49,50
 824 24 824 24 860 24 c 0,51,52
 942 24 942 24 960 51 c 128,-1,53
 978 78 978 78 978 130 c 2,54,-1
 978 850 l 2,55,56
 978 946 978 946 916 984 c 0,57,58
 872 1012 872 1012 776 1012 c 0,59,60
 698 1012 698 1012 638 978 c 128,-1,61
 578 944 578 944 578 870 c 0,62,63
 578 806 578 806 614 766 c 1,64,-1
 764 766 l 2,65,66
 812 766 812 766 828 788 c 2,67,-1
 842 810 l 1,68,-1
 856 786 l 1,69,-1
 954 552 l 2,70,71
 960 540 960 540 952 534 c 0,72,73
 940 530 940 530 928 550 c 1,74,75
 914 594 914 594 846 644 c 128,-1,76
 778 694 778 694 708 694 c 0,77,78
 654 694 654 694 642 668 c 128,-1,79
 630 642 630 642 630 586 c 2,80,-1
 630 176 l 2,81,82
 630 90 630 90 653 60 c 128,-1,83
 676 30 676 30 738 30 c 0,84,85
 772 30 772 30 776 18 c 0,86,87
 776 6 776 6 742 6 c 0,88,89
 700 6 700 6 662 -20 c 1,90,-1
 572 -96 l 2,91,92
 508 -146 508 -146 426 -170 c 0,93,94
 386 -180 386 -180 346 -187 c 128,-1,95
 306 -194 306 -194 266 -194 c 2,96,-1
 92 -204 l 2,97,98
 26 -210 26 -210 -37 -247 c 128,-1,99
 -100 -284 -100 -284 -130 -332 c 0,100,101
 -148 -362 -148 -362 -160 -356 c 1,102,103
 -160 -336 -160 -336 -156 -324 c 2,104,-1
 -64 -126 l 2,105,106
 -44 -82 -44 -82 -36 -80 c 1,107,108
 -26 -88 -26 -88 -24 -92 c 2,109,-1
 -16 -106 l 1,110,111
 16 -132 16 -132 160 -132 c 0,112,113
 266 -132 266 -132 327 -108 c 128,-1,114
 388 -84 388 -84 414 -36 c 0,115,116
 426 -14 426 -14 430 19 c 128,-1,117
 434 52 434 52 434 90 c 0,118,119
 434 112 434 112 433 128 c 128,-1,120
 432 144 432 144 432 154 c 2,0,-1
EndSplineSet
Ligature2: "'psts' Post Base Substitutions lookup 8 subtable" tm_ra tm_ikaar
EndChar

StartChar: tm_rr_ikaar
Encoding: 65557 -1 134
Width: 1404
GlyphClass: 2
Flags: W
LayerCount: 2
Fore
SplineSet
1456 10 m 1,0,1
 1442 0 1442 0 1430 0 c 2,2,-1
 970 0 l 2,3,4
 946 0 946 0 946 12 c 1,5,6
 952 16 952 16 954 16 c 0,7,8
 968 22 968 22 980 22 c 0,9,10
 1038 22 1038 22 1065 47 c 128,-1,11
 1092 72 1092 72 1092 134 c 2,12,-1
 1092 764 l 2,13,14
 1092 886 1092 886 1036 934 c 0,15,16
 994 970 994 970 902 970 c 0,17,18
 726 970 726 970 726 852 c 0,19,20
 726 806 726 806 756 766 c 1,21,22
 856 754 856 754 913 686 c 128,-1,23
 970 618 970 618 992 506 c 0,24,25
 996 472 996 472 998 436 c 128,-1,26
 1000 400 1000 400 1000 326 c 0,27,28
 1000 114 1000 114 890 -26 c 0,29,30
 790 -148 790 -148 622 -180 c 0,31,32
 584 -186 584 -186 487 -190 c 128,-1,33
 390 -194 390 -194 230 -194 c 0,34,35
 154 -194 154 -194 68 -238 c 0,36,37
 -6 -274 -6 -274 -46 -344 c 0,38,39
 -56 -358 -56 -358 -66 -364 c 0,40,41
 -68 -364 -68 -364 -70 -366 c 0,42,43
 -82 -360 -82 -360 -64 -324 c 2,44,-1
 34 -104 l 2,45,46
 42 -88 42 -88 46 -81 c 128,-1,47
 50 -74 50 -74 54 -70 c 1,48,49
 64 -78 64 -78 69 -89 c 128,-1,50
 74 -100 74 -100 97 -111 c 128,-1,51
 120 -122 120 -122 176 -122 c 2,52,-1
 454 -122 l 2,53,54
 572 -122 572 -122 652 -78 c 0,55,56
 798 2 798 2 798 368 c 0,57,58
 798 692 798 692 652 692 c 0,59,60
 544 692 544 692 544 582 c 2,61,-1
 544 176 l 2,62,63
 544 26 544 26 636 26 c 0,64,65
 658 26 658 26 662 8 c 1,66,67
 658 6 658 6 650 3 c 128,-1,68
 642 0 642 0 634 0 c 2,69,-1
 296 0 l 2,70,71
 270 0 270 0 268 10 c 0,72,73
 268 24 268 24 286 30 c 0,74,75
 344 42 344 42 344 146 c 2,76,-1
 344 564 l 2,77,78
 344 692 344 692 242 692 c 0,79,80
 154 692 154 692 154 584 c 2,81,-1
 154 188 l 2,82,83
 154 146 154 146 172 92 c 0,84,85
 196 32 196 32 220 28 c 0,86,87
 242 28 242 28 246 10 c 1,88,89
 242 8 242 8 240 8 c 0,90,91
 220 0 220 0 196 0 c 2,92,-1
 -28 0 l 2,93,94
 -40 0 -40 0 -46 2 c 128,-1,95
 -52 4 -52 4 -58 8 c 1,96,97
 -58 20 -58 20 -26 22 c 0,98,99
 82 22 82 22 82 174 c 2,100,-1
 82 602 l 2,101,102
 82 768 82 768 312 768 c 0,103,104
 462 768 462 768 518 692 c 1,105,106
 562 770 562 770 672 770 c 1,107,-1
 654 796 l 1,108,-1
 646 836 l 1,109,110
 646 936 646 936 740 994 c 0,111,112
 824 1044 824 1044 940 1044 c 0,113,114
 1298 1044 1298 1044 1298 780 c 2,115,-1
 1298 144 l 2,116,117
 1298 24 1298 24 1418 24 c 0,118,119
 1454 24 1454 24 1456 10 c 1,0,1
EndSplineSet
Ligature2: "'psts' Post Base Substitutions lookup 8 subtable" tm_rra tm_ikaar
EndChar

StartChar: tm_l_ikaar
Encoding: 65558 -1 135
Width: 1614
GlyphClass: 2
Flags: W
LayerCount: 2
Fore
SplineSet
1664 12 m 0,0,1
 1664 -2 1664 -2 1622 -2 c 2,2,-1
 1184 -2 l 2,3,4
 1156 -2 1156 -2 1152 10 c 0,5,6
 1152 22 1152 22 1178 24 c 0,7,8
 1258 24 1258 24 1283 51 c 128,-1,9
 1308 78 1308 78 1308 138 c 2,10,-1
 1308 818 l 2,11,12
 1308 984 1308 984 1064 984 c 0,13,14
 972 984 972 984 900 949 c 128,-1,15
 828 914 828 914 828 854 c 0,16,17
 828 810 828 810 856 794 c 0,18,19
 866 786 866 786 948 774 c 0,20,21
 1026 766 1026 766 1068 744 c 0,22,23
 1232 658 1232 658 1232 388 c 0,24,25
 1232 194 1232 194 1144 93 c 128,-1,26
 1056 -8 1056 -8 898 -8 c 0,27,28
 620 -8 620 -8 620 276 c 2,29,-1
 620 510 l 2,30,31
 620 718 620 718 400 718 c 0,32,33
 280 718 280 718 193 636 c 128,-1,34
 106 554 106 554 106 418 c 1,35,36
 130 474 130 474 186 516 c 0,37,38
 214 536 214 536 240 546 c 128,-1,39
 266 556 266 556 298 556 c 0,40,41
 562 556 562 556 562 272 c 0,42,43
 562 158 562 158 487 83 c 128,-1,44
 412 8 412 8 286 8 c 0,45,46
 150 8 150 8 80 126 c 0,47,48
 26 216 26 216 26 348 c 0,49,50
 26 548 26 548 131 665 c 128,-1,51
 236 782 236 782 446 782 c 0,52,53
 820 782 820 782 820 476 c 2,54,-1
 820 230 l 2,55,56
 820 148 820 148 828 122 c 0,57,58
 844 62 844 62 902 62 c 0,59,60
 964 62 964 62 996 190 c 0,61,62
 1018 284 1018 284 1018 404 c 0,63,64
 1018 652 1018 652 926 708 c 1,65,-1
 822 728 l 1,66,67
 750 750 750 750 750 846 c 0,68,69
 750 930 750 930 838 988 c 0,70,71
 944 1056 944 1056 1148 1056 c 0,72,73
 1506 1056 1506 1056 1506 766 c 2,74,-1
 1506 148 l 2,75,76
 1506 82 1506 82 1536 48 c 0,77,78
 1560 24 1560 24 1622 24 c 0,79,80
 1650 24 1650 24 1651 24 c 128,-1,81
 1652 24 1652 24 1650 26 c 1,82,83
 1662 26 1662 26 1664 12 c 0,0,1
356 292 m 0,84,85
 356 474 356 474 250 474 c 0,86,87
 198 474 198 474 166 415 c 128,-1,88
 134 356 134 356 134 282 c 0,89,90
 134 86 134 86 246 86 c 0,91,92
 356 86 356 86 356 292 c 0,84,85
EndSplineSet
Ligature2: "'psts' Post Base Substitutions lookup 8 subtable" tm_la tm_ikaar
EndChar

StartChar: tm_ll_ikaar
Encoding: 65559 -1 136
Width: 1966
GlyphClass: 2
Flags: W
LayerCount: 2
Fore
SplineSet
2024 8 m 1,0,1
 2020 4 2020 4 2010 1 c 128,-1,2
 2000 -2 2000 -2 1984 -2 c 2,3,-1
 1536 -2 l 2,4,5
 1506 -2 1506 -2 1506 12 c 0,6,7
 1506 24 1506 24 1548 24 c 0,8,9
 1614 24 1614 24 1640 52 c 128,-1,10
 1666 80 1666 80 1666 168 c 2,11,-1
 1666 858 l 2,12,13
 1666 920 1666 920 1607 955 c 128,-1,14
 1548 990 1548 990 1472 990 c 256,15,16
 1396 990 1396 990 1332 960 c 0,17,18
 1258 922 1258 922 1258 852 c 0,19,20
 1258 794 1258 794 1302 756 c 1,21,-1
 1430 756 l 2,22,23
 1464 756 1464 756 1488 780 c 2,24,-1
 1508 804 l 1,25,26
 1512 800 1512 800 1514 798 c 0,27,28
 1524 788 1524 788 1528 778 c 2,29,-1
 1626 544 l 1,30,-1
 1632 528 l 2,31,32
 1632 518 1632 518 1630 516 c 0,33,34
 1622 514 1622 514 1600 552 c 128,-1,35
 1578 590 1578 590 1502 640 c 128,-1,36
 1426 690 1426 690 1354 690 c 0,37,38
 1280 690 1280 690 1280 592 c 2,39,-1
 1280 144 l 2,40,41
 1280 68 1280 68 1322 40 c 0,42,43
 1350 26 1350 26 1408 26 c 0,44,45
 1438 26 1438 26 1440 10 c 1,46,47
 1428 0 1428 0 1418 0 c 2,48,-1
 1014 0 l 2,49,50
 988 0 988 0 988 16 c 0,51,52
 988 28 988 28 1002 30 c 0,53,54
 1032 30 1032 30 1057 65 c 128,-1,55
 1082 100 1082 100 1082 162 c 2,56,-1
 1082 588 l 2,57,58
 1082 658 1082 658 1046 682 c 0,59,60
 1020 698 1020 698 966 698 c 0,61,62
 878 698 878 698 860 650 c 1,63,64
 886 592 886 592 886 534 c 2,65,-1
 886 140 l 2,66,67
 886 100 886 100 903 69 c 128,-1,68
 920 38 920 38 942 32 c 0,69,70
 960 30 960 30 962 10 c 1,71,72
 956 4 956 4 947 2 c 128,-1,73
 938 0 938 0 926 0 c 2,74,-1
 526 0 l 2,75,76
 506 0 506 0 504 10 c 0,77,78
 504 22 504 22 530 22 c 0,79,80
 612 22 612 22 647 46 c 128,-1,81
 682 70 682 70 682 146 c 2,82,-1
 682 512 l 2,83,84
 682 730 682 730 440 730 c 0,85,86
 294 730 294 730 204 634 c 0,87,88
 158 586 158 586 133 523 c 128,-1,89
 108 460 108 460 108 378 c 1,90,91
 138 458 138 458 182 496 c 0,92,93
 236 538 236 538 332 538 c 0,94,95
 440 538 440 538 502 463 c 128,-1,96
 564 388 564 388 564 260 c 0,97,98
 564 142 564 142 485 67 c 128,-1,99
 406 -8 406 -8 296 -8 c 0,100,101
 160 -8 160 -8 86 114 c 0,102,103
 26 214 26 214 26 356 c 0,104,105
 26 544 26 544 130 662 c 0,106,107
 248 800 248 800 474 800 c 0,108,109
 708 800 708 800 804 712 c 1,110,111
 838 746 838 746 866 755 c 128,-1,112
 894 764 894 764 954 764 c 2,113,-1
 1212 764 l 1,114,115
 1180 808 1180 808 1180 854 c 0,116,117
 1180 958 1180 958 1278 1014 c 0,118,119
 1320 1034 1320 1034 1376 1046 c 128,-1,120
 1432 1058 1432 1058 1502 1058 c 0,121,122
 1866 1058 1866 1058 1866 804 c 2,123,-1
 1866 162 l 2,124,125
 1866 76 1866 76 1888 48 c 1,126,127
 1914 22 1914 22 1980 22 c 0,128,129
 2022 22 2022 22 2024 8 c 1,0,1
376 266 m 0,130,131
 376 334 376 334 352 386 c 0,132,133
 322 446 322 446 260 446 c 0,134,135
 130 446 130 446 130 254 c 0,136,137
 130 178 130 178 168 118 c 128,-1,138
 206 58 206 58 268 58 c 0,139,140
 376 58 376 58 376 266 c 0,130,131
EndSplineSet
Ligature2: "'psts' Post Base Substitutions lookup 8 subtable" tm_lla tm_ikaar
EndChar

StartChar: tm_lll_ikaar
Encoding: 65560 -1 137
Width: 1588
GlyphClass: 2
Flags: W
LayerCount: 2
Fore
SplineSet
1640 14 m 1,0,1
 1640 0 1640 0 1600 0 c 2,2,-1
 1146 0 l 2,3,4
 1112 0 1112 0 1108 12 c 1,5,6
 1108 26 1108 26 1162 26 c 0,7,8
 1266 26 1266 26 1266 152 c 2,9,-1
 1266 818 l 2,10,11
 1266 994 1266 994 1070 994 c 0,12,13
 960 994 960 994 889 956 c 128,-1,14
 818 918 818 918 818 850 c 0,15,16
 818 796 818 796 850 766 c 1,17,18
 990 766 990 766 1090 656 c 128,-1,19
 1190 546 1190 546 1190 396 c 0,20,21
 1190 290 1190 290 1145 191 c 128,-1,22
 1100 92 1100 92 1014 42 c 0,23,24
 928 -4 928 -4 732 -4 c 1,25,26
 730 -14 730 -14 730 -32 c 0,27,28
 730 -104 730 -104 825 -134 c 128,-1,29
 920 -164 920 -164 934 -172 c 0,30,31
 988 -202 988 -202 988 -262 c 0,32,33
 988 -346 988 -346 890 -346 c 0,34,35
 860 -346 860 -346 834 -325 c 128,-1,36
 808 -304 808 -304 806 -280 c 0,37,38
 806 -264 806 -264 818 -246 c 2,39,-1
 832 -226 l 1,40,41
 832 -202 832 -202 796 -202 c 0,42,43
 756 -202 756 -202 704 -262 c 0,44,45
 624 -352 624 -352 600 -370 c 0,46,47
 524 -430 524 -430 422 -430 c 0,48,49
 194 -430 194 -430 104 -198 c 0,50,51
 96 -176 96 -176 96 -160 c 0,52,53
 96 -140 96 -140 114 -134 c 0,54,55
 132 -130 132 -130 138 -142 c 2,56,-1
 152 -166 l 1,57,58
 236 -292 236 -292 428 -292 c 0,59,60
 526 -292 526 -292 714 -182 c 1,61,62
 606 -166 606 -166 556 -94 c 0,63,64
 540 -66 540 -66 530 -4 c 1,65,-1
 -14 -4 l 2,66,67
 -52 -4 -52 -4 -54 10 c 0,68,69
 -54 22 -54 22 0 22 c 0,70,71
 42 22 42 22 70 49 c 128,-1,72
 98 76 98 76 98 118 c 2,73,-1
 98 624 l 2,74,75
 98 740 98 740 6 740 c 0,76,77
 -32 740 -32 740 -34 750 c 0,78,79
 -34 766 -34 766 18 766 c 2,80,-1
 348 766 l 2,81,82
 404 766 404 766 404 750 c 0,83,84
 404 738 404 738 368 738 c 0,85,86
 336 738 336 738 316 703 c 128,-1,87
 296 668 296 668 296 628 c 2,88,-1
 296 214 l 2,89,90
 296 66 296 66 404 66 c 0,91,92
 480 66 480 66 504 89 c 128,-1,93
 528 112 528 112 528 168 c 2,94,-1
 528 614 l 2,95,96
 528 678 528 678 506 708 c 0,97,98
 494 722 494 722 469 731 c 128,-1,99
 444 740 444 740 440 752 c 1,100,101
 440 766 440 766 490 766 c 2,102,-1
 772 766 l 1,103,104
 748 796 748 796 748 844 c 0,105,106
 748 964 748 964 872 1026 c 0,107,108
 976 1076 976 1076 1118 1076 c 0,109,110
 1474 1076 1474 1076 1474 788 c 2,111,-1
 1474 132 l 2,112,113
 1474 26 1474 26 1590 26 c 0,114,115
 1636 26 1636 26 1640 14 c 1,0,1
988 402 m 0,116,117
 988 694 988 694 832 694 c 0,118,119
 786 694 786 694 770 684 c 0,120,121
 728 660 728 660 728 578 c 2,122,-1
 728 192 l 2,123,124
 728 66 728 66 826 66 c 0,125,126
 988 66 988 66 988 402 c 0,116,117
EndSplineSet
Ligature2: "'psts' Post Base Substitutions lookup 8 subtable" tm_llla tm_ikaar
EndChar

StartChar: tm_v_ikaar
Encoding: 65561 -1 138
Width: 1668
GlyphClass: 2
Flags: W
LayerCount: 2
Fore
SplineSet
1712 10 m 0,0,1
 1712 0 1712 0 1682 -4 c 1,2,-1
 1350 -4 l 2,3,4
 1318 -4 1318 -4 1316 10 c 0,5,6
 1316 30 1316 30 1338 32 c 0,7,8
 1362 32 1362 32 1368 68 c 1,9,-1
 1370 152 l 1,10,-1
 1370 782 l 2,11,12
 1370 994 1370 994 1152 994 c 0,13,14
 1036 994 1036 994 973 942 c 128,-1,15
 910 890 910 890 910 798 c 0,16,17
 910 668 910 668 1020 650 c 1,18,19
 1020 744 1020 744 944 744 c 0,20,21
 914 744 914 744 912 758 c 1,22,23
 918 764 918 764 928 766 c 128,-1,24
 938 768 938 768 950 768 c 2,25,-1
 1316 768 l 2,26,27
 1346 768 1346 768 1348 754 c 0,28,29
 1348 742 1348 742 1302 742 c 0,30,31
 1262 742 1262 742 1238 680 c 0,32,33
 1224 634 1224 634 1224 604 c 2,34,-1
 1224 128 l 2,35,36
 1224 70 1224 70 1260 42 c 1,37,38
 1294 22 1294 22 1300 10 c 1,39,40
 1300 -2 1300 -2 1254 -2 c 2,41,-1
 536 -2 l 2,42,43
 512 -2 512 -2 512 8 c 0,44,45
 512 22 512 22 534 30 c 0,46,47
 726 78 726 78 726 382 c 0,48,49
 726 720 726 720 444 720 c 0,50,51
 308 720 308 720 214 636 c 1,52,53
 130 554 130 554 114 408 c 1,54,55
 172 540 172 540 318 540 c 0,56,57
 430 540 430 540 498 469 c 128,-1,58
 566 398 566 398 566 270 c 0,59,60
 566 154 566 154 494 79 c 128,-1,61
 422 4 422 4 294 4 c 0,62,63
 164 4 164 4 95 99 c 128,-1,64
 26 194 26 194 26 346 c 0,65,66
 26 546 26 546 132 664 c 0,67,68
 250 794 250 794 476 794 c 0,69,70
 684 794 684 794 812 681 c 128,-1,71
 940 568 940 568 940 396 c 0,72,73
 940 260 940 260 890 172 c 0,74,75
 860 122 860 122 796 68 c 1,76,-1
 914 68 l 2,77,78
 1024 68 1024 68 1024 154 c 2,79,-1
 1024 570 l 1,80,81
 842 622 842 622 842 796 c 0,82,83
 842 942 842 942 960 1018 c 0,84,85
 1058 1082 1058 1082 1206 1082 c 0,86,87
 1366 1082 1366 1082 1458 1024 c 0,88,89
 1566 954 1566 954 1566 820 c 2,90,-1
 1566 134 l 2,91,92
 1566 68 1566 68 1592 45 c 128,-1,93
 1618 22 1618 22 1680 22 c 0,94,95
 1708 22 1708 22 1712 10 c 0,0,1
378 278 m 0,96,97
 378 460 378 460 264 460 c 0,98,99
 206 460 206 460 170 400 c 0,100,101
 138 340 138 340 138 268 c 0,102,103
 138 192 138 192 167 133 c 128,-1,104
 196 74 196 74 258 74 c 0,105,106
 316 74 316 74 350 140 c 0,107,108
 378 196 378 196 378 278 c 0,96,97
EndSplineSet
Ligature2: "'psts' Post Base Substitutions lookup 8 subtable" tm_va tm_ikaar
EndChar

StartChar: tm_ss_ikaar
Encoding: 65562 -1 139
Width: 2084
GlyphClass: 2
Flags: W
LayerCount: 2
Fore
SplineSet
2150 8 m 0,0,1
 2150 -4 2150 -4 2104 -4 c 2,2,-1
 1676 -4 l 2,3,4
 1646 -4 1646 -4 1644 10 c 0,5,6
 1644 22 1644 22 1692 22 c 0,7,8
 1746 22 1746 22 1772 52 c 128,-1,9
 1798 82 1798 82 1798 170 c 2,10,-1
 1798 782 l 2,11,12
 1798 972 1798 972 1592 972 c 0,13,14
 1358 972 1358 972 1358 826 c 0,15,16
 1358 804 1358 804 1369 786 c 128,-1,17
 1380 768 1380 768 1394 760 c 1,18,19
 1594 720 1594 720 1594 434 c 0,20,21
 1594 154 1594 154 1336 72 c 1,22,23
 1412 72 1412 72 1467 75 c 128,-1,24
 1522 78 1522 78 1566 98 c 0,25,26
 1658 140 1658 140 1718 218 c 0,27,28
 1730 234 1730 234 1740 244 c 0,29,30
 1742 246 1742 246 1746 248 c 0,31,32
 1750 248 1750 248 1753 245 c 128,-1,33
 1756 242 1756 242 1758 240 c 2,34,-1
 1740 202 l 1,35,-1
 1646 38 l 1,36,-1
 1612 -26 l 1,37,-1
 1584 -82 l 1,38,-1
 1572 -58 l 1,39,40
 1566 -36 1566 -36 1544 -22 c 0,41,42
 1512 0 1512 0 1454 0 c 2,43,-1
 1266 0 l 1,44,45
 1228 -32 1228 -32 1228 -132 c 0,46,47
 1228 -202 1228 -202 1280 -256 c 128,-1,48
 1332 -310 1332 -310 1406 -310 c 0,49,50
 1472 -310 1472 -310 1516 -272 c 0,51,52
 1530 -260 1530 -260 1537 -256 c 128,-1,53
 1544 -252 1544 -252 1552 -248 c 1,54,55
 1576 -248 1576 -248 1576 -274 c 0,56,57
 1576 -294 1576 -294 1550 -314 c 0,58,59
 1480 -362 1480 -362 1332 -362 c 0,60,61
 1214 -362 1214 -362 1124 -300 c 128,-1,62
 1034 -238 1034 -238 1034 -132 c 0,63,64
 1034 -60 1034 -60 1088 -2 c 1,65,-1
 530 -2 l 2,66,67
 492 -2 492 -2 490 8 c 0,68,69
 490 24 490 24 514 30 c 0,70,71
 718 66 718 66 718 394 c 0,72,73
 718 716 718 716 444 716 c 0,74,75
 274 716 274 716 185 617 c 128,-1,76
 96 518 96 518 96 348 c 1,77,78
 138 536 138 536 314 536 c 0,79,80
 426 536 426 536 494 456 c 0,81,82
 554 384 554 384 554 284 c 0,83,84
 554 158 554 158 476 75 c 128,-1,85
 398 -8 398 -8 276 -8 c 0,86,87
 148 -8 148 -8 76 118 c 0,88,89
 26 208 26 208 26 298 c 0,90,91
 26 786 26 786 488 786 c 0,92,93
 678 786 678 786 802 677 c 128,-1,94
 926 568 926 568 926 382 c 0,95,96
 926 184 926 184 774 68 c 1,97,-1
 1238 68 l 1,98,99
 1000 90 1000 90 1000 406 c 0,100,101
 1000 768 1000 768 1304 768 c 1,102,103
 1292 792 1292 792 1292 826 c 0,104,105
 1292 904 1292 904 1370 968 c 1,106,107
 1464 1038 1464 1038 1634 1038 c 0,108,109
 1878 1038 1878 1038 1956 928 c 0,110,111
 1998 864 1998 864 1998 694 c 2,112,-1
 1998 146 l 2,113,114
 1998 62 1998 62 2034 38 c 0,115,116
 2056 24 2056 24 2100 24 c 0,117,118
 2150 24 2150 24 2150 8 c 0,0,1
1404 440 m 0,119,120
 1404 714 1404 714 1302 714 c 0,121,122
 1190 714 1190 714 1190 438 c 0,123,124
 1190 274 1190 274 1200 234 c 0,125,126
 1218 134 1218 134 1286 134 c 0,127,128
 1404 134 1404 134 1404 440 c 0,119,120
354 258 m 0,129,130
 354 428 354 428 248 428 c 0,131,132
 190 428 190 428 159 368 c 128,-1,133
 128 308 128 308 128 242 c 0,134,135
 128 184 128 184 158 132 c 128,-1,136
 188 80 188 80 236 80 c 0,137,138
 288 80 288 80 321 131 c 128,-1,139
 354 182 354 182 354 258 c 0,129,130
EndSplineSet
Ligature2: "'psts' Post Base Substitutions lookup 8 subtable" tm_ssa tm_ikaar
EndChar

StartChar: tm_s_ikaar
Encoding: 65563 -1 140
Width: 2068
GlyphClass: 2
Flags: W
LayerCount: 2
Fore
SplineSet
2134 8 m 256,0,1
 2134 -4 2134 -4 2102 -4 c 2,2,-1
 1646 -4 l 2,3,4
 1632 -4 1632 -4 1624 -2 c 128,-1,5
 1616 0 1616 0 1610 4 c 1,6,7
 1610 16 1610 16 1646 16 c 0,8,9
 1774 16 1774 16 1774 126 c 2,10,-1
 1774 788 l 2,11,12
 1774 952 1774 952 1572 952 c 0,13,14
 1342 952 1342 952 1342 810 c 0,15,16
 1342 776 1342 776 1378 746 c 1,17,18
 1402 748 1402 748 1412 748 c 0,19,20
 1530 748 1530 748 1606 664 c 0,21,22
 1694 570 1694 570 1694 394 c 0,23,24
 1694 -22 1694 -22 1362 -22 c 0,25,26
 1192 -22 1192 -22 1118 54 c 0,27,28
 1052 120 1052 120 1052 276 c 2,29,-1
 1052 482 l 2,30,31
 1052 696 1052 696 932 696 c 0,32,33
 866 696 866 696 836 642 c 1,34,35
 872 590 872 590 872 436 c 2,36,-1
 872 134 l 2,37,38
 872 92 872 92 890 56 c 0,39,40
 908 28 908 28 938 24 c 0,41,42
 964 24 964 24 966 10 c 0,43,44
 966 -4 966 -4 932 -4 c 2,45,-1
 584 -4 l 2,46,47
 560 -4 560 -4 560 8 c 0,48,49
 560 22 560 22 586 24 c 0,50,51
 614 24 614 24 640 54 c 128,-1,52
 666 84 666 84 666 136 c 2,53,-1
 666 494 l 2,54,55
 666 596 666 596 596 654 c 0,56,57
 530 704 530 704 440 704 c 0,58,59
 280 704 280 704 194 616 c 0,60,61
 150 572 150 572 127 516 c 128,-1,62
 104 460 104 460 104 386 c 1,63,64
 144 530 144 530 308 530 c 0,65,66
 422 530 422 530 488 446 c 0,67,68
 548 370 548 370 548 246 c 0,69,70
 548 140 548 140 476 65 c 128,-1,71
 404 -10 404 -10 284 -10 c 0,72,73
 160 -10 160 -10 93 88 c 128,-1,74
 26 186 26 186 26 344 c 0,75,76
 26 524 26 524 130 640 c 0,77,78
 244 770 244 770 460 770 c 0,79,80
 572 770 572 770 652 752 c 128,-1,81
 732 734 732 734 786 694 c 1,82,83
 834 764 834 764 986 764 c 0,84,85
 1258 764 1258 764 1258 446 c 2,86,-1
 1258 260 l 2,87,88
 1258 34 1258 34 1368 34 c 0,89,90
 1434 34 1434 34 1470 172 c 0,91,92
 1494 268 1494 268 1494 380 c 0,93,94
 1494 658 1494 658 1376 682 c 1,95,96
 1352 676 1352 676 1310 700 c 0,97,98
 1262 730 1262 730 1262 792 c 0,99,100
 1262 1030 1262 1030 1626 1030 c 0,101,102
 1780 1030 1780 1030 1872 972 c 0,103,104
 1982 904 1982 904 1982 770 c 2,105,-1
 1982 96 l 2,106,107
 1982 20 1982 20 2086 20 c 0,108,109
 2134 20 2134 20 2134 8 c 256,0,1
356 242 m 0,110,111
 356 318 356 318 326 372 c 128,-1,112
 296 426 296 426 240 426 c 0,113,114
 186 426 186 426 153 374 c 128,-1,115
 120 322 120 322 120 248 c 0,116,117
 120 182 120 182 150 126 c 128,-1,118
 180 70 180 70 236 70 c 256,119,120
 292 70 292 70 324 120 c 128,-1,121
 356 170 356 170 356 242 c 0,110,111
EndSplineSet
Ligature2: "'psts' Post Base Substitutions lookup 8 subtable" tm_sa tm_ikaar
EndChar

StartChar: tm_h_ikaar
Encoding: 65564 -1 141
Width: 2312
GlyphClass: 2
Flags: W
LayerCount: 2
Fore
SplineSet
2364 8 m 1,0,1
 2358 2 2358 2 2352 0 c 128,-1,2
 2346 -2 2346 -2 2336 -2 c 2,3,-1
 1894 -2 l 2,4,5
 1870 -2 1870 -2 1870 14 c 0,6,7
 1870 26 1870 26 1894 26 c 0,8,9
 2012 26 2012 26 2012 142 c 2,10,-1
 2012 814 l 2,11,12
 2012 982 2012 982 1826 982 c 0,13,14
 1762 982 1762 982 1706 947 c 128,-1,15
 1650 912 1650 912 1650 850 c 0,16,17
 1650 782 1650 782 1700 762 c 1,18,19
 1806 750 1806 750 1868 646 c 0,20,21
 1898 594 1898 594 1914 531 c 128,-1,22
 1930 468 1930 468 1930 386 c 0,23,24
 1930 -186 1930 -186 1344 -186 c 2,25,-1
 220 -186 l 2,26,27
 156 -186 156 -186 84 -228 c 0,28,29
 6 -270 6 -270 -30 -348 c 1,30,-1
 -48 -348 l 1,31,32
 -52 -344 -52 -344 -50 -332 c 2,33,-1
 58 -78 l 2,34,35
 60 -68 60 -68 64 -64 c 128,-1,36
 68 -60 68 -60 70 -60 c 0,37,38
 84 -72 84 -72 88 -80 c 0,39,40
 106 -114 106 -114 180 -114 c 2,41,-1
 1392 -114 l 2,42,43
 1722 -114 1722 -114 1722 340 c 0,44,45
 1722 512 1722 512 1706 570 c 0,46,47
 1676 686 1676 686 1584 686 c 0,48,49
 1524 686 1524 686 1496 650 c 0,50,51
 1478 622 1478 622 1478 558 c 2,52,-1
 1478 130 l 2,53,54
 1478 38 1478 38 1556 26 c 1,55,56
 1592 26 1592 26 1592 10 c 1,57,58
 1588 8 1588 8 1586 8 c 0,59,60
 1566 0 1566 0 1542 0 c 2,61,-1
 1246 0 l 2,62,63
 1204 0 1204 0 1200 18 c 1,64,65
 1206 24 1206 24 1212 29 c 128,-1,66
 1218 34 1218 34 1232 42 c 0,67,68
 1280 70 1280 70 1280 146 c 2,69,-1
 1280 556 l 2,70,71
 1280 640 1280 640 1270 662 c 0,72,73
 1252 696 1252 696 1192 696 c 0,74,75
 1100 696 1100 696 1100 556 c 2,76,-1
 1100 168 l 2,77,78
 1100 64 1100 64 1152 38 c 1,79,-1
 1172 32 l 1,80,81
 1182 24 1182 24 1182 16 c 0,82,83
 1182 0 1182 0 1136 0 c 2,84,-1
 554 0 l 2,85,86
 494 0 494 0 494 16 c 0,87,88
 494 26 494 26 506 30 c 1,89,90
 522 30 522 30 530 34 c 0,91,92
 622 64 622 64 664 120 c 0,93,94
 724 202 724 202 724 380 c 0,95,96
 724 542 724 542 650 636 c 1,97,98
 576 722 576 722 460 722 c 0,99,100
 148 722 148 722 100 386 c 1,101,102
 154 544 154 544 306 544 c 0,103,104
 424 544 424 544 490 471 c 128,-1,105
 556 398 556 398 556 270 c 0,106,107
 556 154 556 154 470 78 c 128,-1,108
 384 2 384 2 272 2 c 0,109,110
 150 2 150 2 84 106 c 0,111,112
 26 198 26 198 26 336 c 0,113,114
 26 536 26 536 126 650 c 0,115,116
 246 792 246 792 500 792 c 0,117,118
 680 792 680 792 798 692 c 0,119,120
 926 582 926 582 926 378 c 0,121,122
 926 272 926 272 870 178 c 0,123,124
 828 104 828 104 782 80 c 1,125,-1
 852 80 l 1,126,-1
 874 80 l 2,127,128
 918 80 918 80 940 83 c 128,-1,129
 962 86 962 86 976 96 c 0,130,131
 1028 132 1028 132 1028 224 c 2,132,-1
 1028 536 l 2,133,134
 1028 648 1028 648 1066 698 c 0,135,136
 1114 764 1114 764 1252 764 c 0,137,138
 1396 764 1396 764 1458 688 c 1,139,140
 1474 718 1474 718 1532 746 c 0,141,142
 1570 762 1570 762 1604 766 c 1,143,144
 1574 784 1574 784 1574 842 c 0,145,146
 1574 938 1574 938 1660 995 c 128,-1,147
 1746 1052 1746 1052 1862 1052 c 0,148,149
 2020 1052 2020 1052 2114 975 c 128,-1,150
 2208 898 2208 898 2208 762 c 2,151,-1
 2208 188 l 2,152,153
 2208 68 2208 68 2248 36 c 0,154,155
 2252 32 2252 32 2277 27 c 128,-1,156
 2302 22 2302 22 2336 22 c 0,157,158
 2362 22 2362 22 2364 8 c 1,0,1
356 250 m 0,159,160
 356 432 356 432 244 432 c 0,161,162
 122 432 122 432 122 248 c 0,163,164
 122 84 122 84 240 84 c 0,165,166
 356 84 356 84 356 250 c 0,159,160
EndSplineSet
Ligature2: "'psts' Post Base Substitutions lookup 8 subtable" tm_ha tm_ikaar
EndChar

